<mxfile host="app.diagrams.net" agent="Mozilla/5.0 (Macintosh; Intel Mac OS X 10_15_7) AppleWebKit/537.36 (KHTML, like Gecko) Chrome/132.0.0.0 Safari/537.36" version="26.0.15">
  <diagram name="ページ1" id="cps1cYEGtea6WzaVjvZH">
    <mxGraphModel dx="1536" dy="960" grid="1" gridSize="10" guides="1" tooltips="1" connect="1" arrows="1" fold="1" page="1" pageScale="1" pageWidth="1169" pageHeight="827" math="0" shadow="0">
      <root>
        <mxCell id="0" />
        <mxCell id="1" parent="0" />
        <mxCell id="fzwWqeAGMKwhFWI8UKxH-8" value="" style="whiteSpace=wrap;html=1;strokeColor=none;" vertex="1" parent="1">
          <mxGeometry x="160" y="120" width="920" height="870" as="geometry" />
        </mxCell>
        <mxCell id="fzwWqeAGMKwhFWI8UKxH-1" value="" style="shape=image;verticalLabelPosition=bottom;labelBackgroundColor=default;verticalAlign=top;aspect=fixed;imageAspect=0;editableCssRules=.*;image=data:image/svg+xml,PHN2ZyB4bWxucz0iaHR0cDovL3d3dy53My5vcmcvMjAwMC9zdmciIGhlaWdodD0iMTA1Mi41IiB3aWR0aD0iNzk1IiBhcmlhLWxhYmVsbGVkYnk9InBvbHltYXRoLWdyYXBoLXRpdGxlIiByb2xlPSJpbWciIGRhdGEtdGVzdGlkPSJncmFwaCIgY2xhc3M9InNjLWlBLURzWHMgcWpLWW8gZ3JhcGgiIHZpZXdCb3g9IjExLjUgMTEuNSA3OTUgMTA1Mi41Ij4mI3hhOzx0aXRsZSBpZD0icG9seW1hdGgtZ3JhcGgtdGl0bGUiPldvcmtmbG93IFN0dWRpbyDjgrnjg4bjg7zjg4jjg57jgrfjg7PjgrDjg6njg5U8L3RpdGxlPiYjeGE7PGcgY2xhc3M9Im5ldy1sb29rLWdyYXBoIiB0cmFuc2Zvcm09InRyYW5zbGF0ZSgxMiwxMikiPiYjeGE7PGcgY2xhc3M9Im5vZGVzIj4mI3hhOzxnIHRyYW5zZm9ybT0idHJhbnNsYXRlKDQ5Ni43NSwyMikiIGNsYXNzPSJub2RlLWNvbnRhaW5lciI+JiN4YTs8Zz4mI3hhOzxjaXJjbGUgcj0iMjIiIGNsYXNzPSJzYy1lcHFwY1Qgak1JUndVIHNoYXBlIi8+JiN4YTs8dGV4dCBjbGFzcz0ic2MtQlFNYUkgZHhUUnZrIGxhYmVsIj4mI3hhOzx0c3BhbiBhbGlnbm1lbnQtYmFzZWxpbmU9ImNlbnRyYWwiIHRleHQtYW5jaG9yPSJtaWRkbGUiIHhtbDpzcGFjZT0icHJlc2VydmUiPlN0YXJ0PC90c3Bhbj4mI3hhOzwvdGV4dD4mI3hhOzwvZz4mI3hhOzwvZz4mI3hhOzxnIHRyYW5zZm9ybT0idHJhbnNsYXRlKDQ5Ni43NSwxMDMuNSkiIGNsYXNzPSJub2RlLWNvbnRhaW5lciI+JiN4YTs8ZyBkYXRhLXN0YXRlLXR5cGU9IlBhc3MiIGRhdGEtc3RhdGUtaWQ9IlByZXBhcmUiIGRhdGEtdGVzdGlkPSJncmFwaC1QcmVwYXJlIiBjbGFzcz0ic2MtZEppWnRBIGpEaGxWUSBub2RlIHN0YXRlIFBhc3MiPiYjeGE7PGcgY2xhc3M9Im5ldy1sb29rLXN0YXRlLW5vZGUiPiYjeGE7PHJlY3Qgcnk9IjMiIHJ4PSIzIiBoZWlnaHQ9IjQ5IiB3aWR0aD0iMjQwIiB5PSItMjQuNSIgeD0iLTEyMCIvPiYjeGE7PGcgdHJhbnNmb3JtPSJ0cmFuc2xhdGUoLTEyMCwtMjQuNSkiIGNsYXNzPSJoYW5kbGUiPiYjeGE7PHBhdGggZD0iTTUsMTYgTDUsMzQgTTgsMTYgTDgsMzQiLz4mI3hhOzwvZz4mI3hhOzxnIHRyYW5zZm9ybT0idHJhbnNsYXRlKC0xMDQsLTI0KSIgY2xhc3M9Imljb24iPiYjeGE7PHJlY3QgaGVpZ2h0PSI0OCIgd2lkdGg9IjQ4IiB5PSIwLjAxODEyOTE5NjciIHg9IjAuMDM2MTAyNjEwOCIgZmlsbD0idmFyKC0tY29sb3ItYmFja2dyb3VuZC1jb250YWluZXItaGVhZGVyLTdzMnRiYSwgI2ZhZmFmYSkiLz4mI3hhOzxsaW5lIHN0cm9rZS1saW5lY2FwPSJzcXVhcmUiIHN0cm9rZT0idmFyKC0tY29sb3ItYm9hcmQtcGxhY2Vob2xkZXItYWN0aXZlLXlqaTQwOCwgI2Q1ZGJkYikiIHkyPSI0Ny41IiB4Mj0iNDcuNSIgeTE9IjAuNDkxMjI4MDciIHgxPSI0Ny41Ii8+JiN4YTs8bGluZSBzdHJva2UtbGluZWNhcD0ic3F1YXJlIiBzdHJva2U9InZhcigtLWNvbG9yLWJvYXJkLXBsYWNlaG9sZGVyLWFjdGl2ZS15amk0MDgsICNkNWRiZGIpIiB5Mj0iNDcuNSIgeDI9IjAuNSIgeTE9IjAuNDkxMjI4MDciIHgxPSIwLjUiLz4mI3hhOzx1c2UgaHJlZj0iI2ljb24tZmxvdy1wYXNzIi8+JiN4YTs8L2c+JiN4YTs8ZyB0cmFuc2Zvcm09InRyYW5zbGF0ZSgtNDgsLTI0LjUpIiBjbGFzcz0idGV4dC1saW5lcyI+JiN4YTs8dGV4dCBjbGFzcz0ibGluZTEiIHRyYW5zZm9ybT0idHJhbnNsYXRlKDAsMTcpIj4mI3hhOzx0c3BhbiB0ZXh0LWFuY2hvcj0ic3RhcnQiIHhtbDpzcGFjZT0icHJlc2VydmUiPlBhc3Mgc3RhdGU8L3RzcGFuPiYjeGE7PC90ZXh0PiYjeGE7PHRleHQgY2xhc3M9ImxpbmUyIGxhYmVsIiB0cmFuc2Zvcm09InRyYW5zbGF0ZSgwLDM1LjUpIj4mI3hhOzx0c3BhbiB0ZXh0LWFuY2hvcj0ic3RhcnQiIHhtbDpzcGFjZT0icHJlc2VydmUiPlByZXBhcmU8L3RzcGFuPiYjeGE7PC90ZXh0PiYjeGE7PC9nPiYjeGE7PC9nPiYjeGE7PC9nPiYjeGE7PC9nPiYjeGE7PGcgdHJhbnNmb3JtPSJ0cmFuc2xhdGUoNDk2Ljc1LDE4Ny41KSIgY2xhc3M9Im5vZGUtY29udGFpbmVyIj4mI3hhOzxnIGRhdGEtc3RhdGUtdHlwZT0iVGFzayIgZGF0YS1zdGF0ZS1pZD0iQ3JlYXRlRXhwb3J0VGFzayIgZGF0YS10ZXN0aWQ9ImdyYXBoLUNyZWF0ZUV4cG9ydFRhc2siIGNsYXNzPSJzYy1kSmladEEgakRobFZRIG5vZGUgc3RhdGUgVGFzayI+JiN4YTs8ZyBjbGFzcz0ibmV3LWxvb2stc3RhdGUtbm9kZSI+JiN4YTs8cmVjdCByeT0iMyIgcng9IjMiIGhlaWdodD0iNDkiIHdpZHRoPSIyNzgiIHk9Ii0yNC41IiB4PSItMTM5Ii8+JiN4YTs8ZyB0cmFuc2Zvcm09InRyYW5zbGF0ZSgtMTM5LC0yNC41KSIgY2xhc3M9ImhhbmRsZSI+JiN4YTs8cGF0aCBkPSJNNSwxNiBMNSwzNCBNOCwxNiBMOCwzNCIvPiYjeGE7PC9nPiYjeGE7PGcgdHJhbnNmb3JtPSJ0cmFuc2xhdGUoLTEyMywtMjQpIiBjbGFzcz0iaWNvbiI+JiN4YTs8cmVjdCBoZWlnaHQ9IjQ4IiB3aWR0aD0iNDgiIHk9IjAuMDE4MTI5MTk2NyIgeD0iMC4wMzYxMDI2MTA4IiBmaWxsPSJ2YXIoLS1jb2xvci1iYWNrZ3JvdW5kLWNvbnRhaW5lci1oZWFkZXItN3MydGJhLCAjZmFmYWZhKSIvPiYjeGE7PGxpbmUgc3Ryb2tlLWxpbmVjYXA9InNxdWFyZSIgc3Ryb2tlPSJ2YXIoLS1jb2xvci1ib2FyZC1wbGFjZWhvbGRlci1hY3RpdmUteWppNDA4LCAjZDVkYmRiKSIgeTI9IjQ3LjUiIHgyPSI0Ny41IiB5MT0iMC40OTEyMjgwNyIgeDE9IjQ3LjUiLz4mI3hhOzxsaW5lIHN0cm9rZS1saW5lY2FwPSJzcXVhcmUiIHN0cm9rZT0idmFyKC0tY29sb3ItYm9hcmQtcGxhY2Vob2xkZXItYWN0aXZlLXlqaTQwOCwgI2Q1ZGJkYikiIHkyPSI0Ny41IiB4Mj0iMC41IiB5MT0iMC40OTEyMjgwNyIgeDE9IjAuNSIvPiYjeGE7PHVzZSBhcmlhLWhpZGRlbj0idHJ1ZSIgaHJlZj0iI2ljb24tc2VydmljZS1jdyI+JiN4YTs8dGl0bGU+Q2xvdWRXYXRjaDwvdGl0bGU+JiN4YTs8L3VzZT4mI3hhOzwvZz4mI3hhOzxnIHRyYW5zZm9ybT0idHJhbnNsYXRlKC02NywtMjQuNSkiIGNsYXNzPSJ0ZXh0LWxpbmVzIj4mI3hhOzx0ZXh0IGNsYXNzPSJsaW5lMSIgdHJhbnNmb3JtPSJ0cmFuc2xhdGUoMCwxNykiPiYjeGE7PHRzcGFuIHRleHQtYW5jaG9yPSJzdGFydCIgeG1sOnNwYWNlPSJwcmVzZXJ2ZSI+Q2xvdWRXYXRjaCBMb2dzOiBDcmVhdGVFeHBvcnRUYXNrPC90c3Bhbj4mI3hhOzwvdGV4dD4mI3hhOzx0ZXh0IGNsYXNzPSJsaW5lMiBsYWJlbCIgdHJhbnNmb3JtPSJ0cmFuc2xhdGUoMCwzNS41KSI+JiN4YTs8dHNwYW4gdGV4dC1hbmNob3I9InN0YXJ0IiB4bWw6c3BhY2U9InByZXNlcnZlIj5DcmVhdGVFeHBvcnRUYXNrPC90c3Bhbj4mI3hhOzwvdGV4dD4mI3hhOzwvZz4mI3hhOzwvZz4mI3hhOzwvZz4mI3hhOzwvZz4mI3hhOzxnIHRyYW5zZm9ybT0idHJhbnNsYXRlKDQ5Ni43NSwyNzEuNSkiIGNsYXNzPSJub2RlLWNvbnRhaW5lciI+JiN4YTs8ZyBkYXRhLXN0YXRlLXR5cGU9IldhaXQiIGRhdGEtc3RhdGUtaWQ9IldhaXRFeHBvcnRUYXNrIiBkYXRhLXRlc3RpZD0iZ3JhcGgtV2FpdEV4cG9ydFRhc2siIGNsYXNzPSJzYy1kSmladEEgakRobFZRIG5vZGUgc3RhdGUgV2FpdCI+JiN4YTs8ZyBjbGFzcz0ibmV3LWxvb2stc3RhdGUtbm9kZSI+JiN4YTs8cmVjdCByeT0iMyIgcng9IjMiIGhlaWdodD0iNDkiIHdpZHRoPSIyNDAiIHk9Ii0yNC41IiB4PSItMTIwIi8+JiN4YTs8ZyB0cmFuc2Zvcm09InRyYW5zbGF0ZSgtMTIwLC0yNC41KSIgY2xhc3M9ImhhbmRsZSI+JiN4YTs8cGF0aCBkPSJNNSwxNiBMNSwzNCBNOCwxNiBMOCwzNCIvPiYjeGE7PC9nPiYjeGE7PGcgdHJhbnNmb3JtPSJ0cmFuc2xhdGUoLTEwNCwtMjQpIiBjbGFzcz0iaWNvbiI+JiN4YTs8cmVjdCBoZWlnaHQ9IjQ4IiB3aWR0aD0iNDgiIHk9IjAuMDE4MTI5MTk2NyIgeD0iMC4wMzYxMDI2MTA4IiBmaWxsPSJ2YXIoLS1jb2xvci1iYWNrZ3JvdW5kLWNvbnRhaW5lci1oZWFkZXItN3MydGJhLCAjZmFmYWZhKSIvPiYjeGE7PGxpbmUgc3Ryb2tlLWxpbmVjYXA9InNxdWFyZSIgc3Ryb2tlPSJ2YXIoLS1jb2xvci1ib2FyZC1wbGFjZWhvbGRlci1hY3RpdmUteWppNDA4LCAjZDVkYmRiKSIgeTI9IjQ3LjUiIHgyPSI0Ny41IiB5MT0iMC40OTEyMjgwNyIgeDE9IjQ3LjUiLz4mI3hhOzxsaW5lIHN0cm9rZS1saW5lY2FwPSJzcXVhcmUiIHN0cm9rZT0idmFyKC0tY29sb3ItYm9hcmQtcGxhY2Vob2xkZXItYWN0aXZlLXlqaTQwOCwgI2Q1ZGJkYikiIHkyPSI0Ny41IiB4Mj0iMC41IiB5MT0iMC40OTEyMjgwNyIgeDE9IjAuNSIvPiYjeGE7PHVzZSBocmVmPSIjaWNvbi1mbG93LXdhaXQiLz4mI3hhOzwvZz4mI3hhOzxnIHRyYW5zZm9ybT0idHJhbnNsYXRlKC00OCwtMjQuNSkiIGNsYXNzPSJ0ZXh0LWxpbmVzIj4mI3hhOzx0ZXh0IGNsYXNzPSJsaW5lMSIgdHJhbnNmb3JtPSJ0cmFuc2xhdGUoMCwxNykiPiYjeGE7PHRzcGFuIHRleHQtYW5jaG9yPSJzdGFydCIgeG1sOnNwYWNlPSJwcmVzZXJ2ZSI+V2FpdCBzdGF0ZTwvdHNwYW4+JiN4YTs8L3RleHQ+JiN4YTs8dGV4dCBjbGFzcz0ibGluZTIgbGFiZWwiIHRyYW5zZm9ybT0idHJhbnNsYXRlKDAsMzUuNSkiPiYjeGE7PHRzcGFuIHRleHQtYW5jaG9yPSJzdGFydCIgeG1sOnNwYWNlPSJwcmVzZXJ2ZSI+V2FpdEV4cG9ydFRhc2s8L3RzcGFuPiYjeGE7PC90ZXh0PiYjeGE7PC9nPiYjeGE7PC9nPiYjeGE7PC9nPiYjeGE7PC9nPiYjeGE7PGcgdHJhbnNmb3JtPSJ0cmFuc2xhdGUoNDA1Ljc1LDM1NS41KSIgY2xhc3M9Im5vZGUtY29udGFpbmVyIj4mI3hhOzxnIGRhdGEtc3RhdGUtdHlwZT0iVGFzayIgZGF0YS1zdGF0ZS1pZD0iRGVzY3JpYmVFeHBvcnRUYXNrcyIgZGF0YS10ZXN0aWQ9ImdyYXBoLURlc2NyaWJlRXhwb3J0VGFza3MiIGNsYXNzPSJzYy1kSmladEEgakRobFZRIG5vZGUgc3RhdGUgVGFzayI+JiN4YTs8ZyBjbGFzcz0ibmV3LWxvb2stc3RhdGUtbm9kZSI+JiN4YTs8cmVjdCByeT0iMyIgcng9IjMiIGhlaWdodD0iNDkiIHdpZHRoPSIyOTQiIHk9Ii0yNC41IiB4PSItMTQ3Ii8+JiN4YTs8ZyB0cmFuc2Zvcm09InRyYW5zbGF0ZSgtMTQ3LC0yNC41KSIgY2xhc3M9ImhhbmRsZSI+JiN4YTs8cGF0aCBkPSJNNSwxNiBMNSwzNCBNOCwxNiBMOCwzNCIvPiYjeGE7PC9nPiYjeGE7PGcgdHJhbnNmb3JtPSJ0cmFuc2xhdGUoLTEzMSwtMjQpIiBjbGFzcz0iaWNvbiI+JiN4YTs8cmVjdCBoZWlnaHQ9IjQ4IiB3aWR0aD0iNDgiIHk9IjAuMDE4MTI5MTk2NyIgeD0iMC4wMzYxMDI2MTA4IiBmaWxsPSJ2YXIoLS1jb2xvci1iYWNrZ3JvdW5kLWNvbnRhaW5lci1oZWFkZXItN3MydGJhLCAjZmFmYWZhKSIvPiYjeGE7PGxpbmUgc3Ryb2tlLWxpbmVjYXA9InNxdWFyZSIgc3Ryb2tlPSJ2YXIoLS1jb2xvci1ib2FyZC1wbGFjZWhvbGRlci1hY3RpdmUteWppNDA4LCAjZDVkYmRiKSIgeTI9IjQ3LjUiIHgyPSI0Ny41IiB5MT0iMC40OTEyMjgwNyIgeDE9IjQ3LjUiLz4mI3hhOzxsaW5lIHN0cm9rZS1saW5lY2FwPSJzcXVhcmUiIHN0cm9rZT0idmFyKC0tY29sb3ItYm9hcmQtcGxhY2Vob2xkZXItYWN0aXZlLXlqaTQwOCwgI2Q1ZGJkYikiIHkyPSI0Ny41IiB4Mj0iMC41IiB5MT0iMC40OTEyMjgwNyIgeDE9IjAuNSIvPiYjeGE7PHVzZSBhcmlhLWhpZGRlbj0idHJ1ZSIgaHJlZj0iI2ljb24tc2VydmljZS1jdyI+JiN4YTs8dGl0bGU+Q2xvdWRXYXRjaDwvdGl0bGU+JiN4YTs8L3VzZT4mI3hhOzwvZz4mI3hhOzxnIHRyYW5zZm9ybT0idHJhbnNsYXRlKC03NSwtMjQuNSkiIGNsYXNzPSJ0ZXh0LWxpbmVzIj4mI3hhOzx0ZXh0IGNsYXNzPSJsaW5lMSIgdHJhbnNmb3JtPSJ0cmFuc2xhdGUoMCwxNykiPiYjeGE7PHRzcGFuIHRleHQtYW5jaG9yPSJzdGFydCIgeG1sOnNwYWNlPSJwcmVzZXJ2ZSI+Q2xvdWRXYXRjaCBMb2dzOiBEZXNjcmliZUV4cG9ydFRhc2tzPC90c3Bhbj4mI3hhOzwvdGV4dD4mI3hhOzx0ZXh0IGNsYXNzPSJsaW5lMiBsYWJlbCIgdHJhbnNmb3JtPSJ0cmFuc2xhdGUoMCwzNS41KSI+JiN4YTs8dHNwYW4gdGV4dC1hbmNob3I9InN0YXJ0IiB4bWw6c3BhY2U9InByZXNlcnZlIj5EZXNjcmliZUV4cG9ydFRhc2tzPC90c3Bhbj4mI3hhOzwvdGV4dD4mI3hhOzwvZz4mI3hhOzwvZz4mI3hhOzwvZz4mI3hhOzwvZz4mI3hhOzxnIHRyYW5zZm9ybT0idHJhbnNsYXRlKDQ5Ni43NSw0MzkuNSkiIGNsYXNzPSJub2RlLWNvbnRhaW5lciI+JiN4YTs8ZyBkYXRhLXN0YXRlLXR5cGU9IkNob2ljZSIgZGF0YS1zdGF0ZS1pZD0iQ29uZmlybUNvbXBsZXRlIiBkYXRhLXRlc3RpZD0iZ3JhcGgtQ29uZmlybUNvbXBsZXRlIiBjbGFzcz0ic2MtZEppWnRBIGpEaGxWUSBub2RlIHN0YXRlIENob2ljZSI+JiN4YTs8ZyBjbGFzcz0ibmV3LWxvb2stc3RhdGUtbm9kZSI+JiN4YTs8cmVjdCByeT0iMyIgcng9IjMiIGhlaWdodD0iNDkiIHdpZHRoPSIyNDAiIHk9Ii0yNC41IiB4PSItMTIwIi8+JiN4YTs8ZyB0cmFuc2Zvcm09InRyYW5zbGF0ZSgtMTIwLC0yNC41KSIgY2xhc3M9ImhhbmRsZSI+JiN4YTs8cGF0aCBkPSJNNSwxNiBMNSwzNCBNOCwxNiBMOCwzNCIvPiYjeGE7PC9nPiYjeGE7PGcgdHJhbnNmb3JtPSJ0cmFuc2xhdGUoLTEwNCwtMjQpIiBjbGFzcz0iaWNvbiI+JiN4YTs8cmVjdCBoZWlnaHQ9IjQ4IiB3aWR0aD0iNDgiIHk9IjAuMDE4MTI5MTk2NyIgeD0iMC4wMzYxMDI2MTA4IiBmaWxsPSJ2YXIoLS1jb2xvci1iYWNrZ3JvdW5kLWNvbnRhaW5lci1oZWFkZXItN3MydGJhLCAjZmFmYWZhKSIvPiYjeGE7PGxpbmUgc3Ryb2tlLWxpbmVjYXA9InNxdWFyZSIgc3Ryb2tlPSJ2YXIoLS1jb2xvci1ib2FyZC1wbGFjZWhvbGRlci1hY3RpdmUteWppNDA4LCAjZDVkYmRiKSIgeTI9IjQ3LjUiIHgyPSI0Ny41IiB5MT0iMC40OTEyMjgwNyIgeDE9IjQ3LjUiLz4mI3hhOzxsaW5lIHN0cm9rZS1saW5lY2FwPSJzcXVhcmUiIHN0cm9rZT0idmFyKC0tY29sb3ItYm9hcmQtcGxhY2Vob2xkZXItYWN0aXZlLXlqaTQwOCwgI2Q1ZGJkYikiIHkyPSI0Ny41IiB4Mj0iMC41IiB5MT0iMC40OTEyMjgwNyIgeDE9IjAuNSIvPiYjeGE7PHVzZSBocmVmPSIjaWNvbi1mbG93LWNob2ljZSIvPiYjeGE7PC9nPiYjeGE7PGcgdHJhbnNmb3JtPSJ0cmFuc2xhdGUoLTQ4LC0yNC41KSIgY2xhc3M9InRleHQtbGluZXMiPiYjeGE7PHRleHQgY2xhc3M9ImxpbmUxIiB0cmFuc2Zvcm09InRyYW5zbGF0ZSgwLDE3KSI+JiN4YTs8dHNwYW4gdGV4dC1hbmNob3I9InN0YXJ0IiB4bWw6c3BhY2U9InByZXNlcnZlIj5DaG9pY2Ugc3RhdGU8L3RzcGFuPiYjeGE7PC90ZXh0PiYjeGE7PHRleHQgY2xhc3M9ImxpbmUyIGxhYmVsIiB0cmFuc2Zvcm09InRyYW5zbGF0ZSgwLDM1LjUpIj4mI3hhOzx0c3BhbiB0ZXh0LWFuY2hvcj0ic3RhcnQiIHhtbDpzcGFjZT0icHJlc2VydmUiPkNvbmZpcm1Db21wbGV0ZTwvdHNwYW4+JiN4YTs8L3RleHQ+JiN4YTs8L2c+JiN4YTs8L2c+JiN4YTs8L2c+JiN4YTs8L2c+JiN4YTs8ZyB0cmFuc2Zvcm09InRyYW5zbGF0ZSgzMTkuNSw3MDIpIiBjbGFzcz0ibm9kZS1jb250YWluZXIiPiYjeGE7PGcgZGF0YS1zdGF0ZS10eXBlPSJNYXAiIGRhdGEtc3RhdGUtaWQ9Ik1vdmVMb2dGaWxlcyIgY2xhc3M9InNjLWRKaVp0QSBqRGhsVlEgbm9kZSBzdGF0ZSBjb250YWluZXIgTWFwIj4mI3hhOzxnIGNsYXNzPSJuZXctbG9vay1zdGF0ZS1ub2RlIj4mI3hhOzxnIHRyYW5zZm9ybT0idHJhbnNsYXRlKDAsNSkiIGNsYXNzPSJib3VuZGluZy1ib3giPiYjeGE7PGcgY2xhc3M9InNoYXBlIG5ldy1sb29rLXN0YXRlLW5vZGUtc3ViIj4mI3hhOzxyZWN0IGNsYXNzPSJzYy1jeVJjcloga1VSbmdRIiBoZWlnaHQ9IjM2OCIgd2lkdGg9IjYzOSIgeT0iLTE4Ni41IiB4PSItMzE5LjUiIHJ5PSIzIiByeD0iMyIvPiYjeGE7PHJlY3QgY2xhc3M9InNjLWN5UmNyWiBzYy1rVWRtaEEga1VSbmdRIGN4RWtORCIgaGVpZ2h0PSIyNiIgd2lkdGg9IjU4OSIgeT0iLTE0Mi41IiB4PSItMjk0LjUiLz4mI3hhOzxzdmcgeG1sbnM9Imh0dHA6Ly93d3cudzMub3JnLzIwMDAvc3ZnIiBmaWxsPSJub25lIiB2aWV3Qm94PSIwIDAgNDAgNDAiIGhlaWdodD0iNDAiIHdpZHRoPSIyNSIgeT0iLTE0NiIgeD0iLTI3OS41Ij4mI3hhOzxnIGZpbGw9IiM4ZThlOGUiIGlkPSJzMy1idWNrZXQiPiYjeGE7PHBhdGggaWQ9IkFtYXpvbi1TaW1wbGUtU3RvcmFnZS1TZXJ2aWNlLUljb25fNDhfU3F1aWQiIGQ9Ik0yMC40MjE2NjY3LDEzLjMwNDQ0NDQgTDIwLjU1MTY2NjcsMTIuMjk1IEMyMS43NTg4ODg5LDEyLjk5MTY2NjcgMjIuMTM0NDQ0NCwxMy40MDA1NTU2IDIyLjI0Mjc3NzgsMTMuNTY4ODg4OSBDMjIuMDYyNzc3OCwxMy42MDI3Nzc4IDIxLjU3MzMzMzMsMTMuNjE2MTExMSAyMC40MjE2NjY3LDEzLjMwNDQ0NDQgTDIwLjQyMTY2NjcsMTMuMzA0NDQ0NCBaIE0xMC44MzMzMzMzLDYuMTExMTExMTEgQzUuMDY5NDQ0NDQsNi4xMTExMTExMSAxLjMyMzMzMzMzLDQuNzE1NTU1NTYgMS4xMTExMTExMSwzLjcyIEwxLjExMTExMTExLDMuNjE3MjIyMjIgQzEuMzA1LDIuOTk1NTU1NTYgNC41MjIyMjIyMiwxLjExMTExMTExIDEwLjgzMzMzMzMsMS4xMTExMTExMSBDMTcuMTMzMzMzMywxLjExMTExMTExIDIwLjM1MTExMTEsMi45ODk0NDQ0NCAyMC41NTU1NTU2LDMuNjEzODg4ODkgTDIwLjU1NTU1NTYsMy42NzU1NTU1NiBDMjAuNDAyMjIyMiw0LjY5MjIyMjIyIDE2LjY0NSw2LjExMTExMTExIDEwLjgzMzMzMzMsNi4xMTExMTExMSBMMTAuODMzMzMzMyw2LjExMTExMTExIFogTTE5LjM0MzMzMzMsMTIuOTc4ODg4OSBDMTYuNjk2MTExMSwxMi4xMDk0NDQ0IDEzLjI4NDQ0NDQsMTAuNTQzODg4OSAxMS45OTY2NjY3LDkuOTM3Nzc3NzggQzExLjk2Mzg4ODksOS4zMjU1NTU1NiAxMS40Niw4LjgzNjY2NjY3IDEwLjg0LDguODM2NjY2NjcgQzEwLjE5ODg4ODksOC44MzY2NjY2NyA5LjY3NjY2NjY3LDkuMzU4MzMzMzMgOS42NzY2NjY2NywxMCBDOS42NzY2NjY2NywxMC42NDExMTExIDEwLjE5ODg4ODksMTEuMTYzMzMzMyAxMC44NCwxMS4xNjMzMzMzIEMxMS4wOTM4ODg5LDExLjE2MzMzMzMgMTEuMzI3MjIyMiwxMS4wNzg4ODg5IDExLjUxODMzMzMsMTAuOTQwNTU1NiBDMTIuODUxMTExMSwxMS41Njc3Nzc4IDE2LjQ1NSwxMy4yMjExMTExIDE5LjE5ODg4ODksMTQuMSBMMTguMjQyNzc3OCwyMS41MTMzMzMzIEMxOC4xMDE2NjY3LDIyLjQxNzc3NzggMTUuNTEwNTU1NiwyMy4zMzMzMzMzIDEwLjgzMTY2NjcsMjMuMzMzMzMzMyBDNi4xNTExMTExMSwyMy4zMzMzMzMzIDMuNTU4MzMzMzMsMjIuNDE3Nzc3OCAzLjQxOTQ0NDQ0LDIxLjUyODMzMzMgTDEuMzUyNzc3NzgsNS40NTIyMjIyMiBDMy4zMDI3Nzc3OCw2LjYxOTQ0NDQ0IDcuMDgyNzc3NzgsNy4yMjIyMjIyMiAxMC44MzMzMzMzLDcuMjIyMjIyMjIgQzE0LjU4MzMzMzMsNy4yMjIyMjIyMiAxOC4zNjMzMzMzLDYuNjE5NDQ0NDQgMjAuMzEzODg4OSw1LjQ1Mjc3Nzc4IEwxOS4zNDMzMzMzLDEyLjk3ODg4ODkgWiBNMjEuNjY2NjY2NywzLjYxMTExMTExIEMyMS42NjY2NjY3LDEuOTA2MTExMTEgMTcuMDMzODg4OSwxLjc3NjM1Njg0ZS0xNSAxMC44MzMzMzMzLDEuNzc2MzU2ODRlLTE1IEM0LjYzMjc3Nzc4LDEuNzc2MzU2ODRlLTE1IDMuNTUyNzEzNjhlLTE1LDEuOTA2MTExMTEgMy41NTI3MTM2OGUtMTUsMy42MTExMTExMSBMMy41NTI3MTM2OGUtMTUsMy45MTI3Nzc3OCBMMi4zMTg4ODg4OSwyMS42ODUgQzIuNzA4MzMzMzMsMjQuMTc1NTU1NiA4LjQwMTY2NjY3LDI0LjQ0NDQ0NDQgMTAuODMxNjY2NywyNC40NDQ0NDQ0IEMxMy4yNjA1NTU2LDI0LjQ0NDQ0NDQgMTguOTUxNjY2NywyNC4xNzU1NTU2IDE5LjM0MzMzMzMsMjEuNjcwNTU1NiBMMjAuMjc4MzMzMywxNC40MTUgQzIwLjk4Nzc3NzgsMTQuNTk5NDQ0NCAyMS41NjIyMjIyLDE0LjY5Nzc3NzggMjIuMDA4ODg4OSwxNC42OTcyMjIyIEMyMi41NTg4ODg5LDE0LjY5NzIyMjIgMjIuOTI5NDQ0NCwxNC41NTcyMjIyIDIzLjE2NSwxNC4yNzYxMTExIEMyMy4zNTk0NDQ0LDE0LjA0NSAyMy40MzYxMTExLDEzLjc1MzMzMzMgMjMuMzgwNTU1NiwxMy40NTYxMTExIEMyMy4yNTM4ODg5LDEyLjc3Nzc3NzggMjIuNDQ2MTExMSwxMi4wNjIyMjIyIDIwLjc2MTExMTEsMTEuMTM1NTU1NiBMMjAuNzA1NTU1NiwxMS4xMDUgTDIxLjY2NjY2NjcsMy45MTMzMzMzMyBMMjEuNjY2NjY2NywzLjYxMTExMTExIFoiIGZpbGw9IiM4ZThlOGUiLz4mI3hhOzwvZz4mI3hhOzxzdHlsZSBkYXRhLXN0eWxlZC12ZXJzaW9uPSI1LjMuMTEiIGRhdGEtc3R5bGVkPSJ0cnVlIj4uakRobFZRe2N1cnNvcjpwb2ludGVyO30vKiFzYyovJiN4YTtkYXRhLXN0eWxlZC5nMTc0W2lkPSJzYy1kSmladEEiXXtjb250ZW50OiJqRGhsVlEsIn0vKiFzYyovJiN4YTsuZ2l5TWFZe3N0cm9rZTojNTU1O2JhY2tncm91bmQtY29sb3I6IzU1NTtzdHJva2Utd2lkdGg6MXB4O30vKiFzYyovJiN4YTtkYXRhLXN0eWxlZC5nMTc1W2lkPSJzYy1lcEFMSVAiXXtjb250ZW50OiJnaXlNYVksIn0vKiFzYyovJiN4YTsuY3J5ekF1e3N0cm9rZS13aWR0aDowO3N0cm9rZTpub25lO2ZpbGw6I2YyZjNmMzt9Lyohc2MqLyYjeGE7ZGF0YS1zdHlsZWQuZzE3NltpZD0ic2MtaUxzS2ptIl17Y29udGVudDoiY3J5ekF1LCJ9Lyohc2MqLyYjeGE7LnRZTVp3e2ZvbnQtc2l6ZToxMHB4O2xpbmUtaGVpZ2h0OjEyLjU7c3Ryb2tlOm5vbmU7fS8qIXNjKi8mI3hhO2RhdGEtc3R5bGVkLmcxNzdbaWQ9InNjLWxiSmNycCJde2NvbnRlbnQ6InRZTVp3LCJ9Lyohc2MqLyYjeGE7LmZmaEZDdHtmaWxsOnZhcigtLWNvbG9yLXRleHQtZm9ybS1zZWNvbmRhcnktMXRuMm5kLCM2ODcwNzgpO30vKiFzYyovJiN4YTtkYXRhLXN0eWxlZC5nMjAzW2lkPSJzYy1kd2FsS2QiXXtjb250ZW50OiJmZmhGQ3QsIn0vKiFzYyovJiN4YTsuZHhUUnZre2ZvbnQtd2VpZ2h0OjQwMDtmb250LXNpemU6MTJweDtsaW5lLWhlaWdodDoxNnB4O2ZvbnQtZmFtaWx5OkFtYXpvbiBFbWJlcixBcmlhbCxSb2JvdG8sQXJpYWwsc2Fucy1zZXJpZjt0ZXh0LXNoYWRvdzpub25lO2ZpbGw6dmFyKC0tY29sb3ItdGV4dC1idXR0b24tcHJpbWFyeS1kZWZhdWx0LWgxZWw3bywjMTYxOTFmKTt9Lyohc2MqLyYjeGE7ZGF0YS1zdHlsZWQuZzIwNFtpZD0ic2MtQlFNYUkiXXtjb250ZW50OiJkeFRSdmssIn0vKiFzYyovJiN4YTsuak1JUndVe2ZpbGw6I2ZmZjljYztzdHJva2U6dmFyKC0tY29sb3ItdGV4dC1mb3JtLXNlY29uZGFyeS0xdG4ybmQsIzY4NzA3OCk7c3Ryb2tlLXdpZHRoOjAuNnB4O30vKiFzYyovJiN4YTtkYXRhLXN0eWxlZC5nMjA1W2lkPSJzYy1lcHFwY1QiXXtjb250ZW50OiJqTUlSd1UsIn0vKiFzYyovJiN4YTsuaXJxVUtse2ZpbGw6I2ZmZjljYztzdHJva2U6dmFyKC0tY29sb3ItdGV4dC1mb3JtLXNlY29uZGFyeS0xdG4ybmQsIzY4NzA3OCk7c3Ryb2tlLXdpZHRoOjAuNnB4O30vKiFzYyovJiN4YTtkYXRhLXN0eWxlZC5nMjA2W2lkPSJzYy1idmdQdHkiXXtjb250ZW50OiJpcnFVS2wsIn0vKiFzYyovJiN4YTsua1VSbmdRe3N0cm9rZTp2YXIoLS1jb2xvci1ib3JkZXItY29udHJvbC1kZWZhdWx0LTlpNnk1MywjNjg3MDc4KTtzdHJva2Utd2lkdGg6MXB4O2ZpbGw6dmFyKC0tY29sb3ItYmFja2dyb3VuZC1jb250YWluZXItY29udGVudC1lenN1ZDIsI2ZmZmZmZik7b3BhY2l0eTowLjU7fS8qIXNjKi8mI3hhOy5ub2RlICZndDsgLm5ldy1sb29rLXN0YXRlLW5vZGUuaGFzLWVycm9ycyAmZ3Q7IC5ib3VuZGluZy1ib3ggJmd0OyAuc2MtY3lSY3Jae3N0cm9rZTp2YXIoLS1jb2xvci1ib3JkZXItc3RhdHVzLWVycm9yLTE2bmw1aywjZDEzMjEyKTtmaWxsOnZhcigtLWNvbG9yLWJhY2tncm91bmQtc3RhdHVzLWVycm9yLXJ2MGdnbywjZmRmM2YxKTt9Lyohc2MqLyYjeGE7LnNlbGVjdGVkICZndDsgLm5vZGUgJmd0OyAubmV3LWxvb2stc3RhdGUtbm9kZSAmZ3Q7IC5ib3VuZGluZy1ib3ggJmd0OyAuc2MtY3lSY3Jae3N0cm9rZTp2YXIoLS1jb2xvci1ib3JkZXItc3RhdHVzLWluZm8ta2QwZ3Z6LCMwMDczYmIpO2ZpbGw6dmFyKC0tY29sb3ItYmFja2dyb3VuZC1zdGF0dXMtaW5mby14ZGMzdXUsI2YxZmFmZik7fS8qIXNjKi8mI3hhOy5zZWxlY3RlZCAmZ3Q7IC5ub2RlICZndDsgLm5ldy1sb29rLXN0YXRlLW5vZGUuaGFzLWVycm9ycyAmZ3Q7IC5ib3VuZGluZy1ib3ggJmd0OyAuc2MtY3lSY3Jae3N0cm9rZTp2YXIoLS1jb2xvci1ib3JkZXItc3RhdHVzLWVycm9yLTE2bmw1aywjZDEzMjEyKTtmaWxsOiNmZGUwZGE7fS8qIXNjKi8mI3hhO2RhdGEtc3R5bGVkLmcyMDdbaWQ9InNjLWN5UmNyWiJde2NvbnRlbnQ6ImtVUm5nUSwifS8qIXNjKi8mI3hhOy5jeEVrTkR7b3BhY2l0eToxO30vKiFzYyovJiN4YTtkYXRhLXN0eWxlZC5nMjA4W2lkPSJzYy1rVWRtaEEiXXtjb250ZW50OiJjeEVrTkQsIn0vKiFzYyovJiN4YTs8L3N0eWxlPiYjeGE7PHN0eWxlPiYjeGE7Lm5ldy1sb29rLXN0YXRlLW5vZGUgJmd0OyByZWN0OmZpcnN0LW9mLXR5cGUgeyYjeGE7ICBzdHJva2U6ICM2ODcwNzg7JiN4YTsgIHN0cm9rZS13aWR0aDogMXB4OyYjeGE7ICBmaWxsOiAjRkZGRkZGOyYjeGE7fSYjeGE7JiN4YTsubmV3LWxvb2stc3RhdGUtbm9kZSAuZXJyb3ItaWNvbiBjaXJjbGUgeyYjeGE7IHN0cm9rZS1saW5lam9pbjogcm91bmQ7JiN4YTt9JiN4YTsmI3hhOy5uZXctbG9vay1zdGF0ZS1ub2RlIC5lcnJvci1pY29uIGNpcmNsZSwgLm5ldy1sb29rLXN0YXRlLW5vZGUgLmVycm9yLWljb24gcGF0aCB7JiN4YTsgc3Ryb2tlOiB2YXIoLS1jb2xvci1ib3JkZXItc3RhdHVzLWVycm9yLTE2bmw1aywgI2QxMzIxMik7JiN4YTsgZmlsbDogbm9uZTsmI3hhOyBzdHJva2Utd2lkdGg6IDJweDsmI3hhO30mI3hhOyYjeGE7Lm5ldy1sb29rLXN0YXRlLW5vZGUuaGFzLWVycm9ycyAmZ3Q7IHJlY3Q6Zmlyc3Qtb2YtdHlwZSB7JiN4YTsgc3Ryb2tlOiB2YXIoLS1jb2xvci1ib3JkZXItc3RhdHVzLWVycm9yLTE2bmw1aywgI2QxMzIxMik7JiN4YTsgZmlsbDogdmFyKC0tY29sb3ItYmFja2dyb3VuZC1zdGF0dXMtZXJyb3ItcnYwZ2dvLCAjZmRmM2YxKTsmI3hhO30mI3hhOyYjeGE7Lm5ldy1sb29rLXN0YXRlLW5vZGUuaGFzLWVycm9ycyAmZ3Q7IC5ib3VuZGluZy1ib3ggJmd0OyAubmV3LWxvb2stc3RhdGUtbm9kZS1zdWIgJmd0OyByZWN0IHsmI3hhOyAgc3Ryb2tlOiB2YXIoLS1jb2xvci1ib3JkZXItc3RhdHVzLWVycm9yLTE2bmw1aywgI2QxMzIxMik7JiN4YTsgIGZpbGw6IHZhcigtLWNvbG9yLWJhY2tncm91bmQtc3RhdHVzLWVycm9yLXJ2MGdnbywgI2ZkZjNmMSk7JiN4YTt9JiN4YTsmI3hhOy5uZXctbG9vay1zdGF0ZS1ub2RlIC5oYW5kbGUgcGF0aCB7JiN4YTsgIHN0cm9rZTogdmFyKC0tY29sb3ItYm9yZGVyLWRyb3Bkb3duLWl0ZW0taG92ZXItazBmcWtuLCAjODc5NTk2KTsmI3hhOyAgc3Ryb2tlLXdpZHRoOiAxcHg7JiN4YTsgIGZpbGw6IG5vbmU7JiN4YTt9JiN4YTsmI3hhOy5uZXctbG9vay1zdGF0ZS1ub2RlIHsmI3hhOyAgZm9udC13ZWlnaHQ6IDQwMDsmI3hhOyAgZm9udC1mYW1pbHk6IEFtYXpvbiBFbWJlciwgQXJpYWwsIFJvYm90bywgQXJpYWwsIHNhbnMtc2VyaWY7JiN4YTsgIHRleHQtc2hhZG93OiBub25lOyYjeGE7fSYjeGE7JiN4YTsubmV3LWxvb2stc3RhdGUtbm9kZSAubGluZTEgeyYjeGE7ICBmaWxsOiAjNjg3MDc4OyYjeGE7ICBmb250LXNpemU6IDEycHg7JiN4YTt9JiN4YTsmI3hhOy5uZXctbG9vay1zdGF0ZS1ub2RlIC5saW5lMiB7JiN4YTsgIGZpbGw6ICMxNjE5MWY7JiN4YTt9JiN4YTsmI3hhOy5zZWxlY3RlZC5ub2RlICZndDsgLm5ldy1sb29rLXN0YXRlLW5vZGUgJmd0OyByZWN0LCYjeGE7LnNlbGVjdGVkLm5vZGUgJmd0OyAubmV3LWxvb2stc3RhdGUtbm9kZSAmZ3Q7IC5uZXctbG9vay1zdGF0ZS1ub2RlICZndDsgcmVjdCwmI3hhOy5zZWxlY3RlZC5ub2RlICZndDsgLm5ldy1sb29rLXN0YXRlLW5vZGUgJmd0OyAuYm91bmRpbmctYm94ICZndDsgcmVjdCwmI3hhOy5zZWxlY3RlZC5ub2RlICZndDsgLm5ldy1sb29rLXN0YXRlLW5vZGUuaGFzLWVycm9ycyAmZ3Q7IHJlY3QsJiN4YTsuc2VsZWN0ZWQubm9kZSAmZ3Q7IC5uZXctbG9vay1zdGF0ZS1ub2RlLmhhcy1lcnJvcnMgJmd0OyAuYm91bmRpbmctYm94ICZndDsgcmVjdCwmI3hhOy5zZWxlY3RlZC5ub2RlICZndDsgLm5ldy1sb29rLXN0YXRlLW5vZGUuaGFzLWVycm9ycyAmZ3Q7IC5uZXctbG9vay1zdGF0ZS1ub2RlICZndDsgcmVjdCwmI3hhOy5zZWxlY3RlZC5ub2RlICZndDsgLm5ldy1sb29rLXN0YXRlLW5vZGUgJmd0OyAuYm91bmRpbmctYm94ICZndDsgLm5ldy1sb29rLXN0YXRlLW5vZGUtc3ViICZndDsgcmVjdCYjeGE7IHsmI3hhOyAgc3Ryb2tlOiB2YXIoLS1jb2xvci1ib3JkZXItc3RhdHVzLWluZm8ta2QwZ3Z6LCAjMDA3M2JiKTsmI3hhOyAgZmlsbDogdmFyKC0tY29sb3ItYmFja2dyb3VuZC1zdGF0dXMtaW5mby14ZGMzdXUsICNmMWZhZmYpOyYjeGE7ICBzdHJva2Utd2lkdGg6IDFweDsmI3hhO30mI3hhOyYjeGE7Lm5ldy1sb29rLXN0YXRlLW5vZGUtc3ViIC5pdGVtLXNvdXJjZS5ub3Qtc3BlY2lmaWVkIHsmI3hhOyAgaGVpZ2h0OiAxNXB4OyYjeGE7ICBjb2xvcjogIzY4NzA3ODsmI3hhOyAgZm9udC1mYW1pbHk6ICJBbWF6b24gRW1iZXIiOyYjeGE7ICBmb250LXNpemU6IDEycHg7JiN4YTsgIGxldHRlci1zcGFjaW5nOiAwOyYjeGE7ICBsaW5lLWhlaWdodDogMTZweDsmI3hhOyAgZm9udC13ZWlnaHQ6IDQwMDsmI3hhO30mI3hhOy5uZXctbG9vay1zdGF0ZS1ub2RlLXN1YiAuaXRlbS1zb3VyY2UgLml0ZW0tc291cmNlX25hbWV7JiN4YTsgIGZvbnQtd2VpZ2h0OiA2MDA7JiN4YTt9JiN4YTsubmV3LWxvb2stc3RhdGUtbm9kZS1zdWIgLml0ZW0tc291cmNlLm5vdC1zcGVjaWZpZWQgLml0ZW0tc291cmNlX25hbWV7JiN4YTsgIGZvbnQtd2VpZ2h0OiA0MDA7JiN4YTt9JiN4YTsmI3hhOy5uZXctbG9vay1zdGF0ZS1ub2RlLXN1YiAuaXRlbS1zb3VyY2Uubm90LXNwZWNpZmllZCB7JiN4YTsgIGZvbnQtc3R5bGU6IGl0YWxpYzsmI3hhO30mI3hhOyYjeGE7Lm5ldy1sb29rLXN0YXRlLW5vZGUtc3ViICZndDsgcmVjdCwmI3hhOy5uZXctbG9vay1zdGF0ZS1ub2RlICZndDsgLmJvdW5kaW5nLWJveCAmZ3Q7IHJlY3QgeyYjeGE7ICBzdHJva2U6IHZhcigtLWNvbG9yLWJvcmRlci1jb250cm9sLWRlZmF1bHQtOWk2eTUzLCAjNjg3MDc4KTsmI3hhOyAgZmlsbDogI2ZmZmZmZjsmI3hhO30mI3hhOyYjeGE7Lm5ldy1sb29rLWdyYXBoIC5kcmFnLXNvdXJjZSB7JiN4YTsgIG9wYWNpdHk6IDAuMjsmI3hhO30mI3hhOyYjeGE7Lm5ldy1sb29rLWdyYXBoIC5lZGdlLCAubmV3LWxvb2stZ3JhcGggcGF0aC5zdGFydGluZy1jb25uZWN0aW9uIHsmI3hhOyAgc3Ryb2tlLXdpZHRoOiAxcHg7JiN4YTsgIHN0cm9rZTogdmFyKC0tY29sb3ItdGV4dC1mb3JtLXNlY29uZGFyeS0xdG4ybmQsICM2ODcwNzgpOyYjeGE7ICBtYXJrZXItZW5kOiB1cmwoI2xhcmdlLWFycm93aGVhZCk7JiN4YTt9JiN4YTsmI3hhOy5uZXctbG9vay1ncmFwaCAuZWRnZS1sYWJlbCB7JiN4YTsgIGN1cnNvcjogcG9pbnRlcjsmI3hhO30mI3hhOyYjeGE7Lm5ldy1sb29rLWdyYXBoIC5lZGdlLWxhYmVsIHJlY3QgeyYjeGE7ICBzdHJva2Utd2lkdGg6IDFweDsmI3hhOyAgc3Ryb2tlOiB2YXIoLS1jb2xvci1ib3JkZXItY29udHJvbC1kZWZhdWx0LTlpNnk1MywgIzY4NzA3OCk7JiN4YTsgIGZpbGw6ICNmYWZhZmE7JiN4YTt9JiN4YTsmI3hhOy5uZXctbG9vay1ncmFwaCAuZWRnZS1sYWJlbC5zZWxlY3RlZCByZWN0IHsmI3hhOyAgc3Ryb2tlOiB2YXIoLS1jb2xvci1ib3JkZXItc3RhdHVzLWluZm8ta2QwZ3Z6LCAjMDA3M2JiKTsmI3hhOyAgZmlsbDogdmFyKC0tY29sb3ItYmFja2dyb3VuZC1zdGF0dXMtaW5mby14ZGMzdXUsICNmMWZhZmYpOyYjeGE7ICBzdHJva2Utd2lkdGg6IDAuNnB4OyYjeGE7fSYjeGE7JiN4YTsmI3hhOyYjeGE7Lm5ldy1sb29rLWdyYXBoIC5lZGdlLWxhYmVsIC5sYWJlbCB7JiN4YTsgIGZpbGw6IHZhcigtLWNvbG9yLXRleHQtZm9ybS1zZWNvbmRhcnktMXRuMm5kLCAjNjg3MDc4KTsmI3hhOyAgZm9udC1mYW1pbHk6IEFtYXpvbiBFbWJlciwgQXJpYWwsIFJvYm90bywgQXJpYWwsIHNhbnMtc2VyaWY7JiN4YTt9JiN4YTsmI3hhOy8qIGNlbnRlcmluZyB0aGUgc2hhcGUgdGV4dCAqLyYjeGE7QC1tb3otZG9jdW1lbnQgdXJsLXByZWZpeCgpIHsmI3hhOyAgLm5ldy1sb29rLWdyYXBoIC5zaGFwZSArIHRleHQsJiN4YTsgIC5uZXctbG9vay1ncmFwaCAuZWRnZS1sYWJlbCB0ZXh0IHsmI3hhOyAgICB0cmFuc2Zvcm06IHRyYW5zbGF0ZVkoMy41cHgpOyYjeGE7ICB9JiN4YTt9JiN4YTsmI3hhOy5uZXctbG9vay1ncmFwaCAuZWRnZSBwYXRoIHsmI3hhOyAgbWFya2VyLWVuZDogdXJsKCNsYXJnZS1hcnJvd2hlYWQpICFpbXBvcnRhbnQ7JiN4YTt9JiN4YTsmI3hhOy5uZXctbG9vay1ncmFwaCAuZWRnZS5zZWxlY3RlZCBwYXRoeyYjeGE7ICBzdHJva2U6IHZhcigtLWNvbG9yLWJvcmRlci1zdGF0dXMtaW5mby1rZDBndnosICMwMDczYmIpOyYjeGE7ICBzdHJva2Utd2lkdGg6IDEuMXB4OyYjeGE7fSYjeGE7JiN4YTsubmV3LWxvb2stZ3JhcGggLmVkZ2UuZHJhZ2dpbmctb3ZlciBwYXRoLCAubmV3LWxvb2stZ3JhcGggIGcuZHJhZ2dpbmctb3ZlciAuc3RhcnRpbmctY29ubmVjdGlvbiB7JiN4YTsgIHN0cm9rZTogIzVDODZGRjsmI3hhOyAgc3Ryb2tlLXdpZHRoOiAycHg7JiN4YTt9JiN4YTsmI3hhOy5uZXctbG9vay1ncmFwaCAuZWRnZS5kcmFnZ2luZy1vdmVyIHBhdGgsIC5uZXctbG9vay1ncmFwaCAuZHJhZ2dpbmctb3ZlciBwYXRoLnN0YXJ0aW5nLWNvbm5lY3Rpb24geyYjeGE7ICBtYXJrZXItZW5kOiB1cmwoI2xhcmdlLWhpZ2hsaWdodGVkLWFycm93aGVhZCkgIWltcG9ydGFudDsmI3hhO30mI3hhOyYjeGE7Lm5ldy1sb29rLWdyYXBoIC5lZGdlLmRyYWdnaW5nLW92ZXIgLmVkZ2UtbGFiZWwgdGV4dCB7JiN4YTsgIGZpbGw6ICM1Qzg2RkY7JiN4YTt9JiN4YTsmI3hhOyNsYXJnZS1oaWdobGlnaHRlZC1hcnJvd2hlYWQgeyYjeGE7ICBmaWxsOiAjNUM4NkZGOyYjeGE7fSYjeGE7JiN4YTsjbGFyZ2UtaGlnaGxpZ2h0ZWQtYXJyb3doZWFkIHBhdGggeyYjeGE7ICBzdHJva2U6IG5vbmU7JiN4YTt9JiN4YTsmI3hhOy5uZXctbG9vay1ncmFwaCAuZWRnZS5kcm9wLW5vdC1zdXBwb3J0ZWQgcGF0aCwgZy5kcm9wLW5vdC1zdXBwb3J0ZWQgLnN0YXJ0aW5nLWNvbm5lY3Rpb24geyYjeGE7ICBzdHJva2U6IHJlZDsmI3hhO30mI3hhOyYjeGE7Lm5ldy1sb29rLWdyYXBoIC5lZGdlLmRyb3Atbm90LXN1cHBvcnRlZCAuZWRnZS1sYWJlbCB0ZXh0IHsmI3hhOyAgZmlsbDogcmVkOyYjeGE7fSYjeGE7JiN4YTsubmV3LWxvb2stZ3JhcGggLmVkZ2UuZHJvcC1ub3Qtc3VwcG9ydGVkIHBhdGggeyYjeGE7ICBtYXJrZXItZW5kOiB1cmwoI2xhcmdlLWVycm9yLWFycm93aGVhZCkgIWltcG9ydGFudDsmI3hhO30mI3hhOyYjeGE7I2xhcmdlLWVycm9yLWFycm93aGVhZCB7JiN4YTsgIGZpbGw6IHJlZDsmI3hhO30mI3hhOyYjeGE7Lm5vZGUtY29udGFpbmVyICogJmd0OyAuaWNvbiAgeyYjeGE7ICAmZ3Q7IHJlY3QgeyYjeGE7ICAgIGZpbGw6ICNmYWZhZmE7JiN4YTsgIH0mI3hhOyAgJmd0OyBsaW5lIHsmI3hhOyAgICBzdHJva2U6ICNkNWRiZGI7JiN4YTsgIH0mI3hhO30mI3hhOyYjeGE7JiN4YTsubm9kZS5QbGFjZWhvbGRlci5kcmFnZ2luZy1vdmVyIHJlY3QgeyYjeGE7ICBzdHJva2U6IHZhcigtLWNvbG9yLWJvcmRlci1zdGF0dXMtaW5mby1rZDBndnosICMwMDczYmIpOyYjeGE7ICBmaWxsOiB2YXIoLS1jb2xvci1iYWNrZ3JvdW5kLXN0YXR1cy1pbmZvLXhkYzN1dSwgI2YxZmFmZik7JiN4YTsgIHN0cm9rZS13aWR0aDogMnB4OyYjeGE7fSYjeGE7JiN4YTsubm9kZS5QbGFjZWhvbGRlci5kcmFnZ2luZy1vdmVyIC5sYWJlbCB7JiN4YTsgIGZpbGw6IHZhcigtLWNvbG9yLXRleHQtc3RhdHVzLWluZm8tanF2dnJkLCAjMDA3M2JiKTsmI3hhO30mI3hhOyYjeGE7Zy5QbGFjZWhvbGRlciByZWN0IHsmI3hhOyAgc3Ryb2tlLWRhc2hhcnJheTogNSA0OyYjeGE7ICBzdHJva2U6IHZhcigtLWNvbG9yLWJvcmRlci1kcm9wZG93bi1pdGVtLWhvdmVyLWswZnFrbiwgIzg3OTU5Nik7JiN4YTsgIGZpbGw6ICNmZmZmZmY7JiN4YTsgIHN0cm9rZS13aWR0aDogMXB4OyYjeGE7fSYjeGE7JiN4YTtnLlBsYWNlaG9sZGVyIC5sYWJlbCB7JiN4YTsgIGZvbnQtc3R5bGU6IGl0YWxpYzsmI3hhOyAgZmlsbDogdmFyKC0tY29sb3ItdGV4dC1pbnB1dC1wbGFjZWhvbGRlci0wODRlNnEsICM2ODcwNzgpOyYjeGE7fSYjeGE7JiN4YTsubm9kZS5QbGFjZWhvbGRlci5kcm9wLW5vdC1zdXBwb3J0ZWQgcmVjdCB7JiN4YTsgIHN0cm9rZTogcmVkOyYjeGE7fSYjeGE7JiN4YTsubm9kZS5QbGFjZWhvbGRlci5kcm9wLW5vdC1zdXBwb3J0ZWQgLmxhYmVsIHsmI3hhOyAgZmlsbDogcmVkOyYjeGE7fSYjeGE7PC9zdHlsZT4mI3hhOzxzdHlsZT4ubGluZTIgeyBmb250LXNpemU6IDE0cHggfTwvc3R5bGU+JiN4YTs8L3N2Zz4mI3hhOzx0ZXh0IGNsYXNzPSJsaW5lMSIgeT0iLTEyNS41IiB4PSItMjU0LjUiPiYjeGE7PHRzcGFuIHRleHQtYW5jaG9yPSJzdGFydCIgeG1sOnNwYWNlPSJwcmVzZXJ2ZSIgY2xhc3M9Iml0ZW0tc291cmNlIj4mI3hhOzx0c3Bhbj7poIXnm67jgr3jg7zjgrk8L3RzcGFuPiYjeGE7PHRzcGFuIGNsYXNzPSJpdGVtLXNvdXJjZV9uYW1lIj4mI3hhOzx0c3Bhbj46IHNjaGVkdWxlZGNsb3Vkd2F0Y2hsb2dzZXgtZGVzdGluYXRpb25idWNrZXQ0YmVjZGI0LWZ0b2djZmcyYTcweTwvdHNwYW4+JiN4YTs8L3RzcGFuPiYjeGE7PC90c3Bhbj4mI3hhOzwvdGV4dD4mI3hhOzxyZWN0IGNsYXNzPSJzYy1jeVJjclogc2Mta1VkbWhBIGtVUm5nUSBjeEVrTkQiIGhlaWdodD0iMjYiIHdpZHRoPSI1ODkiIHk9IjE1NS41IiB4PSItMjk0LjUiLz4mI3hhOzx0ZXh0IGNsYXNzPSJsaW5lMSIgeT0iMTcxLjUiIHg9Ii0yNTQuNSI+JiN4YTs8dHNwYW4gdGV4dC1hbmNob3I9InN0YXJ0IiB4bWw6c3BhY2U9InByZXNlcnZlIiBjbGFzcz0iaXRlbS1zb3VyY2UiPiYjeGE7PHRzcGFuPuOCqOOCr+OCueODneODvOODiOOBruWgtOaJgDwvdHNwYW4+JiN4YTs8dHNwYW4gY2xhc3M9Iml0ZW0tc291cmNlX25hbWUiPiYjeGE7PHRzcGFuPjogc2NoZWR1bGVkY2xvdWR3YXRjaGxvZ3NleC1kZXN0aW5hdGlvbmJ1Y2tldDRiZWNkYjQtZnRvZ2NmZzJhNzB5PC90c3Bhbj4mI3hhOzwvdHNwYW4+JiN4YTs8L3RzcGFuPiYjeGE7PC90ZXh0PiYjeGE7PHN2ZyB4bWxucz0iaHR0cDovL3d3dy53My5vcmcvMjAwMC9zdmciIGZpbGw9Im5vbmUiIHZpZXdCb3g9IjAgMCA0MCA0MCIgaGVpZ2h0PSI0MCIgd2lkdGg9IjI1IiB5PSIxNTMiIHg9Ii0yNzkuNSI+JiN4YTs8ZyBmaWxsPSIjOGU4ZThlIiBpZD0iczMtYnVja2V0Ij4mI3hhOzxwYXRoIGlkPSJBbWF6b24tU2ltcGxlLVN0b3JhZ2UtU2VydmljZS1JY29uXzQ4X1NxdWlkIiBkPSJNMjAuNDIxNjY2NywxMy4zMDQ0NDQ0IEwyMC41NTE2NjY3LDEyLjI5NSBDMjEuNzU4ODg4OSwxMi45OTE2NjY3IDIyLjEzNDQ0NDQsMTMuNDAwNTU1NiAyMi4yNDI3Nzc4LDEzLjU2ODg4ODkgQzIyLjA2Mjc3NzgsMTMuNjAyNzc3OCAyMS41NzMzMzMzLDEzLjYxNjExMTEgMjAuNDIxNjY2NywxMy4zMDQ0NDQ0IEwyMC40MjE2NjY3LDEzLjMwNDQ0NDQgWiBNMTAuODMzMzMzMyw2LjExMTExMTExIEM1LjA2OTQ0NDQ0LDYuMTExMTExMTEgMS4zMjMzMzMzMyw0LjcxNTU1NTU2IDEuMTExMTExMTEsMy43MiBMMS4xMTExMTExMSwzLjYxNzIyMjIyIEMxLjMwNSwyLjk5NTU1NTU2IDQuNTIyMjIyMjIsMS4xMTExMTExMSAxMC44MzMzMzMzLDEuMTExMTExMTEgQzE3LjEzMzMzMzMsMS4xMTExMTExMSAyMC4zNTExMTExLDIuOTg5NDQ0NDQgMjAuNTU1NTU1NiwzLjYxMzg4ODg5IEwyMC41NTU1NTU2LDMuNjc1NTU1NTYgQzIwLjQwMjIyMjIsNC42OTIyMjIyMiAxNi42NDUsNi4xMTExMTExMSAxMC44MzMzMzMzLDYuMTExMTExMTEgTDEwLjgzMzMzMzMsNi4xMTExMTExMSBaIE0xOS4zNDMzMzMzLDEyLjk3ODg4ODkgQzE2LjY5NjExMTEsMTIuMTA5NDQ0NCAxMy4yODQ0NDQ0LDEwLjU0Mzg4ODkgMTEuOTk2NjY2Nyw5LjkzNzc3Nzc4IEMxMS45NjM4ODg5LDkuMzI1NTU1NTYgMTEuNDYsOC44MzY2NjY2NyAxMC44NCw4LjgzNjY2NjY3IEMxMC4xOTg4ODg5LDguODM2NjY2NjcgOS42NzY2NjY2Nyw5LjM1ODMzMzMzIDkuNjc2NjY2NjcsMTAgQzkuNjc2NjY2NjcsMTAuNjQxMTExMSAxMC4xOTg4ODg5LDExLjE2MzMzMzMgMTAuODQsMTEuMTYzMzMzMyBDMTEuMDkzODg4OSwxMS4xNjMzMzMzIDExLjMyNzIyMjIsMTEuMDc4ODg4OSAxMS41MTgzMzMzLDEwLjk0MDU1NTYgQzEyLjg1MTExMTEsMTEuNTY3Nzc3OCAxNi40NTUsMTMuMjIxMTExMSAxOS4xOTg4ODg5LDE0LjEgTDE4LjI0Mjc3NzgsMjEuNTEzMzMzMyBDMTguMTAxNjY2NywyMi40MTc3Nzc4IDE1LjUxMDU1NTYsMjMuMzMzMzMzMyAxMC44MzE2NjY3LDIzLjMzMzMzMzMgQzYuMTUxMTExMTEsMjMuMzMzMzMzMyAzLjU1ODMzMzMzLDIyLjQxNzc3NzggMy40MTk0NDQ0NCwyMS41MjgzMzMzIEwxLjM1Mjc3Nzc4LDUuNDUyMjIyMjIgQzMuMzAyNzc3NzgsNi42MTk0NDQ0NCA3LjA4Mjc3Nzc4LDcuMjIyMjIyMjIgMTAuODMzMzMzMyw3LjIyMjIyMjIyIEMxNC41ODMzMzMzLDcuMjIyMjIyMjIgMTguMzYzMzMzMyw2LjYxOTQ0NDQ0IDIwLjMxMzg4ODksNS40NTI3Nzc3OCBMMTkuMzQzMzMzMywxMi45Nzg4ODg5IFogTTIxLjY2NjY2NjcsMy42MTExMTExMSBDMjEuNjY2NjY2NywxLjkwNjExMTExIDE3LjAzMzg4ODksMS43NzYzNTY4NGUtMTUgMTAuODMzMzMzMywxLjc3NjM1Njg0ZS0xNSBDNC42MzI3Nzc3OCwxLjc3NjM1Njg0ZS0xNSAzLjU1MjcxMzY4ZS0xNSwxLjkwNjExMTExIDMuNTUyNzEzNjhlLTE1LDMuNjExMTExMTEgTDMuNTUyNzEzNjhlLTE1LDMuOTEyNzc3NzggTDIuMzE4ODg4ODksMjEuNjg1IEMyLjcwODMzMzMzLDI0LjE3NTU1NTYgOC40MDE2NjY2NywyNC40NDQ0NDQ0IDEwLjgzMTY2NjcsMjQuNDQ0NDQ0NCBDMTMuMjYwNTU1NiwyNC40NDQ0NDQ0IDE4Ljk1MTY2NjcsMjQuMTc1NTU1NiAxOS4zNDMzMzMzLDIxLjY3MDU1NTYgTDIwLjI3ODMzMzMsMTQuNDE1IEMyMC45ODc3Nzc4LDE0LjU5OTQ0NDQgMjEuNTYyMjIyMiwxNC42OTc3Nzc4IDIyLjAwODg4ODksMTQuNjk3MjIyMiBDMjIuNTU4ODg4OSwxNC42OTcyMjIyIDIyLjkyOTQ0NDQsMTQuNTU3MjIyMiAyMy4xNjUsMTQuMjc2MTExMSBDMjMuMzU5NDQ0NCwxNC4wNDUgMjMuNDM2MTExMSwxMy43NTMzMzMzIDIzLjM4MDU1NTYsMTMuNDU2MTExMSBDMjMuMjUzODg4OSwxMi43Nzc3Nzc4IDIyLjQ0NjExMTEsMTIuMDYyMjIyMiAyMC43NjExMTExLDExLjEzNTU1NTYgTDIwLjcwNTU1NTYsMTEuMTA1IEwyMS42NjY2NjY3LDMuOTEzMzMzMzMgTDIxLjY2NjY2NjcsMy42MTExMTExMSBaIiBmaWxsPSIjOGU4ZThlIi8+JiN4YTs8L2c+JiN4YTs8L3N2Zz4mI3hhOzwvZz4mI3hhOzxnIHRyYW5zZm9ybT0idHJhbnNsYXRlKC0zMTkuNSwtMTg2LjUpIiBjbGFzcz0iY29udGVudCI+JiN4YTs8ZyB0cmFuc2Zvcm09InRyYW5zbGF0ZSgxOTkuNSwxMjQpIiBjbGFzcz0iYnJhbmNoIj4mI3hhOzxnIHRyYW5zZm9ybT0iIj4mI3hhOzxnIGNsYXNzPSJub2RlcyI+JiN4YTs8ZyB0cmFuc2Zvcm09InRyYW5zbGF0ZSgxMjAsMjQuNSkiIGNsYXNzPSJub2RlLWNvbnRhaW5lciI+JiN4YTs8ZyBkYXRhLXN0YXRlLXR5cGU9IlRhc2siIGRhdGEtc3RhdGUtaWQ9IkNvcHlPYmplY3QiIGRhdGEtdGVzdGlkPSJncmFwaC1Db3B5T2JqZWN0IiBjbGFzcz0ic2MtZEppWnRBIGpEaGxWUSBub2RlIHN0YXRlIFRhc2siPiYjeGE7PGcgY2xhc3M9Im5ldy1sb29rLXN0YXRlLW5vZGUiPiYjeGE7PHJlY3Qgcnk9IjMiIHJ4PSIzIiBoZWlnaHQ9IjQ5IiB3aWR0aD0iMjQwIiB5PSItMjQuNSIgeD0iLTEyMCIvPiYjeGE7PGcgdHJhbnNmb3JtPSJ0cmFuc2xhdGUoLTEyMCwtMjQuNSkiIGNsYXNzPSJoYW5kbGUiPiYjeGE7PHBhdGggZD0iTTUsMTYgTDUsMzQgTTgsMTYgTDgsMzQiLz4mI3hhOzwvZz4mI3hhOzxnIHRyYW5zZm9ybT0idHJhbnNsYXRlKC0xMDQsLTI0KSIgY2xhc3M9Imljb24iPiYjeGE7PHJlY3QgaGVpZ2h0PSI0OCIgd2lkdGg9IjQ4IiB5PSIwLjAxODEyOTE5NjciIHg9IjAuMDM2MTAyNjEwOCIgZmlsbD0idmFyKC0tY29sb3ItYmFja2dyb3VuZC1jb250YWluZXItaGVhZGVyLTdzMnRiYSwgI2ZhZmFmYSkiLz4mI3hhOzxsaW5lIHN0cm9rZS1saW5lY2FwPSJzcXVhcmUiIHN0cm9rZT0idmFyKC0tY29sb3ItYm9hcmQtcGxhY2Vob2xkZXItYWN0aXZlLXlqaTQwOCwgI2Q1ZGJkYikiIHkyPSI0Ny41IiB4Mj0iNDcuNSIgeTE9IjAuNDkxMjI4MDciIHgxPSI0Ny41Ii8+JiN4YTs8bGluZSBzdHJva2UtbGluZWNhcD0ic3F1YXJlIiBzdHJva2U9InZhcigtLWNvbG9yLWJvYXJkLXBsYWNlaG9sZGVyLWFjdGl2ZS15amk0MDgsICNkNWRiZGIpIiB5Mj0iNDcuNSIgeDI9IjAuNSIgeTE9IjAuNDkxMjI4MDciIHgxPSIwLjUiLz4mI3hhOzx1c2UgYXJpYS1oaWRkZW49InRydWUiIGhyZWY9IiNpY29uLXNlcnZpY2UtczMiPiYjeGE7PHRpdGxlPlMzPC90aXRsZT4mI3hhOzwvdXNlPiYjeGE7PC9nPiYjeGE7PGcgdHJhbnNmb3JtPSJ0cmFuc2xhdGUoLTQ4LC0yNC41KSIgY2xhc3M9InRleHQtbGluZXMiPiYjeGE7PHRleHQgY2xhc3M9ImxpbmUxIiB0cmFuc2Zvcm09InRyYW5zbGF0ZSgwLDE3KSI+JiN4YTs8dHNwYW4gdGV4dC1hbmNob3I9InN0YXJ0IiB4bWw6c3BhY2U9InByZXNlcnZlIj5TMzogQ29weU9iamVjdDwvdHNwYW4+JiN4YTs8L3RleHQ+JiN4YTs8dGV4dCBjbGFzcz0ibGluZTIgbGFiZWwiIHRyYW5zZm9ybT0idHJhbnNsYXRlKDAsMzUuNSkiPiYjeGE7PHRzcGFuIHRleHQtYW5jaG9yPSJzdGFydCIgeG1sOnNwYWNlPSJwcmVzZXJ2ZSI+Q29weU9iamVjdDwvdHNwYW4+JiN4YTs8L3RleHQ+JiN4YTs8L2c+JiN4YTs8L2c+JiN4YTs8L2c+JiN4YTs8L2c+JiN4YTs8ZyB0cmFuc2Zvcm09InRyYW5zbGF0ZSgxMjAsMTA4LjUpIiBjbGFzcz0ibm9kZS1jb250YWluZXIiPiYjeGE7PGcgZGF0YS1zdGF0ZS10eXBlPSJUYXNrIiBkYXRhLXN0YXRlLWlkPSJEZWxldGVPYmplY3QiIGRhdGEtdGVzdGlkPSJncmFwaC1EZWxldGVPYmplY3QiIGNsYXNzPSJzYy1kSmladEEgakRobFZRIG5vZGUgc3RhdGUgVGFzayI+JiN4YTs8ZyBjbGFzcz0ibmV3LWxvb2stc3RhdGUtbm9kZSI+JiN4YTs8cmVjdCByeT0iMyIgcng9IjMiIGhlaWdodD0iNDkiIHdpZHRoPSIyNDAiIHk9Ii0yNC41IiB4PSItMTIwIi8+JiN4YTs8ZyB0cmFuc2Zvcm09InRyYW5zbGF0ZSgtMTIwLC0yNC41KSIgY2xhc3M9ImhhbmRsZSI+JiN4YTs8cGF0aCBkPSJNNSwxNiBMNSwzNCBNOCwxNiBMOCwzNCIvPiYjeGE7PC9nPiYjeGE7PGcgdHJhbnNmb3JtPSJ0cmFuc2xhdGUoLTEwNCwtMjQpIiBjbGFzcz0iaWNvbiI+JiN4YTs8cmVjdCBoZWlnaHQ9IjQ4IiB3aWR0aD0iNDgiIHk9IjAuMDE4MTI5MTk2NyIgeD0iMC4wMzYxMDI2MTA4IiBmaWxsPSJ2YXIoLS1jb2xvci1iYWNrZ3JvdW5kLWNvbnRhaW5lci1oZWFkZXItN3MydGJhLCAjZmFmYWZhKSIvPiYjeGE7PGxpbmUgc3Ryb2tlLWxpbmVjYXA9InNxdWFyZSIgc3Ryb2tlPSJ2YXIoLS1jb2xvci1ib2FyZC1wbGFjZWhvbGRlci1hY3RpdmUteWppNDA4LCAjZDVkYmRiKSIgeTI9IjQ3LjUiIHgyPSI0Ny41IiB5MT0iMC40OTEyMjgwNyIgeDE9IjQ3LjUiLz4mI3hhOzxsaW5lIHN0cm9rZS1saW5lY2FwPSJzcXVhcmUiIHN0cm9rZT0idmFyKC0tY29sb3ItYm9hcmQtcGxhY2Vob2xkZXItYWN0aXZlLXlqaTQwOCwgI2Q1ZGJkYikiIHkyPSI0Ny41IiB4Mj0iMC41IiB5MT0iMC40OTEyMjgwNyIgeDE9IjAuNSIvPiYjeGE7PHVzZSBhcmlhLWhpZGRlbj0idHJ1ZSIgaHJlZj0iI2ljb24tc2VydmljZS1zMyI+JiN4YTs8dGl0bGU+UzM8L3RpdGxlPiYjeGE7PC91c2U+JiN4YTs8L2c+JiN4YTs8ZyB0cmFuc2Zvcm09InRyYW5zbGF0ZSgtNDgsLTI0LjUpIiBjbGFzcz0idGV4dC1saW5lcyI+JiN4YTs8dGV4dCBjbGFzcz0ibGluZTEiIHRyYW5zZm9ybT0idHJhbnNsYXRlKDAsMTcpIj4mI3hhOzx0c3BhbiB0ZXh0LWFuY2hvcj0ic3RhcnQiIHhtbDpzcGFjZT0icHJlc2VydmUiPlMzOiBEZWxldGVPYmplY3Q8L3RzcGFuPiYjeGE7PC90ZXh0PiYjeGE7PHRleHQgY2xhc3M9ImxpbmUyIGxhYmVsIiB0cmFuc2Zvcm09InRyYW5zbGF0ZSgwLDM1LjUpIj4mI3hhOzx0c3BhbiB0ZXh0LWFuY2hvcj0ic3RhcnQiIHhtbDpzcGFjZT0icHJlc2VydmUiPkRlbGV0ZU9iamVjdDwvdHNwYW4+JiN4YTs8L3RleHQ+JiN4YTs8L2c+JiN4YTs8L2c+JiN4YTs8L2c+JiN4YTs8L2c+JiN4YTs8ZyB0cmFuc2Zvcm09InRyYW5zbGF0ZSgxMjAsMTc2KSIgY2xhc3M9Im5vZGUtY29udGFpbmVyIj4mI3hhOzxnPiYjeGE7PGNpcmNsZSByPSI4IiBjbGFzcz0ic2MtYnZnUHR5IGlycVVLbCBzaGFwZSIvPiYjeGE7PC9nPiYjeGE7PC9nPiYjeGE7PC9nPiYjeGE7PGcgY2xhc3M9ImVkZ2VzIj4mI3hhOzxnIGNsYXNzPSJzYy1lcEFMSVAgZ2l5TWFZIGVkZ2UiPiYjeGE7PHBhdGggZmlsbD0ibm9uZSIgbWFya2VyLWVuZD0idXJsKCNhcnJvd2hlYWQpIiBkPSJNMTIwLDQ5TDEyMCw1MS45MTY2NjY2NjY2NjY2NjRDMTIwLDU0LjgzMzMzMzMzMzMzMzMzNiwxMjAsNjAuNjY2NjY2NjY2NjY2NjY0LDEyMCw2Ni41QzEyMCw3Mi4zMzMzMzMzMzMzMzMzMywxMjAsNzguMTY2NjY2NjY2NjY2NjcsMTIwLDgxLjA4MzMzMzMzMzMzMzMzTDEyMCw4NCIgaWQ9InN0YXRlLUNvcHlPYmplY3Q6c3RhdGUtRGVsZXRlT2JqZWN0Om5vcm1hbCIvPiYjeGE7PC9nPiYjeGE7PGcgY2xhc3M9InNjLWVwQUxJUCBnaXlNYVkgZWRnZSI+JiN4YTs8cGF0aCBmaWxsPSJub25lIiBtYXJrZXItZW5kPSJ1cmwoI2Fycm93aGVhZCkiIGQ9Ik0xMjAsMTMzTDEyMCwxMzUuOTE2NjY2NjY2NjY2NjZDMTIwLDEzOC44MzMzMzMzMzMzMzMzNCwxMjAsMTQ0LjY2NjY2NjY2NjY2NjY2LDEyMCwxNTAuNUMxMjAsMTU2LjMzMzMzMzMzMzMzMzM0LDEyMCwxNjIuMTY2NjY2NjY2NjY2NjYsMTIwLDE2NS4wODMzMzMzMzMzMzMzNEwxMjAsMTY4IiBpZD0ic3RhdGUtRGVsZXRlT2JqZWN0OmVuZDpub3JtYWwiLz4mI3hhOzwvZz4mI3hhOzwvZz4mI3hhOzwvZz4mI3hhOzwvZz4mI3hhOzxnIGNsYXNzPSJzYy1lcEFMSVAgZ2l5TWFZIj4mI3hhOzxwYXRoIGZpbGw9Im5vbmUiIGQ9Ik0zMTkuNSw2OUwzMTkuNSw3My41ODMzMzMzMzMzMzMzM0MzMTkuNSw3OC4xNjY2NjY2NjY2NjY2NywzMTkuNSw4Ny4zMzMzMzMzMzMzMzMzMywzMTkuNSw5MS45MTY2NjY2NjY2NjY2N0MzMTkuNSw5Ni41LDMxOS41LDk2LjUsMzE5LjUsMTAxLjA4MzMzMzMzMzMzMzMzQzMxOS41LDEwNS42NjY2NjY2NjY2NjY2NywzMTkuNSwxMTQuODMzMzMzMzMzMzMzMzMsMzE5LjUsMTE5LjQxNjY2NjY2NjY2NjY3TDMxOS41LDEyNCIgY2xhc3M9InBhdGggc3RhcnRpbmctY29ubmVjdGlvbiIgaWQ9Ik1vdmVMb2dGaWxlcy1Db3B5T2JqZWN0Ii8+JiN4YTs8L2c+JiN4YTs8L2c+JiN4YTs8L2c+JiN4YTs8ZyBjbGFzcz0ibmV3LWxvb2stc3RhdGUtbm9kZSI+JiN4YTs8cmVjdCByeT0iMyIgcng9IjMiIGhlaWdodD0iNDkiIHdpZHRoPSI2MTkiIHk9Ii0xODYuNSIgeD0iLTMwOS41Ii8+JiN4YTs8ZyB0cmFuc2Zvcm09InRyYW5zbGF0ZSgtMzA5LjUsLTE4Ni41KSIgY2xhc3M9ImhhbmRsZSI+JiN4YTs8cGF0aCBkPSJNNSwxNiBMNSwzNCBNOCwxNiBMOCwzNCIvPiYjeGE7PC9nPiYjeGE7PGcgdHJhbnNmb3JtPSJ0cmFuc2xhdGUoLTI5My41LC0xODYpIiBjbGFzcz0iaWNvbiI+JiN4YTs8cmVjdCBoZWlnaHQ9IjQ4IiB3aWR0aD0iNDgiIHk9IjAuMDE4MTI5MTk2NyIgeD0iMC4wMzYxMDI2MTA4IiBmaWxsPSJ2YXIoLS1jb2xvci1iYWNrZ3JvdW5kLWNvbnRhaW5lci1oZWFkZXItN3MydGJhLCAjZmFmYWZhKSIvPiYjeGE7PGxpbmUgc3Ryb2tlLWxpbmVjYXA9InNxdWFyZSIgc3Ryb2tlPSJ2YXIoLS1jb2xvci1ib2FyZC1wbGFjZWhvbGRlci1hY3RpdmUteWppNDA4LCAjZDVkYmRiKSIgeTI9IjQ3LjUiIHgyPSI0Ny41IiB5MT0iMC40OTEyMjgwNyIgeDE9IjQ3LjUiLz4mI3hhOzxsaW5lIHN0cm9rZS1saW5lY2FwPSJzcXVhcmUiIHN0cm9rZT0idmFyKC0tY29sb3ItYm9hcmQtcGxhY2Vob2xkZXItYWN0aXZlLXlqaTQwOCwgI2Q1ZGJkYikiIHkyPSI0Ny41IiB4Mj0iMC41IiB5MT0iMC40OTEyMjgwNyIgeDE9IjAuNSIvPiYjeGE7PHVzZSBocmVmPSIjaWNvbi1mbG93LXMzLW9iamVjdC1rZXlzIi8+JiN4YTs8L2c+JiN4YTs8ZyB0cmFuc2Zvcm09InRyYW5zbGF0ZSgtMjM3LjUsLTE4Ni41KSIgY2xhc3M9InRleHQtbGluZXMiPiYjeGE7PHRleHQgY2xhc3M9ImxpbmUxIiB0cmFuc2Zvcm09InRyYW5zbGF0ZSgwLDE3KSI+JiN4YTs8dHNwYW4gdGV4dC1hbmNob3I9InN0YXJ0IiB4bWw6c3BhY2U9InByZXNlcnZlIj5NYXA6IFMzIE9iamVjdCBrZXlzPC90c3Bhbj4mI3hhOzwvdGV4dD4mI3hhOzx0ZXh0IGNsYXNzPSJsaW5lMiBsYWJlbCIgdHJhbnNmb3JtPSJ0cmFuc2xhdGUoMCwzNS41KSI+JiN4YTs8dHNwYW4gdGV4dC1hbmNob3I9InN0YXJ0IiB4bWw6c3BhY2U9InByZXNlcnZlIj5Nb3ZlTG9nRmlsZXM8L3RzcGFuPiYjeGE7PC90ZXh0PiYjeGE7PC9nPiYjeGE7PC9nPiYjeGE7PC9nPiYjeGE7PC9nPiYjeGE7PC9nPiYjeGE7PGcgdHJhbnNmb3JtPSJ0cmFuc2xhdGUoNjc0LDk0OCkiIGNsYXNzPSJub2RlLWNvbnRhaW5lciI+JiN4YTs8ZyBkYXRhLXN0YXRlLXR5cGU9IkZhaWwiIGRhdGEtc3RhdGUtaWQ9IkZhaWwiIGRhdGEtdGVzdGlkPSJncmFwaC1GYWlsIiBjbGFzcz0ic2MtZEppWnRBIGpEaGxWUSBub2RlIHN0YXRlIEZhaWwiPiYjeGE7PGcgY2xhc3M9Im5ldy1sb29rLXN0YXRlLW5vZGUiPiYjeGE7PHJlY3Qgcnk9IjMiIHJ4PSIzIiBoZWlnaHQ9IjQ5IiB3aWR0aD0iMjQwIiB5PSItMjQuNSIgeD0iLTEyMCIvPiYjeGE7PGcgdHJhbnNmb3JtPSJ0cmFuc2xhdGUoLTEyMCwtMjQuNSkiIGNsYXNzPSJoYW5kbGUiPiYjeGE7PHBhdGggZD0iTTUsMTYgTDUsMzQgTTgsMTYgTDgsMzQiLz4mI3hhOzwvZz4mI3hhOzxnIHRyYW5zZm9ybT0idHJhbnNsYXRlKC0xMDQsLTI0KSIgY2xhc3M9Imljb24iPiYjeGE7PHJlY3QgaGVpZ2h0PSI0OCIgd2lkdGg9IjQ4IiB5PSIwLjAxODEyOTE5NjciIHg9IjAuMDM2MTAyNjEwOCIgZmlsbD0idmFyKC0tY29sb3ItYmFja2dyb3VuZC1jb250YWluZXItaGVhZGVyLTdzMnRiYSwgI2ZhZmFmYSkiLz4mI3hhOzxsaW5lIHN0cm9rZS1saW5lY2FwPSJzcXVhcmUiIHN0cm9rZT0idmFyKC0tY29sb3ItYm9hcmQtcGxhY2Vob2xkZXItYWN0aXZlLXlqaTQwOCwgI2Q1ZGJkYikiIHkyPSI0Ny41IiB4Mj0iNDcuNSIgeTE9IjAuNDkxMjI4MDciIHgxPSI0Ny41Ii8+JiN4YTs8bGluZSBzdHJva2UtbGluZWNhcD0ic3F1YXJlIiBzdHJva2U9InZhcigtLWNvbG9yLWJvYXJkLXBsYWNlaG9sZGVyLWFjdGl2ZS15amk0MDgsICNkNWRiZGIpIiB5Mj0iNDcuNSIgeDI9IjAuNSIgeTE9IjAuNDkxMjI4MDciIHgxPSIwLjUiLz4mI3hhOzx1c2UgaHJlZj0iI2ljb24tZmxvdy1mYWlsIi8+JiN4YTs8L2c+JiN4YTs8ZyB0cmFuc2Zvcm09InRyYW5zbGF0ZSgtNDgsLTI0LjUpIiBjbGFzcz0idGV4dC1saW5lcyI+JiN4YTs8dGV4dCBjbGFzcz0ibGluZTEiIHRyYW5zZm9ybT0idHJhbnNsYXRlKDAsMTcpIj4mI3hhOzx0c3BhbiB0ZXh0LWFuY2hvcj0ic3RhcnQiIHhtbDpzcGFjZT0icHJlc2VydmUiPkZhaWwgc3RhdGU8L3RzcGFuPiYjeGE7PC90ZXh0PiYjeGE7PHRleHQgY2xhc3M9ImxpbmUyIGxhYmVsIiB0cmFuc2Zvcm09InRyYW5zbGF0ZSgwLDM1LjUpIj4mI3hhOzx0c3BhbiB0ZXh0LWFuY2hvcj0ic3RhcnQiIHhtbDpzcGFjZT0icHJlc2VydmUiPkZhaWw8L3RzcGFuPiYjeGE7PC90ZXh0PiYjeGE7PC9nPiYjeGE7PC9nPiYjeGE7PC9nPiYjeGE7PC9nPiYjeGE7PGcgdHJhbnNmb3JtPSJ0cmFuc2xhdGUoMzE5LjUsOTQ4KSIgY2xhc3M9Im5vZGUtY29udGFpbmVyIj4mI3hhOzxnIGRhdGEtc3RhdGUtdHlwZT0iU3VjY2VlZCIgZGF0YS1zdGF0ZS1pZD0iU3VjY2VzcyIgZGF0YS10ZXN0aWQ9ImdyYXBoLVN1Y2Nlc3MiIGNsYXNzPSJzYy1kSmladEEgakRobFZRIG5vZGUgc3RhdGUgU3VjY2VlZCI+JiN4YTs8ZyBjbGFzcz0ibmV3LWxvb2stc3RhdGUtbm9kZSI+JiN4YTs8cmVjdCByeT0iMyIgcng9IjMiIGhlaWdodD0iNDkiIHdpZHRoPSIyNDAiIHk9Ii0yNC41IiB4PSItMTIwIi8+JiN4YTs8ZyB0cmFuc2Zvcm09InRyYW5zbGF0ZSgtMTIwLC0yNC41KSIgY2xhc3M9ImhhbmRsZSI+JiN4YTs8cGF0aCBkPSJNNSwxNiBMNSwzNCBNOCwxNiBMOCwzNCIvPiYjeGE7PC9nPiYjeGE7PGcgdHJhbnNmb3JtPSJ0cmFuc2xhdGUoLTEwNCwtMjQpIiBjbGFzcz0iaWNvbiI+JiN4YTs8cmVjdCBoZWlnaHQ9IjQ4IiB3aWR0aD0iNDgiIHk9IjAuMDE4MTI5MTk2NyIgeD0iMC4wMzYxMDI2MTA4IiBmaWxsPSJ2YXIoLS1jb2xvci1iYWNrZ3JvdW5kLWNvbnRhaW5lci1oZWFkZXItN3MydGJhLCAjZmFmYWZhKSIvPiYjeGE7PGxpbmUgc3Ryb2tlLWxpbmVjYXA9InNxdWFyZSIgc3Ryb2tlPSJ2YXIoLS1jb2xvci1ib2FyZC1wbGFjZWhvbGRlci1hY3RpdmUteWppNDA4LCAjZDVkYmRiKSIgeTI9IjQ3LjUiIHgyPSI0Ny41IiB5MT0iMC40OTEyMjgwNyIgeDE9IjQ3LjUiLz4mI3hhOzxsaW5lIHN0cm9rZS1saW5lY2FwPSJzcXVhcmUiIHN0cm9rZT0idmFyKC0tY29sb3ItYm9hcmQtcGxhY2Vob2xkZXItYWN0aXZlLXlqaTQwOCwgI2Q1ZGJkYikiIHkyPSI0Ny41IiB4Mj0iMC41IiB5MT0iMC40OTEyMjgwNyIgeDE9IjAuNSIvPiYjeGE7PHVzZSBocmVmPSIjaWNvbi1mbG93LXN1Y2NlZWQiLz4mI3hhOzwvZz4mI3hhOzxnIHRyYW5zZm9ybT0idHJhbnNsYXRlKC00OCwtMjQuNSkiIGNsYXNzPSJ0ZXh0LWxpbmVzIj4mI3hhOzx0ZXh0IGNsYXNzPSJsaW5lMSIgdHJhbnNmb3JtPSJ0cmFuc2xhdGUoMCwxNykiPiYjeGE7PHRzcGFuIHRleHQtYW5jaG9yPSJzdGFydCIgeG1sOnNwYWNlPSJwcmVzZXJ2ZSI+U3VjY2VlZCBzdGF0ZTwvdHNwYW4+JiN4YTs8L3RleHQ+JiN4YTs8dGV4dCBjbGFzcz0ibGluZTIgbGFiZWwiIHRyYW5zZm9ybT0idHJhbnNsYXRlKDAsMzUuNSkiPiYjeGE7PHRzcGFuIHRleHQtYW5jaG9yPSJzdGFydCIgeG1sOnNwYWNlPSJwcmVzZXJ2ZSI+U3VjY2VzczwvdHNwYW4+JiN4YTs8L3RleHQ+JiN4YTs8L2c+JiN4YTs8L2c+JiN4YTs8L2c+JiN4YTs8L2c+JiN4YTs8ZyB0cmFuc2Zvcm09InRyYW5zbGF0ZSg0OTYuNzUsMTAyOS41KSIgY2xhc3M9Im5vZGUtY29udGFpbmVyIj4mI3hhOzxnPiYjeGE7PGNpcmNsZSByPSIyMiIgY2xhc3M9InNjLWVwcXBjVCBqTUlSd1Ugc2hhcGUiLz4mI3hhOzx0ZXh0IGNsYXNzPSJzYy1CUU1hSSBkeFRSdmsgbGFiZWwiPiYjeGE7PHRzcGFuIGFsaWdubWVudC1iYXNlbGluZT0iY2VudHJhbCIgdGV4dC1hbmNob3I9Im1pZGRsZSIgeG1sOnNwYWNlPSJwcmVzZXJ2ZSI+RW5kPC90c3Bhbj4mI3hhOzwvdGV4dD4mI3hhOzwvZz4mI3hhOzwvZz4mI3hhOzwvZz4mI3hhOzxnIGNsYXNzPSJlZGdlcyI+JiN4YTs8ZyBjbGFzcz0ic2MtZXBBTElQIGdpeU1hWSBlZGdlIj4mI3hhOzxwYXRoIGZpbGw9Im5vbmUiIG1hcmtlci1lbmQ9InVybCgjYXJyb3doZWFkKSIgZD0iTTQ5Ni43NSwxMjhMNDk2Ljc1LDEzMC45MTY2NjY2NjY2NjY2NkM0OTYuNzUsMTMzLjgzMzMzMzMzMzMzMzM0LDQ5Ni43NSwxMzkuNjY2NjY2NjY2NjY2NjYsNDk2Ljc1LDE0NS41QzQ5Ni43NSwxNTEuMzMzMzMzMzMzMzMzMzQsNDk2Ljc1LDE1Ny4xNjY2NjY2NjY2NjY2Niw0OTYuNzUsMTYwLjA4MzMzMzMzMzMzMzM0TDQ5Ni43NSwxNjMiIGlkPSJzdGF0ZS1QcmVwYXJlOnN0YXRlLUNyZWF0ZUV4cG9ydFRhc2s6bm9ybWFsIi8+JiN4YTs8L2c+JiN4YTs8ZyBjbGFzcz0ic2MtZXBBTElQIGdpeU1hWSBlZGdlIj4mI3hhOzxwYXRoIGZpbGw9Im5vbmUiIG1hcmtlci1lbmQ9InVybCgjYXJyb3doZWFkKSIgZD0iTTQ5Ni43NSw0NEw0OTYuNzUsNDYuOTE2NjY2NjY2NjY2NjY0QzQ5Ni43NSw0OS44MzMzMzMzMzMzMzMzMzYsNDk2Ljc1LDU1LjY2NjY2NjY2NjY2NjY2NCw0OTYuNzUsNjEuNUM0OTYuNzUsNjcuMzMzMzMzMzMzMzMzMzMsNDk2Ljc1LDczLjE2NjY2NjY2NjY2NjY3LDQ5Ni43NSw3Ni4wODMzMzMzMzMzMzMzM0w0OTYuNzUsNzkiIGlkPSJzdGFydDpzdGF0ZS1QcmVwYXJlIi8+JiN4YTs8L2c+JiN4YTs8ZyBjbGFzcz0ic2MtZXBBTElQIGdpeU1hWSBlZGdlIj4mI3hhOzxwYXRoIGZpbGw9Im5vbmUiIG1hcmtlci1lbmQ9InVybCgjYXJyb3doZWFkKSIgZD0iTTQ5Ni43NSwyMTJMNDk2Ljc1LDIxNC45MTY2NjY2NjY2NjY2NkM0OTYuNzUsMjE3LjgzMzMzMzMzMzMzMzM0LDQ5Ni43NSwyMjMuNjY2NjY2NjY2NjY2NjYsNDk2Ljc1LDIyOS41QzQ5Ni43NSwyMzUuMzMzMzMzMzMzMzMzMzQsNDk2Ljc1LDI0MS4xNjY2NjY2NjY2NjY2Niw0OTYuNzUsMjQ0LjA4MzMzMzMzMzMzMzM0TDQ5Ni43NSwyNDciIGlkPSJzdGF0ZS1DcmVhdGVFeHBvcnRUYXNrOnN0YXRlLVdhaXRFeHBvcnRUYXNrOm5vcm1hbCIvPiYjeGE7PC9nPiYjeGE7PGcgY2xhc3M9InNjLWVwQUxJUCBnaXlNYVkgZWRnZSI+JiN4YTs8cGF0aCBmaWxsPSJub25lIiBtYXJrZXItZW5kPSJ1cmwoI2Fycm93aGVhZCkiIGQ9Ik00NDMuNjY2NjY2NjY2NjY2NywyOTZMNDM3LjM0NzIyMjIyMjIyMjIzLDI5OC45MTY2NjY2NjY2NjY3QzQzMS4wMjc3Nzc3Nzc3Nzc4LDMwMS44MzMzMzMzMzMzMzMzLDQxOC4zODg4ODg4ODg4ODg5LDMwNy42NjY2NjY2NjY2NjY3LDQxMi4wNjk0NDQ0NDQ0NDQ0LDMxMy41QzQwNS43NSwzMTkuMzMzMzMzMzMzMzMzMyw0MDUuNzUsMzI1LjE2NjY2NjY2NjY2NjcsNDA1Ljc1LDMyOC4wODMzMzMzMzMzMzMzTDQwNS43NSwzMzEiIGlkPSJzdGF0ZS1XYWl0RXhwb3J0VGFzazpzdGF0ZS1EZXNjcmliZUV4cG9ydFRhc2tzOm5vcm1hbCIvPiYjeGE7PC9nPiYjeGE7PGcgY2xhc3M9InNjLWVwQUxJUCBnaXlNYVkgZWRnZSI+JiN4YTs8cGF0aCBmaWxsPSJub25lIiBtYXJrZXItZW5kPSJ1cmwoI2Fycm93aGVhZCkiIGQ9Ik00MDUuNzUsMzgwTDQwNS43NSwzODIuOTE2NjY2NjY2NjY2N0M0MDUuNzUsMzg1LjgzMzMzMzMzMzMzMzMsNDA1Ljc1LDM5MS42NjY2NjY2NjY2NjY3LDQxMi4wNjk0NDQ0NDQ0NDQ0LDM5Ny41QzQxOC4zODg4ODg4ODg4ODg5LDQwMy4zMzMzMzMzMzMzMzMzLDQzMS4wMjc3Nzc3Nzc3Nzc4LDQwOS4xNjY2NjY2NjY2NjY3LDQzNy4zNDcyMjIyMjIyMjIyMyw0MTIuMDgzMzMzMzMzMzMzM0w0NDMuNjY2NjY2NjY2NjY2Nyw0MTUiIGlkPSJzdGF0ZS1EZXNjcmliZUV4cG9ydFRhc2tzOnN0YXRlLUNvbmZpcm1Db21wbGV0ZTpub3JtYWwiLz4mI3hhOzwvZz4mI3hhOzxnIGNsYXNzPSJzYy1lcEFMSVAgZ2l5TWFZIGVkZ2UiPiYjeGE7PHBhdGggZmlsbD0ibm9uZSIgbWFya2VyLWVuZD0idXJsKCNhcnJvd2hlYWQpIiBkPSJNNDEwLjMyOTYwMTk5MDA0OTc1LDQ2NEwzOTUuMTkxMzM0OTkxNzA4MSw0NjguMjkxNjY2NjY2NjY2N0MzODAuMDUzMDY3OTkzMzY2NSw0NzIuNTgzMzMzMzMzMzMzMywzNDkuNzc2NTMzOTk2NjgzMiw0ODEuMTY2NjY2NjY2NjY2NywzMzQuNjM4MjY2OTk4MzQxNjMsNDg5Ljc1QzMxOS41LDQ5OC4zMzMzMzMzMzMzMzMzLDMxOS41LDUwNi45MTY2NjY2NjY2NjY3LDMxOS41LDUxMS4yMDgzMzMzMzMzMzMzTDMxOS41LDUxNS41IiBpZD0ic3RhdGUtQ29uZmlybUNvbXBsZXRlOnN0YXRlLU1vdmVMb2dGaWxlczpjaG9pY2VSdWxlOjAiLz4mI3hhOzxnIHRyYW5zZm9ybT0idHJhbnNsYXRlKDMzNC42MzgyNjY5OTgzNDE2Myw0ODkuNzUpIiBjbGFzcz0iZWRnZS1sYWJlbCIgZGF0YS10ZXN0aWQ9ImdyYXBoLUNvbmZpcm1Db21wbGV0ZS0wIj4mI3hhOzxyZWN0IGNsYXNzPSJzYy1pTHNLam0gY3J5ekF1IiBoZWlnaHQ9IjE2LjUiIHdpZHRoPSIyMDIiIHk9Ii04LjI1IiB4PSItMTAxIi8+JiN4YTs8dGV4dCBjbGFzcz0ic2MtbGJKY3JwIHRZTVp3IGxhYmVsIj4mI3hhOzx0c3BhbiBhbGlnbm1lbnQtYmFzZWxpbmU9ImNlbnRyYWwiIHRleHQtYW5jaG9yPSJtaWRkbGUiIHhtbDpzcGFjZT0icHJlc2VydmUiPnslICRleHBvcnRUYXNrU3RhdHVzQ29kZSA9ICJDT01QTEVU4oCmPC90c3Bhbj4mI3hhOzx0aXRsZT57JSAkZXhwb3J0VGFza1N0YXR1c0NvZGUgPSAiQ09NUExFVEVEIiAlfTwvdGl0bGU+JiN4YTs8L3RleHQ+JiN4YTs8L2c+JiN4YTs8L2c+JiN4YTs8ZyBjbGFzcz0ic2MtZXBBTElQIGdpeU1hWSBlZGdlIj4mI3hhOzxwYXRoIGZpbGw9Im5vbmUiIG1hcmtlci1lbmQ9InVybCgjYXJyb3doZWFkKSIgZD0iTTU4My4xNzAzOTgwMDk5NTAzLDQ2NEw1OTguMzA4NjY1MDA4MjkxOSw0NjguMjkxNjY2NjY2NjY2N0M2MTMuNDQ2OTMyMDA2NjMzNiw0NzIuNTgzMzMzMzMzMzMzMyw2NDMuNzIzNDY2MDAzMzE2Nyw0ODEuMTY2NjY2NjY2NjY2Nyw2NTguODYxNzMzMDAxNjU4Myw1MjAuODMzMzMzMzMzMzMzNEM2NzQsNTYwLjUsNjc0LDYzMS4yNSw2NzQsNzAwLjYyNUM2NzQsNzcwLDY3NCw4MzgsNjc0LDg3NC45MTY2NjY2NjY2NjY2QzY3NCw5MTEuODMzMzMzMzMzMzMzNCw2NzQsOTE3LjY2NjY2NjY2NjY2NjYsNjc0LDkyMC41ODMzMzMzMzMzMzM0TDY3NCw5MjMuNSIgaWQ9InN0YXRlLUNvbmZpcm1Db21wbGV0ZTpzdGF0ZS1GYWlsOmNob2ljZVJ1bGU6MSIvPiYjeGE7PGcgdHJhbnNmb3JtPSJ0cmFuc2xhdGUoNjU4Ljg2MTczMzAwMTY1ODMsNTIwLjgzMzMzMzMzMzMzMzQpIiBjbGFzcz0iZWRnZS1sYWJlbCIgZGF0YS10ZXN0aWQ9ImdyYXBoLUNvbmZpcm1Db21wbGV0ZS0xIj4mI3hhOzxyZWN0IGNsYXNzPSJzYy1pTHNLam0gY3J5ekF1IiBoZWlnaHQ9IjE2LjUiIHdpZHRoPSIyMDIiIHk9Ii04LjI1IiB4PSItMTAxIi8+JiN4YTs8dGV4dCBjbGFzcz0ic2MtbGJKY3JwIHRZTVp3IGxhYmVsIj4mI3hhOzx0c3BhbiBhbGlnbm1lbnQtYmFzZWxpbmU9ImNlbnRyYWwiIHRleHQtYW5jaG9yPSJtaWRkbGUiIHhtbDpzcGFjZT0icHJlc2VydmUiPnslICRleHBvcnRUYXNrU3RhdHVzQ29kZSA9ICJGQUlMRUQiIG/igKY8L3RzcGFuPiYjeGE7PHRpdGxlPnslICRleHBvcnRUYXNrU3RhdHVzQ29kZSA9ICJGQUlMRUQiIG9yICRleHBvcnRUYXNrU3RhdHVzQ29kZSA9ICJDQU5DRUxMRUQiIG9yICRleHBvcnRUYXNrU3RhdHVzQ29kZSA9ICJQRU5ESU5HX0NBTkNFTCIgJX08L3RpdGxlPiYjeGE7PC90ZXh0PiYjeGE7PC9nPiYjeGE7PC9nPiYjeGE7PGcgY2xhc3M9InNjLWVwQUxJUCBnaXlNYVkgZWRnZSI+JiN4YTs8cGF0aCBmaWxsPSJub25lIiBtYXJrZXItZW5kPSJ1cmwoI2Fycm93aGVhZCkiIGQ9Ik01NDkuODMzMzMzMzMzMzMzNCw0MTVMNTU2LjE1Mjc3Nzc3Nzc3NzgsNDEyLjA4MzMzMzMzMzMzMzNDNTYyLjQ3MjIyMjIyMjIyMjMsNDA5LjE2NjY2NjY2NjY2NjcsNTc1LjExMTExMTExMTExMTIsNDAzLjMzMzMzMzMzMzMzMzMsNTgxLjQzMDU1NTU1NTU1NTUsMzkzLjQxNjY2NjY2NjY2NjdDNTg3Ljc1LDM4My41LDU4Ny43NSwzNjkuNSw1ODcuNzUsMzU1LjVDNTg3Ljc1LDM0MS41LDU4Ny43NSwzMjcuNSw1ODEuNDMwNTU1NTU1NTU1NSwzMTcuNTgzMzMzMzMzMzMzM0M1NzUuMTExMTExMTExMTExMiwzMDcuNjY2NjY2NjY2NjY2Nyw1NjIuNDcyMjIyMjIyMjIyMywzMDEuODMzMzMzMzMzMzMzMyw1NTYuMTUyNzc3Nzc3Nzc3OCwyOTguOTE2NjY2NjY2NjY2N0w1NDkuODMzMzMzMzMzMzMzNCwyOTYiIGlkPSJzdGF0ZS1Db25maXJtQ29tcGxldGU6c3RhdGUtV2FpdEV4cG9ydFRhc2s6Y2hvaWNlRGVmYXVsdCIvPiYjeGE7PGcgdHJhbnNmb3JtPSJ0cmFuc2xhdGUoNTgxLjQzMDU1NTU1NTU1NTUsMzkzLjQxNjY2NjY2NjY2NjcpIiBjbGFzcz0iZWRnZS1sYWJlbCIgZGF0YS10ZXN0aWQ9ImdyYXBoLUNvbmZpcm1Db21wbGV0ZS1EZWZhdWx0Ij4mI3hhOzxyZWN0IGNsYXNzPSJzYy1pTHNLam0gY3J5ekF1IiBoZWlnaHQ9IjE2LjUiIHdpZHRoPSI0NCIgeT0iLTguMjUiIHg9Ii0yMiIvPiYjeGE7PHRleHQgY2xhc3M9InNjLWxiSmNycCB0WU1adyBsYWJlbCI+JiN4YTs8dHNwYW4gYWxpZ25tZW50LWJhc2VsaW5lPSJjZW50cmFsIiB0ZXh0LWFuY2hvcj0ibWlkZGxlIiB4bWw6c3BhY2U9InByZXNlcnZlIj5EZWZhdWx0PC90c3Bhbj4mI3hhOzx0aXRsZT5EZWZhdWx0PC90aXRsZT4mI3hhOzwvdGV4dD4mI3hhOzwvZz4mI3hhOzwvZz4mI3hhOzxnIGNsYXNzPSJzYy1lcEFMSVAgZ2l5TWFZIGVkZ2UiPiYjeGE7PHBhdGggZmlsbD0ibm9uZSIgbWFya2VyLWVuZD0idXJsKCNhcnJvd2hlYWQpIiBkPSJNMzE5LjUsODg4LjVMMzE5LjUsODkxLjQxNjY2NjY2NjY2NjZDMzE5LjUsODk0LjMzMzMzMzMzMzMzMzQsMzE5LjUsOTAwLjE2NjY2NjY2NjY2NjYsMzE5LjUsOTA2QzMxOS41LDkxMS44MzMzMzMzMzMzMzM0LDMxOS41LDkxNy42NjY2NjY2NjY2NjY2LDMxOS41LDkyMC41ODMzMzMzMzMzMzM0TDMxOS41LDkyMy41IiBpZD0ic3RhdGUtTW92ZUxvZ0ZpbGVzOnN0YXRlLVN1Y2Nlc3M6bm9ybWFsIi8+JiN4YTs8L2c+JiN4YTs8ZyBjbGFzcz0ic2MtZXBBTElQIGdpeU1hWSBlZGdlIj4mI3hhOzxwYXRoIGZpbGw9Im5vbmUiIG1hcmtlci1lbmQ9InVybCgjYXJyb3doZWFkKSIgZD0iTTMxOS41LDk3Mi41TDMxOS41LDk3NS40MTY2NjY2NjY2NjY2QzMxOS41LDk3OC4zMzMzMzMzMzMzMzM0LDMxOS41LDk4NC4xNjY2NjY2NjY2NjY2LDM0NS40NjI3ODk4MzY0MDI5LDk5Mi44NjkxMTcyNDYxQzM3MS40MjU1Nzk2NzI4MDU5LDEwMDEuNTcxNTY3ODI1NTMzNiw0MjMuMzUxMTU5MzQ1NjExODUsMTAxMy4xNDMxMzU2NTEwNjcyLDQ0OS4zMTM5NDkxODIwMTQ3NywxMDE4LjkyODkxOTU2MzgzMzlMNDc1LjI3NjczOTAxODQxNzc0LDEwMjQuNzE0NzAzNDc2NjAwOCIgaWQ9InN0YXRlLVN1Y2Nlc3M6ZW5kOm5vcm1hbCIvPiYjeGE7PC9nPiYjeGE7PGcgY2xhc3M9InNjLWVwQUxJUCBnaXlNYVkgZWRnZSI+JiN4YTs8cGF0aCBmaWxsPSJub25lIiBtYXJrZXItZW5kPSJ1cmwoI2Fycm93aGVhZCkiIGQ9Ik02NzQsOTcyLjVMNjc0LDk3NS40MTY2NjY2NjY2NjY2QzY3NCw5NzguMzMzMzMzMzMzMzMzNCw2NzQsOTg0LjE2NjY2NjY2NjY2NjYsNjQ4LjAzNzIxMDE2MzU5Nyw5OTIuODY5MTE3MjQ2MUM2MjIuMDc0NDIwMzI3MTk0MiwxMDAxLjU3MTU2NzgyNTUzMzYsNTcwLjE0ODg0MDY1NDM4ODIsMTAxMy4xNDMxMzU2NTEwNjcyLDU0NC4xODYwNTA4MTc5ODUyLDEwMTguOTI4OTE5NTYzODMzOUw1MTguMjIzMjYwOTgxNTgyMywxMDI0LjcxNDcwMzQ3NjYwMDgiIGlkPSJzdGF0ZS1GYWlsOmVuZDpub3JtYWwiLz4mI3hhOzwvZz4mI3hhOzwvZz4mI3hhOzxkZWZzPiYjeGE7PG1hcmtlciBjbGFzcz0ic2MtZHdhbEtkIGZmaEZDdCIgb3JpZW50PSJhdXRvIiByZWZZPSIzIiByZWZYPSI3IiBtYXJrZXJIZWlnaHQ9IjYiIG1hcmtlcldpZHRoPSI4IiBpZD0iYXJyb3doZWFkIj4mI3hhOzxwb2x5Z29uIHBvaW50cz0iMCAwLCA4IDMsIDAgNiIvPiYjeGE7PC9tYXJrZXI+JiN4YTs8bWFya2VyIGNsYXNzPSJzYy1kd2FsS2QgZmZoRkN0IiBvcmllbnQ9ImF1dG8iIHJlZlk9IjIiIHJlZlg9IjUiIG1hcmtlckhlaWdodD0iNCIgbWFya2VyV2lkdGg9IjYiIGlkPSJoaWdobGlnaHRlZC1hcnJvd2hlYWQiPiYjeGE7PHBvbHlnb24gcG9pbnRzPSIwIDAsIDYgMiwgMCA0Ii8+JiN4YTs8L21hcmtlcj4mI3hhOzxtYXJrZXIgY2xhc3M9InNjLWR3YWxLZCBmZmhGQ3QiIG9yaWVudD0iYXV0byIgcmVmWT0iMiIgcmVmWD0iNSIgbWFya2VySGVpZ2h0PSI0IiBtYXJrZXJXaWR0aD0iNiIgaWQ9ImVycm9yLWFycm93aGVhZCI+JiN4YTs8cG9seWdvbiBwb2ludHM9IjAgMCwgNiAyLCAwIDQiLz4mI3hhOzwvbWFya2VyPiYjeGE7PG1hcmtlciBjbGFzcz0ic2MtZHdhbEtkIGZmaEZDdCIgb3JpZW50PSJhdXRvIiByZWZZPSI0IiByZWZYPSI5IiBtYXJrZXJIZWlnaHQ9IjgiIG1hcmtlcldpZHRoPSIxMCIgaWQ9ImxhcmdlLWFycm93aGVhZCI+JiN4YTs8cG9seWdvbiBwb2ludHM9IjAgMCwgMTAgNCwgMCA4Ii8+JiN4YTs8L21hcmtlcj4mI3hhOzxtYXJrZXIgY2xhc3M9InNjLWR3YWxLZCBmZmhGQ3QiIG9yaWVudD0iYXV0byIgcmVmWT0iMiIgcmVmWD0iNC41IiBtYXJrZXJIZWlnaHQ9IjQiIG1hcmtlcldpZHRoPSI1LjUiIGlkPSJsYXJnZS1oaWdobGlnaHRlZC1hcnJvd2hlYWQiPiYjeGE7PHBvbHlnb24gcG9pbnRzPSIwIDAsIDUuNSAyLCAwIDQiLz4mI3hhOzwvbWFya2VyPiYjeGE7PG1hcmtlciBjbGFzcz0ic2MtZHdhbEtkIGZmaEZDdCIgb3JpZW50PSJhdXRvIiByZWZZPSI0IiByZWZYPSI5IiBtYXJrZXJIZWlnaHQ9IjgiIG1hcmtlcldpZHRoPSIxMCIgaWQ9ImxhcmdlLWVycm9yLWFycm93aGVhZCI+JiN4YTs8cG9seWdvbiBwb2ludHM9IjAgMCwgMTAgNCwgMCA4Ii8+JiN4YTs8L21hcmtlcj4mI3hhOzxsaW5lYXJHcmFkaWVudCBpZD0iZ3JhZGllbnQtb3JhbmdlIiB5Mj0iMCUiIHgyPSIxMDAlIiB5MT0iMTAwJSIgeDE9IjAlIj4mI3hhOzxzdG9wIG9mZnNldD0iMCUiIHN0b3AtY29sb3I9IiNDODUxMUIiLz4mI3hhOzxzdG9wIG9mZnNldD0iMTAwJSIgc3RvcC1jb2xvcj0iI0ZGOTkwMCIvPiYjeGE7PC9saW5lYXJHcmFkaWVudD4mI3hhOzxsaW5lYXJHcmFkaWVudCBpZD0iZ3JhZGllbnQtdHVycXVvaXNlIiB5Mj0iMCUiIHgyPSIxMDAlIiB5MT0iMTAwJSIgeDE9IjAlIj4mI3hhOzxzdG9wIG9mZnNldD0iMCUiIHN0b3AtY29sb3I9IiMwNTVGNEUiLz4mI3hhOzxzdG9wIG9mZnNldD0iMTAwJSIgc3RvcC1jb2xvcj0iIzU2QzBBNyIvPiYjeGE7PC9saW5lYXJHcmFkaWVudD4mI3hhOzxsaW5lYXJHcmFkaWVudCBpZD0iZ3JhZGllbnQtYmx1ZSIgeTI9IjAlIiB4Mj0iMTAwJSIgeTE9IjEwMCUiIHgxPSIwJSI+JiN4YTs8c3RvcCBvZmZzZXQ9IjAlIiBzdG9wLWNvbG9yPSIjMkUyN0FEIi8+JiN4YTs8c3RvcCBvZmZzZXQ9IjEwMCUiIHN0b3AtY29sb3I9IiM1MjdGRkYiLz4mI3hhOzwvbGluZWFyR3JhZGllbnQ+JiN4YTs8bGluZWFyR3JhZGllbnQgaWQ9ImdyYWRpZW50LXBpbmsiIHkyPSIwJSIgeDI9IjEwMCUiIHkxPSIxMDAlIiB4MT0iMCUiPiYjeGE7PHN0b3Agb2Zmc2V0PSIwJSIgc3RvcC1jb2xvcj0iI0IwMDg0RCIvPiYjeGE7PHN0b3Agb2Zmc2V0PSIxMDAlIiBzdG9wLWNvbG9yPSIjRkY0RjhCIi8+JiN4YTs8L2xpbmVhckdyYWRpZW50PiYjeGE7PGxpbmVhckdyYWRpZW50IGlkPSJncmFkaWVudC1yZWQiIHkyPSIwJSIgeDI9IjEwMCUiIHkxPSIxMDAlIiB4MT0iMCUiPiYjeGE7PHN0b3Agb2Zmc2V0PSIwJSIgc3RvcC1jb2xvcj0iI0JEMDgxNiIvPiYjeGE7PHN0b3Agb2Zmc2V0PSIxMDAlIiBzdG9wLWNvbG9yPSIjRkY1MjUyIi8+JiN4YTs8L2xpbmVhckdyYWRpZW50PiYjeGE7PGxpbmVhckdyYWRpZW50IGlkPSJncmFkaWVudC1ncmVlbiIgeTI9IjAlIiB4Mj0iMTAwJSIgeTE9IjEwMCUiIHgxPSIwJSI+JiN4YTs8c3RvcCBvZmZzZXQ9IjAlIiBzdG9wLWNvbG9yPSIjMUI2NjBGIi8+JiN4YTs8c3RvcCBvZmZzZXQ9IjEwMCUiIHN0b3AtY29sb3I9IiM2Q0FFM0UiLz4mI3hhOzwvbGluZWFyR3JhZGllbnQ+JiN4YTs8bGluZWFyR3JhZGllbnQgaWQ9ImdyYWRpZW50LXB1cnBsZSIgeTI9IjAlIiB4Mj0iMTAwJSIgeTE9IjEwMCUiIHgxPSIwJSI+JiN4YTs8c3RvcCBvZmZzZXQ9IjAlIiBzdG9wLWNvbG9yPSIjNEQyN0E4Ii8+JiN4YTs8c3RvcCBvZmZzZXQ9IjEwMCUiIHN0b3AtY29sb3I9IiNBMTY2RkYiLz4mI3hhOzwvbGluZWFyR3JhZGllbnQ+JiN4YTs8bGluZWFyR3JhZGllbnQgaWQ9ImdyYWRpZW50LWdyZXkiIHkyPSIwJSIgeDI9IjEwMCUiIHkxPSIxMDAlIiB4MT0iMCUiPiYjeGE7PHN0b3Agb2Zmc2V0PSIwJSIgc3RvcC1jb2xvcj0iI0RDRENEQyIvPiYjeGE7PHN0b3Agb2Zmc2V0PSIxMDAlIiBzdG9wLWNvbG9yPSIjRjZGNUY3Ii8+JiN4YTs8L2xpbmVhckdyYWRpZW50PiYjeGE7PGxpbmVhckdyYWRpZW50IGlkPSJncmFkaWVudC1saWdodC1waW5rIiB5Mj0iMCUiIHgyPSIxMDAlIiB5MT0iMTAwJSIgeDE9IjAlIj4mI3hhOzxzdG9wIG9mZnNldD0iMCUiIHN0b3AtY29sb3I9IiNERDM0NEMiLz4mI3hhOzxzdG9wIG9mZnNldD0iMTAwJSIgc3RvcC1jb2xvcj0iI0REMzQ0QyIvPiYjeGE7PC9saW5lYXJHcmFkaWVudD4sPGxpbmVhckdyYWRpZW50IGlkPSJncmFkaWVudC1hZyIgeTI9IjAlIiB4Mj0iMTAwJSIgeTE9IjEwMCUiIHgxPSIwJSI+JiN4YTs8c3RvcCBvZmZzZXQ9IjAlIiBzdG9wLWNvbG9yPSIjQkMxMzU2Ii8+JiN4YTs8c3RvcCBvZmZzZXQ9IjEwMCUiIHN0b3AtY29sb3I9IiNGMzQ0ODIiLz4mI3hhOzwvbGluZWFyR3JhZGllbnQ+JiN4YTs8bGluZWFyR3JhZGllbnQgaWQ9ImdyYWRpZW50LWF0aGVuYSIgeTI9IjAlIiB4Mj0iMTAwJSIgeTE9IjEwMCUiIHgxPSIwJSI+JiN4YTs8c3RvcCBvZmZzZXQ9IjAlIiBzdG9wLWNvbG9yPSIjNTkzMEI1Ii8+JiN4YTs8c3RvcCBvZmZzZXQ9IjEwMCUiIHN0b3AtY29sb3I9IiM5NDVERjIiLz4mI3hhOzwvbGluZWFyR3JhZGllbnQ+JiN4YTs8bGluZWFyR3JhZGllbnQgaWQ9ImdyYWRpZW50LWVtciIgeTI9IjAlIiB4Mj0iMTAwJSIgeTE9IjEwMCUiIHgxPSIwJSI+JiN4YTs8c3RvcCBvZmZzZXQ9IjAlIiBzdG9wLWNvbG9yPSIjNTkzMEI1Ii8+JiN4YTs8c3RvcCBvZmZzZXQ9IjEwMCUiIHN0b3AtY29sb3I9IiM5NDVERjIiLz4mI3hhOzwvbGluZWFyR3JhZGllbnQ+JiN4YTs8bGluZWFyR3JhZGllbnQgaWQ9ImdyYWRpZW50LWdsdWUiIHkyPSIwJSIgeDI9IjEwMCUiIHkxPSIxMDAlIiB4MT0iMCUiPiYjeGE7PHN0b3Agb2Zmc2V0PSIwJSIgc3RvcC1jb2xvcj0iIzU5MzBCNSIvPiYjeGE7PHN0b3Agb2Zmc2V0PSIxMDAlIiBzdG9wLWNvbG9yPSIjOTQ1REYyIi8+JiN4YTs8L2xpbmVhckdyYWRpZW50PiYjeGE7PGxpbmVhckdyYWRpZW50IGlkPSJncmFkaWVudC1zbnMiIHkyPSIwJSIgeDI9IjEwMCUiIHkxPSIxMDAlIiB4MT0iMCUiPiYjeGE7PHN0b3Agb2Zmc2V0PSIwJSIgc3RvcC1jb2xvcj0iI0JDMTM1NiIvPiYjeGE7PHN0b3Agb2Zmc2V0PSIxMDAlIiBzdG9wLWNvbG9yPSIjRjM0NDgyIi8+JiN4YTs8L2xpbmVhckdyYWRpZW50PiYjeGE7PGxpbmVhckdyYWRpZW50IGlkPSJncmFkaWVudC1zdGF0ZXMiIHkyPSIwJSIgeDI9IjEwMCUiIHkxPSIxMDAlIiB4MT0iMCUiPiYjeGE7PHN0b3Agb2Zmc2V0PSIwJSIgc3RvcC1jb2xvcj0iI0JDMTM1NiIvPiYjeGE7PHN0b3Agb2Zmc2V0PSIxMDAlIiBzdG9wLWNvbG9yPSIjRjM0NDgyIi8+JiN4YTs8L2xpbmVhckdyYWRpZW50PiYjeGE7PGxpbmVhckdyYWRpZW50IGlkPSJncmFkaWVudC1nZW5lcmljIiB5Mj0iMCUiIHgyPSIxMDAlIiB5MT0iMTAwJSIgeDE9IjAlIj4mI3hhOzxzdG9wIG9mZnNldD0iMCUiIHN0b3AtY29sb3I9IiNjY2MiLz4mI3hhOzxzdG9wIG9mZnNldD0iMTAwJSIgc3RvcC1jb2xvcj0iI2RkZCIvPiYjeGE7PC9saW5lYXJHcmFkaWVudD4mI3hhOzxnIGlkPSJpY29uLWZsb3ctcGFzcyIgZmlsbC1ydWxlPSJldmVub2RkIiBmaWxsPSJub25lIiBzdHJva2Utd2lkdGg9IjEiIHN0cm9rZT0ibm9uZSI+JiN4YTs8ZyBmaWxsLXJ1bGU9Im5vbnplcm8iIGZpbGw9IiMwMDczQkIiIHRyYW5zZm9ybT0idHJhbnNsYXRlKDEwLjUwMDAwMCwgOC43NTAwMDApIj4mI3hhOzxwYXRoIGZpbGw9ImZhbHNlIiBkPSJNMTMuODIxNzM2MywzMS4yODAzMzAxIEwxMy43MzY4NDU0LDMxLjM1MzI1MDggTDEzLjczNjg0NTQsMzEuMzUzMjUwOCBMMTMuNjUzNDQyNiwzMS40MDcwNTMgTDEzLjY1MzQ0MjYsMzEuNDA3MDUzIEwxMy42MDUyODc4LDMxLjQzMTM4MzkgTDEzLjYwNTI4NzgsMzEuNDMxMzgzOSBMMTMuNTA4MTY3MSwzMS40NjgxNDU4IEwxMy41MDgxNjcxLDMxLjQ2ODE0NTggTDEzLjQ1MTM3MTEsMzEuNDgyODM5NSBMMTMuNDUxMzcxMSwzMS40ODI4Mzk1IEwxMy4zODQ2NzU1LDMxLjQ5NDIxMjcgTDEzLjM4NDY3NTUsMzEuNDk0MjEyNyBMMTMuMzQxMjQyOCwzMS40OTgzNTcgTDEzLjM0MTI0MjgsMzEuNDk4MzU3IEwxMy4yNDE0OTUsMzEuNDk4MzU3IEwxMy4yNDE0OTUsMzEuNDk4MzU3IEwxMy4xODAyMDQ1LDMxLjQ5MTc1ODggTDEzLjE4MDIwNDUsMzEuNDkxNzU4OCBMMTMuMTMxNDY0NCwzMS40ODI4MzYxIEwxMy4xMzE0NjQ0LDMxLjQ4MjgzNjEgTDEzLjA2NTI5MjEsMzEuNDY1MjY1MiBMMTIuOTc3NjIzNSwzMS40MzE0Mjk0IEwxMi45Nzc2MjM1LDMxLjQzMTQyOTQgTDEyLjkyOTM3ODIsMzEuNDA3MDYwOCBMMTIuOTI5Mzc4MiwzMS40MDcwNjA4IEwxMi44Mjk0ODI0LDMxLjM0MDk1OTYgTDEyLjc2MTA3NjIsMzEuMjgwMzMwMSBMMTIuNzYxMDc2MiwzMS4yODAzMzAxIEw4LjI2MTA3NjE2LDI2Ljc4MDMzMDEgQzcuOTY4MTgyOTUsMjYuNDg3NDM2OSA3Ljk2ODE4Mjk1LDI2LjAxMjU2MzEgOC4yNjEwNzYxNiwyNS43MTk2Njk5IEM4LjUyNzM0MjczLDI1LjQ1MzQwMzQgOC45NDQwMDY0MSwyNS40MjkxOTczIDkuMjM3NjE3OSwyNS42NDcwNTE4IEw5LjMyMTczNjM0LDI1LjcxOTY2OTkgTDEyLjU4MTQwNjMsMjguOTc5IEwxMi41ODEsMTkuNzQ5NTUyMiBMMy41LDE5Ljc1IEMxLjYzMTQzNjYsMTkuNzUgMC4xMDQ4NzM1NTEsMTguMjg1NzIyNCAwLjAwNTE3ODg2MjczLDE2LjQ0MjAzNTIgTDAsMTYuMjUgTDAsMTIuMjUgQzAsMTAuMzgxNDM2NiAxLjQ2NDI3NzYsOC44NTQ4NzM1NSAzLjMwNzk2NDgsOC43NTUxNzg4NiBMMy41LDguNzUgTDExLjY4Niw4Ljc0OTU1MjE2IEwxMS42ODYsMTAuMjQ5NTUyMiBMMy41LDEwLjI1IEMyLjQ0NTYzODIsMTAuMjUgMS41ODE4MzQ4OCwxMS4wNjU4Nzc4IDEuNTA1NDg1NzQsMTIuMTAwNzM3NyBMMS41LDEyLjI1IEwxLjUsMTYuMjUgQzEuNSwxNy4zMDQzNjE4IDIuMzE1ODc3NzksMTguMTY4MTY1MSAzLjM1MDczNzY2LDE4LjI0NDUxNDMgTDMuNSwxOC4yNSBMMjIuNSwxOC4yNSBDMjMuNTU0MzYxOCwxOC4yNSAyNC40MTgxNjUxLDE3LjQzNDEyMjIgMjQuNDk0NTE0MywxNi4zOTkyNjIzIEwyNC41LDE2LjI1IEwyNC41LDEyLjI1IEMyNC41LDExLjE5NTYzODIgMjMuNjg0MTIyMiwxMC4zMzE4MzQ5IDIyLjY0OTI2MjMsMTAuMjU1NDg1NyBMMjIuNSwxMC4yNSBMMTUuNjg2LDEwLjI0OTU1MjIgTDE1LjY4Niw4Ljc0OTU1MjE2IEwyMi41LDguNzUgQzI0LjM2ODU2MzQsOC43NSAyNS44OTUxMjY0LDEwLjIxNDI3NzYgMjUuOTk0ODIxMSwxMi4wNTc5NjQ4IEwyNiwxMi4yNSBMMjYsMTYuMjUgQzI2LDE4LjExODU2MzQgMjQuNTM1NzIyNCwxOS42NDUxMjY0IDIyLjY5MjAzNTIsMTkuNzQ0ODIxMSBMMjIuNSwxOS43NSBMMTQuMDgxLDE5Ljc0OTU1MjIgTDE0LjA4MTQwNjMsMjguODk5IEwxNy4yNjEwNzYyLDI1LjcxOTY2OTkgTDE3LjM0NTE5NDYsMjUuNjQ3MDUxOCBDMTcuNjM4ODA2MSwyNS40MjkxOTczIDE4LjA1NTQ2OTgsMjUuNDUzNDAzNCAxOC4zMjE3MzYzLDI1LjcxOTY2OTkgQzE4LjU4ODAwMjksMjUuOTg1OTM2NSAxOC42MTIyMDg5LDI2LjQwMjYwMDIgMTguMzk0MzU0NSwyNi42OTYyMTE3IEwxOC4zMjE3MzYzLDI2Ljc4MDMzMDEgTDEzLjgyMTczNjMsMzEuMjgwMzMwMSBaIi8+JiN4YTs8cG9seWdvbiBmaWxsPSJmYWxzZSIgcG9pbnRzPSIxNC4wODE4MjkxIDAgMTQuMDgxODI5MSAxNC41IDEyLjU4MTgyOTEgMTQuNSAxMi41ODE4MjkxIDAiLz4mI3hhOzwvZz4mI3hhOzwvZz4mI3hhOzxnIGlkPSJpY29uLWZsb3ctd2FpdCIgZmlsbC1ydWxlPSJldmVub2RkIiBmaWxsPSJub25lIiBzdHJva2Utd2lkdGg9IjEiPiYjeGE7PHBhdGggZmlsbD0iIzAwNzNCQiIgZmlsbC1ydWxlPSJub256ZXJvIiBkPSJNMjYuNzUsOC44NTgyNTg5MyBMMjYuNzUsMTAuMzU4MjU4OSBMMjUsMTAuMzU4MjU4OSBMMjUuMDAxMDMzMiwxMy4yODg3MTg2IEMyNy4yMzk1NjQzLDEzLjQ2MjU3MDQgMjkuMzE1OTI2OSwxNC4yMTQ1Mjc4IDMxLjA4MDk5MDMsMTUuMzk1NDU5OCBMMzIuMzE4ODQyNCwxMy42OTEyNzExIEwzNC43NDU4OTM0LDE1LjQ1NDYyNjkgTDMzLjM2ODI4ODEsMTcuMzUxMzQxOSBDMzUuNDY3NDQ4MywxOS42MjQwNDMxIDM2Ljc1LDIyLjY2MjI0MzYgMzYuNzUsMjYgQzM2Ljc1LDMzLjA0MTYzMDYgMzEuMDQxNjMwNiwzOC43NSAyNCwzOC43NSBDMTYuOTU4MzY5NCwzOC43NSAxMS4yNSwzMy4wNDE2MzA2IDExLjI1LDI2IEMxMS4yNSwyMi43NjU3NjI3IDEyLjQ1NDIyOTgsMTkuODEyNzg4NCAxNC40Mzg3Njg1LDE3LjU2NDk5NzcgTDEyLjkwNDc5NjYsMTUuNDU0NjI2OSBMMTUuMzMxODQ3NiwxMy42OTEyNzExIEwxNi42ODU4ODEyLDE1LjU1NTE5NyBDMTguMjM4NzUyMiwxNC40NjU3NjI5IDIwLjA0NTY3MDQsMTMuNzEzODMzNiAyMi4wMDAxMDY4LDEzLjQwNTkzODQgTDIyLDEwLjM1ODI1ODkgTDIwLjI1LDEwLjM1ODI1ODkgTDIwLjI1LDguODU4MjU4OTMgTDI2Ljc1LDguODU4MjU4OTMgWiBNMjQsMTQuNzUgQzE3Ljc4Njc5NjYsMTQuNzUgMTIuNzUsMTkuNzg2Nzk2NiAxMi43NSwyNiBDMTIuNzUsMzIuMjEzMjAzNCAxNy43ODY3OTY2LDM3LjI1IDI0LDM3LjI1IEMzMC4yMTMyMDM0LDM3LjI1IDM1LjI1LDMyLjIxMzIwMzQgMzUuMjUsMjYgQzM1LjI1LDE5Ljc4Njc5NjYgMzAuMjEzMjAzNCwxNC43NSAyNCwxNC43NSBaIE0yNC40NjY2NjQ4LDE5LjM0NTIxNDggTDI0LjQ2NiwyNi40OTkgTDMwLjkzODcyMDcsMjYuNDk5MzAzNCBMMzAuOTM4NzIwNywyNy45OTkzMDM0IEwyMy43MTY2NjQ4LDI3Ljk5OTMwMzQgQzIzLjMzNjk2OSwyNy45OTkzMDM0IDIzLjAyMzE3MzgsMjcuNzE3MTQ5NSAyMi45NzM1MTE0LDI3LjM1MTA3MzkgTDIyLjk2NjY2NDgsMjcuMjQ5MzAzNCBMMjIuOTY2NjY0OCwxOS4zNDUyMTQ4IEwyNC40NjY2NjQ4LDE5LjM0NTIxNDggWiIvPiYjeGE7PC9nPiYjeGE7PGcgaWQ9Imljb24tZmxvdy1tYXAiIGZpbGwtcnVsZT0iZXZlbm9kZCIgZmlsbD0ibm9uZSIgc3Ryb2tlLXdpZHRoPSIxIiBzdHJva2U9Im5vbmUiPiYjeGE7PGcgZmlsbC1ydWxlPSJub256ZXJvIiBmaWxsPSIjMDA3M0JCIiB0cmFuc2Zvcm09InRyYW5zbGF0ZSg3LjI1MDAwMCwgMTIuMjUwMDAwKSI+JiN4YTs8cGF0aCBmaWxsPSJmYWxzZSIgZD0iTTE4Ljc1IDYuNzVDMTkuMzAyMyA2Ljc1IDE5Ljc1IDcuMTk3NzIgMTkuNzUgNy43NVYxMC43NUMxOS43NSAxMS4zMDIzIDE5LjMwMjMgMTEuNzUgMTguNzUgMTEuNzVIMTdWMTQuNzVIMTguNzVDMTkuMzAyMyAxNC43NSAxOS43NSAxNS4xOTc3IDE5Ljc1IDE1Ljc1VjE4Ljc1QzE5Ljc1IDE5LjMwMjMgMTkuMzAyMyAxOS43NSAxOC43NSAxOS43NUgxMy43NUMxMy4xOTc3IDE5Ljc1IDEyLjc1IDE5LjMwMjMgMTIuNzUgMTguNzVWMTUuNzVDMTIuNzUgMTUuMTk3NyAxMy4xOTc3IDE0Ljc1IDEzLjc1IDE0Ljc1SDE1LjVWMTEuNzVIMTMuNzVDMTMuMTk3NyAxMS43NSAxMi43NSAxMS4zMDIzIDEyLjc1IDEwLjc1VjcuNzVDMTIuNzUgNy4xOTc3MiAxMy4xOTc3IDYuNzUgMTMuNzUgNi43NUgxOC43NVpNMTguMjUgMTYuMjVIMTQuMjVWMTguMjVIMTguMjVWMTYuMjVaTTE4LjI1IDguMjVIMTQuMjVWMTAuMjVIMTguMjVWOC4yNVoiLz4mI3hhOzxwYXRoIGZpbGw9ImZhbHNlIiBkPSJNNC4zNjc3NCAxMi45NzgyTDQuMjU1ODIgMTIuOTg3NEw0LjE2NjY0IDEyLjk4MjhMNC4wOTkxIDEyLjk3MjFMNC4wMTc3MyAxMi45NTA3TDMuOTE0MzkgMTIuOTA4NEwzLjg0MDg2IDEyLjg2NjJMMy44MDM3OSAxMi44NDAzTDMuNzE5NjcgMTIuNzY3N0wwLjIxOTY3IDkuMjY3NzNDLTAuMDczMjIzMyA4Ljk3NDg0IC0wLjA3MzIyMzMgOC40OTk5NiAwLjIxOTY3IDguMjA3MDdDMC40ODU5MzYgNy45NDA4IDAuOTAyNiA3LjkxNjYgMS4xOTYyMSA4LjEzNDQ1TDEuMjgwMzMgOC4yMDcwN0wzLjUgMTAuNDI3VjUuNzVDMy41IDIuNjQ4MjEgNS45NTYwMiAwLjEyMDA2MyA5LjAyOTQ0IDAuMDA0MTUyMDhMOS4yNSAwSDI0LjI1QzI3LjMxMDEgMCAyOS44MTgzIDIuMzkyNzkgMjkuOTkwNiA1LjQxOEwyOS45OTkxIDUuNjU2MjlMMzAgNy43NUMzMCA4LjE2NDIxIDI5LjY2NDIgOC41IDI5LjI1IDguNUMyOC44MzU4IDguNSAyOC41IDguMTY0MjEgMjguNSA3Ljc1TDI4LjQ5OTIgNS42Njg1NUMyOC40NTcyIDMuNDI2MDcgMjYuNjc5NyAxLjYxMjkgMjQuNDU5NCAxLjUwNTA3TDI0LjI1IDEuNUg5LjI1QzYuOTcxODMgMS41IDUuMTEyMzEgMy4yOTI1MSA1LjAwNDkgNS41NDQwOEw1IDUuNzVWMTAuNDI2TDcuMjE5NjcgOC4yMDcwN0w3LjMwMzc5IDguMTM0NDVDNy41OTc0IDcuOTE2NiA4LjAxNDA2IDcuOTQwOCA4LjI4MDMzIDguMjA3MDdDOC41NDY2IDguNDczMzQgOC41NzA4IDguODkgOC4zNTI5NSA5LjE4MzYxTDguMjgwMzMgOS4yNjc3M0w0Ljc4MDMzIDEyLjc2NzdDNC43NDI3IDEyLjgwNTQgNC43MDIwNyAxMi44MzgyIDQuNjU5MjEgMTIuODY2MUw0LjU4NTM5IDEyLjkwODVMNC41MDgyNiAxMi45NDE3TDQuNDQxNjQgMTIuOTYyNkw0LjM2Nzc0IDEyLjk3ODJaIi8+JiN4YTs8cGF0aCBmaWxsPSJmYWxzZSIgZD0iTTI5LjE1NjcgMTIuNDY3M0wyOS4yNDQyIDEyLjQ2MTVMMjkuMzYxMiAxMi40Njk4TDI5LjQwOTkgMTIuNDc4N0wyOS40NzYxIDEyLjQ5NjNMMjkuNTM0OSAxMi41MTc1TDI5LjYwNTIgMTIuNTUwN0wyOS42OTYyIDEyLjYwODZMMjkuNzgwMyAxMi42ODEyTDMzLjI4MDMgMTYuMTgxMkMzMy41NzMyIDE2LjQ3NDEgMzMuNTczMiAxNi45NDkgMzMuMjgwMyAxNy4yNDE5QzMzLjAxNDEgMTcuNTA4MSAzMi41OTc0IDE3LjUzMjMgMzIuMzAzOCAxNy4zMTQ1TDMyLjIxOTcgMTcuMjQxOUwzMCAxNS4wMjI1VjE5Ljc1QzMwIDIyLjg1MTggMjcuNTQ0IDI1LjM3OTkgMjQuNDcwNiAyNS40OTU5TDI0LjI1IDI1LjVIOS4yNUM2LjIyMzY1IDI1LjUgMy43MzIxMyAyMy4xNTggMy41MTUzIDIwLjE3MjVMMy41MDMgMTkuOTIyNkwzLjUgMTcuNzVDMy41IDE3LjMzNTggMy44MzU3OSAxNyA0LjI1IDE3QzQuNjI5NyAxNyA0Ljk0MzQ5IDE3LjI4MjIgNC45OTMxNSAxNy42NDgyTDUgMTcuNzVMNS4wMDI0OCAxOS44OTY3QzUuMDc3MzggMjIuMTEyIDYuODQ1MiAyMy44ODk0IDkuMDQyNzYgMjMuOTk1TDkuMjUgMjRIMjQuMjVDMjYuNTI4MiAyNCAyOC4zODc3IDIyLjIwNzUgMjguNDk1MSAxOS45NTU5TDI4LjUgMTkuNzVWMTUuMDIxNUwyNi4yODAzIDE3LjI0MTlMMjYuMTk2MiAxNy4zMTQ1QzI1LjkwMjYgMTcuNTMyMyAyNS40ODU5IDE3LjUwODEgMjUuMjE5NyAxNy4yNDE5QzI0Ljk1MzQgMTYuOTc1NiAyNC45MjkyIDE2LjU1ODkgMjUuMTQ3MSAxNi4yNjUzTDI1LjIxOTcgMTYuMTgxMkwyOC43MTk3IDEyLjY4MTJMMjguNzk3IDEyLjYxMzdMMjguODk0OCAxMi41NTA3TDI4Ljk2NSAxMi41MTc2TDI5LjA0MjcgMTIuNDkwNkwyOS4wOSAxMi40Nzg3TDI5LjE1NjcgMTIuNDY3M1oiLz4mI3hhOzwvZz4mI3hhOzwvZz4mI3hhOzxnIGlkPSJpY29uLWZsb3ctY2hvaWNlIiBmaWxsLXJ1bGU9ImV2ZW5vZGQiIGZpbGw9Im5vbmUiIHN0cm9rZS13aWR0aD0iMSIgc3Ryb2tlPSJub25lIj4mI3hhOzxnIGZpbGwtcnVsZT0ibm9uemVybyIgZmlsbD0iIzAwNzNCQiIgdHJhbnNmb3JtPSJ0cmFuc2xhdGUoOS4yNTIwMjAsIDguNzI5MTg1KSI+JiN4YTs8cGF0aCBmaWxsPSJmYWxzZSIgZD0iTTEzLjcxNzY1MDMsMC4yMTk2Njk5MTQgQzEzLjk4MzkxNjgsLTAuMDQ2NTk2NjQ4NCAxNC40MDA1ODA1LC0wLjA3MDgwMjY5OTYgMTQuNjk0MTkyLDAuMTQ3MDUxNzYxIEwxNC43NzgzMTA0LDAuMjE5NjY5OTE0IEwyNi43OTkxMjU3LDEyLjI0MDQ4NTIgQzI3LjA2NTM5MjMsMTIuNTA2NzUxOCAyNy4wODk1OTgzLDEyLjkyMzQxNTQgMjYuODcxNzQzOSwxMy4yMTcwMjY5IEwyNi43OTkxMjU3LDEzLjMwMTE0NTQgTDE5Ljg0OCwyMC4yNTEgTDI3LjA2MywyNy41OCBMMjcuMDYzNTQ0MywyNC40NzI1NDM3IEMyNy4wNjM1NDQzLDI0LjA1ODMzMDIgMjcuMzk5MzMwOCwyMy43MjI1NDM3IDI3LjgxMzU0NDMsMjMuNzIyNTQzNyBDMjguMTkwMTAyMSwyMy43MjI1NDM3IDI4LjUwMTg0NDEsMjQuMDAwMDUzMiAyOC41NTU0MTI0LDI0LjM2MTcxNDIgTDI4LjU2MzU0NDMsMjQuNDcyNTQzNyBMMjguNTYzNTQ0MywyOS40MjIyOTEyIEMyOC41NjM1NDQzLDI5LjQ3MzU3NDggMjguNTU4Mzk3MSwyOS41MjM2NTYyIDI4LjU0ODU5MTIsMjkuNTcyMDQ2OSBMMjguNTI5MDU2NywyOS42NDc3NzQ1IEwyOC40OTEyMjU5LDI5Ljc0NDAyMjQgTDI4LjQ2NzQ1NTYsMjkuNzg5ODQ3MyBMMjguNDM5OTg0OCwyOS44MzQ4NDMzIEwyOC4zOTIyODA4LDI5Ljg5OTM2MDkgTDI4LjMyNjY0MTcsMjkuOTY5MzE0NyBMMjguMjkwMzczNCwzMC4wMDEyMjYxIEwyOC4yMTAzNTk4LDMwLjA1ODgzNTYgTDI4LjEzNzI4ODMsMzAuMDk5MDEzMyBMMjguMDQwODk3MywzMC4xMzcyMTEzIEwyNy45MjQzNzM4LDMwLjE2NDE1OTMgQzI3Ljg4NDEzNjIsMzAuMTY5ODEyOSAyNy44NDkxMjk3LDMwLjE3MjI5MTIgMjcuODEzNTQ0MywzMC4xNzIyOTEyIEwyMi44NjM3OTY5LDMwLjE3MjI5MTIgQzIyLjQ0OTU4MzMsMzAuMTcyMjkxMiAyMi4xMTM3OTY5LDI5LjgzNjUwNDggMjIuMTEzNzk2OSwyOS40MjIyOTEyIEMyMi4xMTM3OTY5LDI5LjA0NTczMzQgMjIuMzkxMzA2MywyOC43MzM5OTE0IDIyLjc1Mjk2NzQsMjguNjgwNDIzMSBMMjIuODYzNzk2OSwyOC42NzIyOTEyIEwyNi4wMzIsMjguNjcyIEwxOC43ODcsMjEuMzEyIEwxNC43NzgzMTA0LDI1LjMyMTk2MDYgQzE0LjUxMjA0MzksMjUuNTg4MjI3MiAxNC4wOTUzODAyLDI1LjYxMjQzMzMgMTMuODAxNzY4NywyNS4zOTQ1Nzg4IEwxMy43MTc2NTAzLDI1LjMyMTk2MDYgTDkuNjMsMjEuMjM0IEwyLjM4NiwyOC42NzEgTDUuNjk5NzQ3NDcsMjguNjcyMjkxMiBMNS44MTA1NzY5NywyOC42ODA0MjMxIEM2LjE3MjIzODAyLDI4LjczMzk5MTQgNi40NDk3NDc0NywyOS4wNDU3MzM0IDYuNDQ5NzQ3NDcsMjkuNDIyMjkxMiBDNi40NDk3NDc0NywyOS44MDE5ODcgNi4xNjc1OTM1OSwzMC4xMTU3ODIyIDUuODAxNTE4MDMsMzAuMTY1NDQ0NiBMNS42OTk3NDc0NywzMC4xNzIyOTEyIEwwLjc1LDMwLjE3MjI5MTIgTDAuNjQ1MTc1MTA3LDMwLjE2NTAyMzggTDAuNTcxMzE2MTM0LDMwLjE1MDg3NiBMMC40OTE3NDg5NTMsMzAuMTI2NjQzNyBMMC4zOTk4Mzg1MTQsMzAuMDg1NzAxMiBMMC4zMjM5NTc1MjEsMzAuMDM5NjE2NSBMMC4yNDMxNjk3NTcsMjkuOTc1MTI5IEwwLjE3MDkxMjEzMSwyOS44OTg5MzQ3IEwwLjEwOTk2MTU4NCwyOS44MTM0NTgyIEwwLjA2NTY5NDk5OTEsMjkuNzI5NzA3NCBMMC4wMjk3Mzk2Njk2LDI5LjYzMjA5NDQgTDAuMDA3NjA1NzU4NCwyOS41Mjk0OTQ0IEw2LjY3OTEwMTcyZS0xMywyOS40MjIyOTEyIEw2LjY3OTEwMTcyZS0xMywyNC40NzI1NDM3IEwwLjAwODEzMTkyNTcyLDI0LjM2MTcxNDIgQzAuMDYxNzAwMjM3NiwyNC4wMDAwNTMyIDAuMzczNDQyMjE2LDIzLjcyMjU0MzcgMC43NSwyMy43MjI1NDM3IEMxLjEyOTY5NTc3LDIzLjcyMjU0MzcgMS40NDM0OTA5NiwyNC4wMDQ2OTc2IDEuNDkzMTUzMzgsMjQuMzcwNzczMiBMMS41LDI0LjQ3MjU0MzcgTDEuNDk5LDI3LjQzMyBMOC41NjksMjAuMTc0IEwxLjY5NjgzNDk4LDEzLjMwMTE0NTQgQzEuNDMwNTY4NDIsMTMuMDM0ODc4OCAxLjQwNjM2MjM3LDEyLjYxODIxNTEgMS42MjQyMTY4MywxMi4zMjQ2MDM2IEwxLjY5NjgzNDk4LDEyLjI0MDQ4NTIgTDEzLjcxNzY1MDMsMC4yMTk2Njk5MTQgWiBNMTQuMzUyNzY5NywyMy43MjgzNTYgTDI1LjIwODEzNTUsMTIuNzcwODE1MyBMMTQuMjQ3OTgwMywxLjgxMDY2MDE3IEwzLjI4NzgyNTI0LDEyLjc3MDgxNTMgTDkuNjE2LDE5LjA5OSBMMTQuMzUyNzY5NywyMy43MjgzNTYgWiIvPiYjeGE7PHBhdGggZmlsbD0iZmFsc2UiIGQ9Ik0xNS4yMzE5ODAzLDE0LjA0NjgxNTMgTDE1LjIzMTk4MDMsMTMuMjY2ODE1MyBDMTYuMDAzMzEzNywxMi44NTA4MTUzIDE2LjU1Nzk4MDMsMTIuNDIxODE1MyAxNi44OTU5ODAzLDExLjk3OTgxNTMgQzE3LjIzMzk4MDMsMTEuNTM3ODE1MyAxNy40MDI5ODAzLDExLjAxNzgxNTMgMTcuNDAyOTgwMywxMC40MTk4MTUzIEMxNy40MDI5ODAzLDkuNjU3MTQ4NjEgMTcuMTUxNjQ3LDkuMDYxMzE1MjggMTYuNjQ4OTgwMyw4LjYzMjMxNTI4IEMxNi4xNDYzMTM3LDguMjAzMzE1MjggMTUuNDQ4NjQ3LDcuOTg4ODE1MjggMTQuNTU1OTgwMyw3Ljk4ODgxNTI4IEMxMy42OTc5ODAzLDcuOTg4ODE1MjggMTIuODc0NjQ3LDguMTkyNDgxOTUgMTIuMDg1OTgwMyw4LjU5OTgxNTI4IEwxMi4wODU5ODAzLDguNTk5ODE1MjggTDEyLjA4NTk4MDMsMTAuMzI4ODE1MyBDMTIuODMxMzEzNyw5Ljk4MjE0ODYxIDEzLjQ5NDMxMzcsOS44MDg4MTUyOCAxNC4wNzQ5ODAzLDkuODA4ODE1MjggQzE0LjM5NTY0Nyw5LjgwODgxNTI4IDE0LjY0MDQ4MDMsOS44NzgxNDg2MSAxNC44MDk0ODAzLDEwLjAxNjgxNTMgQzE0Ljk3ODQ4MDMsMTAuMTU1NDgxOSAxNS4wNjI5ODAzLDEwLjM1OTE0ODYgMTUuMDYyOTgwMywxMC42Mjc4MTUzIEMxNS4wNjI5ODAzLDEwLjkxMzgxNTMgMTQuOTc2MzEzNywxMS4xNjUxNDg2IDE0LjgwMjk4MDMsMTEuMzgxODE1MyBDMTQuNjI5NjQ3LDExLjU5ODQ4MTkgMTQuMzQzNjQ3LDExLjgxNTE0ODYgMTMuOTQ0OTgwMywxMi4wMzE4MTUzIEwxMy45NDQ5ODAzLDEyLjAzMTgxNTMgTDEzLjE5MDk4MDMsMTIuNDM0ODE1MyBMMTMuMzMzOTgwMywxNC4wNDY4MTUzIEwxNS4yMzE5ODAzLDE0LjA0NjgxNTMgWiBNMTQuMzA4OTgwMywxNy40Mzk4MTUzIEMxNC43MjQ5ODAzLDE3LjQzOTgxNTMgMTUuMDYwODEzNywxNy4zMTQxNDg2IDE1LjMxNjQ4MDMsMTcuMDYyODE1MyBDMTUuNTcyMTQ3LDE2LjgxMTQ4MTkgMTUuNjk5OTgwMywxNi40ODIxNDg2IDE1LjY5OTk4MDMsMTYuMDc0ODE1MyBDMTUuNjk5OTgwMywxNS42Njc0ODE5IDE1LjU3MjE0NywxNS4zMzgxNDg2IDE1LjMxNjQ4MDMsMTUuMDg2ODE1MyBDMTUuMDYwODEzNywxNC44MzU0ODE5IDE0LjcyNDk4MDMsMTQuNzA5ODE1MyAxNC4zMDg5ODAzLDE0LjcwOTgxNTMgQzEzLjg5Mjk4MDMsMTQuNzA5ODE1MyAxMy41NTcxNDcsMTQuODM1NDgxOSAxMy4zMDE0ODAzLDE1LjA4NjgxNTMgQzEzLjA0NTgxMzcsMTUuMzM4MTQ4NiAxMi45MTc5ODAzLDE1LjY2NzQ4MTkgMTIuOTE3OTgwMywxNi4wNzQ4MTUzIEMxMi45MTc5ODAzLDE2LjQ4MjE0ODYgMTMuMDQ1ODEzNywxNi44MTE0ODE5IDEzLjMwMTQ4MDMsMTcuMDYyODE1MyBDMTMuNTU3MTQ3LDE3LjMxNDE0ODYgMTMuODkyOTgwMywxNy40Mzk4MTUzIDE0LjMwODk4MDMsMTcuNDM5ODE1MyBaIi8+JiN4YTs8L2c+JiN4YTs8L2c+JiN4YTs8ZyBpZD0iaWNvbi1mbG93LXN1Y2NlZWQiIGZpbGwtcnVsZT0iZXZlbm9kZCIgZmlsbD0ibm9uZSIgc3Ryb2tlLXdpZHRoPSIxIiBzdHJva2U9Im5vbmUiPiYjeGE7PGcgZmlsbC1ydWxlPSJub256ZXJvIiBmaWxsPSIjMkFCNTEyIiB0cmFuc2Zvcm09InRyYW5zbGF0ZSgxMS4yNTAwMDAsIDEyLjI1MDAwMCkiPiYjeGE7PHBhdGggZD0iTTEyLjc1LDAgQzUuNzA4MzY5NDQsMCAwLDUuNzA4MzY5NDQgMCwxMi43NSBDMCwxOS43OTE2MzA2IDUuNzA4MzY5NDQsMjUuNSAxMi43NSwyNS41IEMxOS43OTE2MzA2LDI1LjUgMjUuNSwxOS43OTE2MzA2IDI1LjUsMTIuNzUgQzI1LjUsNS43MDgzNjk0NCAxOS43OTE2MzA2LDAgMTIuNzUsMCBaIE0xMi43NSwxLjUgQzE4Ljk2MzIwMzQsMS41IDI0LDYuNTM2Nzk2NTYgMjQsMTIuNzUgQzI0LDE4Ljk2MzIwMzQgMTguOTYzMjAzNCwyNCAxMi43NSwyNCBDNi41MzY3OTY1NiwyNCAxLjUsMTguOTYzMjAzNCAxLjUsMTIuNzUgQzEuNSw2LjUzNjc5NjU2IDYuNTM2Nzk2NTYsMS41IDEyLjc1LDEuNSBaIi8+JiN4YTs8cGF0aCBkPSJNMTcuNDgyMTUxLDkuMzkxMjM2MSBDMTcuNzc1MDQ0Miw5LjA5ODM0Mjg4IDE4LjI0OTkxNzksOS4wOTgzNDI4OCAxOC41NDI4MTExLDkuMzkxMjM2MSBDMTguODA5MDc3Nyw5LjY1NzUwMjY2IDE4LjgzMzI4MzgsMTAuMDc0MTY2MyAxOC42MTU0MjkzLDEwLjM2Nzc3NzggTDE4LjU0MjgxMTEsMTAuNDUxODk2MyBMMTEuMTU4MTk1OCwxNy44MzY1MTE3IEMxMC45MDEzNDI3LDE4LjA5MzM2NDcgMTAuNTAzMDAzOCwxOC4xMjU4MjQzIDEwLjIxMDQyOTQsMTcuOTI5Mzk1OSBMMTAuMTE3MTYwOSwxNy44NTU0MzYyIEw2Ljk4MjUzMjI1LDE0Ljk0MDgxNDMgQzYuNjc5MTg3MjgsMTQuNjU4NzU5OSA2LjY2MTkyNzg5LDE0LjE4NDE5OTkgNi45NDM5ODIzMiwxMy44ODA4NTQ5IEM3LjIwMDM5NTQ0LDEzLjYwNTA4NjggNy42MTU5MDQwNSwxMy41NjU3NTMgNy45MTcyMzk1MywxMy43NzI3OTIxIEw4LjAwMzk0MTcsMTMuODQyMzA1IEwxMC42MDgsMTYuMjY0IEwxNy40ODIxNTEsOS4zOTEyMzYxIFoiLz4mI3hhOzwvZz4mI3hhOzwvZz4mI3hhOzxnIGlkPSJpY29uLWZsb3ctZmFpbCIgZmlsbC1ydWxlPSJldmVub2RkIiBmaWxsPSJub25lIiBzdHJva2Utd2lkdGg9IjEiIHN0cm9rZT0ibm9uZSI+JiN4YTs8ZyBmaWxsLXJ1bGU9Im5vbnplcm8iIGZpbGw9IiNEMTMyMTIiIHRyYW5zZm9ybT0idHJhbnNsYXRlKDExLjI1MDAwMCwgMTIuMjUwMDAwKSI+JiN4YTs8cGF0aCBkPSJNMTIuNzUsMCBDNS43MDgzNjk0NCwwIDAsNS43MDgzNjk0NCAwLDEyLjc1IEMwLDE5Ljc5MTYzMDYgNS43MDgzNjk0NCwyNS41IDEyLjc1LDI1LjUgQzE5Ljc5MTYzMDYsMjUuNSAyNS41LDE5Ljc5MTYzMDYgMjUuNSwxMi43NSBDMjUuNSw1LjcwODM2OTQ0IDE5Ljc5MTYzMDYsMCAxMi43NSwwIFogTTEyLjc1LDEuNSBDMTguOTYzMjAzNCwxLjUgMjQsNi41MzY3OTY1NiAyNCwxMi43NSBDMjQsMTguOTYzMjAzNCAxOC45NjMyMDM0LDI0IDEyLjc1LDI0IEM2LjUzNjc5NjU2LDI0IDEuNSwxOC45NjMyMDM0IDEuNSwxMi43NSBDMS41LDYuNTM2Nzk2NTYgNi41MzY3OTY1NiwxLjUgMTIuNzUsMS41IFoiLz4mI3hhOzxwYXRoIGQ9Ik0xNi41ODMxNDAzLDguMjExMTYzNzcgQzE2Ljg3Njc1MTgsNy45OTMzMDkzMSAxNy4yOTM0MTU1LDguMDE3NTE1MzYgMTcuNTU5NjgyLDguMjgzNzgxOTMgQzE3LjgyNTk0ODYsOC41NTAwNDg0OSAxNy44NTAxNTQ3LDguOTY2NzEyMTcgMTcuNjMyMzAwMiw5LjI2MDMyMzY2IEwxNy41NTk2ODIsOS4zNDQ0NDIxIEwxMy42MjI0NjQsMTMuMjgyMTEyIEwxNy41NTk2ODIsMTcuMjE5NjY5OSBDMTcuODUyNTc1MywxNy41MTI1NjMxIDE3Ljg1MjU3NTMsMTcuOTg3NDM2OSAxNy41NTk2ODIsMTguMjgwMzMwMSBDMTcuMjkzNDE1NSwxOC41NDY1OTY2IDE2Ljg3Njc1MTgsMTguNTcwODAyNyAxNi41ODMxNDAzLDE4LjM1Mjk0ODIgTDE2LjQ5OTAyMTksMTguMjgwMzMwMSBMMTIuNTYxNDY0LDE0LjM0MzExMiBMOC42MjM3OTQwNiwxOC4yODAzMzAxIEw4LjUzOTY3NTYzLDE4LjM1Mjk0ODIgQzguMjQ2MDY0MTMsMTguNTcwODAyNyA3LjgyOTQwMDQ1LDE4LjU0NjU5NjYgNy41NjMxMzM4OSwxOC4yODAzMzAxIEM3LjI5Njg2NzMzLDE4LjAxNDA2MzUgNy4yNzI2NjEyOCwxNy41OTczOTk4IDcuNDkwNTE1NzQsMTcuMzAzNzg4MyBMNy41NjMxMzM4OSwxNy4yMTk2Njk5IEwxMS41MDA0NjQsMTMuMjgyMTEyIEw3LjU2MzEzMzg5LDkuMzQ0NDQyMSBDNy4yNzAyNDA2Nyw5LjA1MTU0ODg4IDcuMjcwMjQwNjcsOC41NzY2NzUxNCA3LjU2MzEzMzg5LDguMjgzNzgxOTMgQzcuODI5NDAwNDUsOC4wMTc1MTUzNiA4LjI0NjA2NDEzLDcuOTkzMzA5MzEgOC41Mzk2NzU2Myw4LjIxMTE2Mzc3IEw4LjYyMzc5NDA2LDguMjgzNzgxOTMgTDEyLjU2MTQ2NCwxMi4yMjExMTIgTDE2LjQ5OTAyMTksOC4yODM3ODE5MyBMMTYuNTgzMTQwMyw4LjIxMTE2Mzc3IFoiLz4mI3hhOzwvZz4mI3hhOzwvZz4mI3hhOzxnIGlkPSJpY29uLWZsb3ctczMtb2JqZWN0LWtleXMiIGZpbGwtcnVsZT0iZXZlbm9kZCIgZmlsbD0ibm9uZSIgc3Ryb2tlLXdpZHRoPSIxIiBzdHJva2U9Im5vbmUiPiYjeGE7PGcgZmlsbC1ydWxlPSJub256ZXJvIiBmaWxsPSIjRDEzMjEyIiB0cmFuc2Zvcm09InRyYW5zbGF0ZSg4LjI1LCA4LjI1MDAwMCkiPiYjeGE7PGcgZmlsbC1ydWxlPSJub256ZXJvIiBmaWxsPSIjMDA3M0JCIiBpZD0iR3JvdXAiPiYjeGE7PHBhdGggZmlsbD0iZmFsc2UiIGlkPSJQYXRoIiBkPSJNMy4xNDAyMjYyNSwxNC44NDI3MTgxIEwzLjA0ODM4OTU5LDE0LjgzNzQ2NSBMMi45Nzg4MjcwNywxNC44MjUzMTEgTDIuODk1MDMyMDYsMTQuODAwNzk1NSBMMi43ODg2MTE5NiwxNC43NTI0MDA3IEwyLjcxMjg4NjI3LDE0LjcwNDE4MTEgTDIuNjc0NzA0ODUsMTQuNjc0Njg0NSBMMi41ODgwNzU0MiwxNC41OTE2OTI0IEMxLjQ1MTk2Nzg3LDEzLjMzMDkxODggMC41OTk4ODcyMDEsMTIuMzg1MzM4NiAwLjAzMTgzMzQyNCwxMS43NTQ5NTE4IEMwLjAwMDM5OTM2NDU3NiwxMS43MjAwNjg0IC0wLjAwNzc1NDkxNjA1LDExLjcwNjUxMzEgMC4wMDczNzA1ODIxLDExLjcxNDI4NTcgTDAuMDA3MzcwNTgyMTEsOS40Mjg1NzE0MyBMMC4wNzU5MTk0NzY1LDkuMzc5NTA5MyBMMi4zNjE4NDgxOSwxMS45MTY1NzE0IEwyLjM2MTg0ODE5LDYuNTcxNDI4NTcgQzIuMzYxODQ4MTksMy4wMjY1MzExMSA0Ljg5MTE3OTMzLDAuMTM3MjE0ODQ0IDguMDU2MzUwNTIsMC4wMDQ3NDUyMzgyMyBMOC4yODM0ODk5OSwwIEwyMy43MzEyNTEyLDAgQzI2Ljg4MjcyMjEsMCAyOS40NjU4MDMyLDIuNzM0NjE4ODggMjkuNjQzMTc4NSw2LjE5MjAwMzI5IEwyOS42NTE5NDMsNi40NjQzMzA1NiBMMjkuNzU3MzcwNiwxNCBDMjkuNzU3MzcwNiwxNC40NzMzODY5IDI5LjI4Mzk0ODcsMTUgMjguODU3MzcwNiwxNSBDMjguNDMwNzkyNCwxNSAyOC4wNTczNzA2LDE0LjQ3MzM4NjkgMjguMDU3MzcwNiwxNCBDMjguMDkwNjk2MSwxMi44NzY4ODg1IDI4LjEwNzM1NjksMTEuODkxNjk3NyAyOC4xMDczNTMsMTEuMDQ0NDI3NyBDMjguMTA3MzQ4NCwxMC4wMjk3NDMyIDI4LjEwNzM0MTMsOC41MDc3MTY1MSAyOC4xMDczMzIsNi40NzgzNDc1OCBDMjguMDY0MDc0OCwzLjkxNTUxMTU1IDI2LjIzMzQ4NjcsMS41MjMyMzQwNyAyMy45NDY5MTI4LDEuNCBMMjMuNzMxMjUxMiwxLjQgTDguMjgzNDg5OTksMS40IEM1LjkzNzMxMDE4LDEuNCA0LjAyMjI5MDIxLDMuNzYyODY1MTYgMy45MTE2NzE1NCw2LjMzNjA5NTYyIEwzLjkwNjYyNDMxLDYuNTcxNDI4NTcgTDMuOTA2NjI0MzEsMTEuOTE1NDI4NiBMNi4xOTI1NTMwMyw5LjM3OTUwOTMgTDYuMjI3MjkxMjcsMTEuNzY1MzI1MyBMMy42ODAzOTcwOSwxNC41OTE2OTI0IEMzLjY0MTY0NjEzLDE0LjYzNDY5NTUgMy41OTk4MDIwNCwxNC42NzIxNzQgMy41NTU2NTk1OCwxNC43MDQxMjggTDMuNDc5NjQyODcsMTQuNzUyNTIxNSBMMy40MDAyMDExNCwxNC43OTA1NDMzIEwzLjMzMTU5MTc3LDE0LjgxNDQzNTcgTDMuMjU1NDkxNDgsMTQuODMyMTc3MyBMMy4xNDAyMjYyNSwxNC44NDI3MTgxIFoiLz4mI3hhOzxwYXRoIGZpbGw9ImZhbHNlIiBpZD0iUGF0aCIgZD0iTTI4Ljg3NDUxNDksMjAgTDI4Ljk5NTAyNjEsMjAuMDA4MjE4OCBMMjkuMDQ1MjIxMiwyMC4wMTcxNDE0IEwyOS4xMTMzNjg3LDIwLjAzNDcxMjMgTDI5LjE3MzkxOTQsMjAuMDU1OTg5NiBMMjkuMjQ2Mjk1LDIwLjA4OTE4OTYgTDI5LjM0MDAzNjMsMjAuMTQ3MDI5MyBMMjkuNDI2NjY1NywyMC4yMTk2NDc1IEwzMi4wNDcyMTUyLDIyLjc2NDIzOSBMMzIuMDI1NDUxMSwyNC44NTI5MjU4IEwzMS45Mzg4MjE3LDI0Ljc4MDMwNzcgTDI5LjY1Mjg5MywyMi41NjEgTDI5LjY1Mjg5MywyNy4yODg0NjE5IEMyOS42NTI4OTMsMzAuMzkwMjQ3MiAyNy4xMjM1NjE4LDMyLjkxODM5ODkgMjMuOTU4MzkwNiwzMy4wMzQzMDk4IEwyMy43MzEyNTEyLDMzLjAzODQ2MTkgTDguMjgzNDg5OTksMzMuMDM4NDYxOSBDNS4xNjY4MDA1MywzMy4wMzg0NjE5IDIuNjAwOTA2MDQsMzAuNjk2NDg2NCAyLjM3NzYwNzU1LDI3LjcxMDk0ODQgTDIuMzY0OTMyNjYsMjcuNDYxMDgxNSBMMi40NTczNzA1OCwyMSBDMi40NTczNzA1OCwyMC41ODU3ODY0IDIuODMwNzkyNDQsMjAgMy4yNTczNzA1OCwyMCBDMy42NDg0MDA1NSwyMCAzLjk1NjIyNTcsMjAuNjMzOTI0NCA0LjAwNzM3MDU4LDIxIEwzLjkwNjYyNDMxLDI1LjI4ODQ2MTkgTDMuOTA5MTc0MjksMjcuNDM1MTYxNCBDMy45ODYzMTY0LDI5LjY1MDQyNzggNS44MDY5MDczLDMxLjU5NDMxNDUgOC4wNzAwNjIzMywzMS43IEw4LjI4MzQ4OTk5LDMxLjcgTDIzLjczMTI1MTIsMzEuNyBDMjYuMDc3NDMxLDMxLjcgMjcuOTkyNDUxLDI5Ljc0NTk1NDkgMjguMTAzMDY5NiwyNy40OTQzNzgzIEwyOC4xMDgxMTY5LDI3LjI4ODQ2MTkgTDI4LjEwODExNjksMjIuNTYgTDI1Ljc1NzM3MDYsMjQuNzg4NDYxOSBMMjUuNzU3MzcwNiwyMi43ODg0NjE5IEwyOC4zMzQzNDQxLDIwLjIxOTY0NzUgTDI4LjQxMzk1MDksMjAuMTUyMTQ5NCBMMjguNTE0NzI1MiwyMC4wODkxODc3IEwyOC41ODY5ODcyLDIwLjA1NjAzMDcgTDI4LjY2NzAxNDUsMjAuMDI5MDUzMiBMMjguNzE1NzY1LDIwLjAxNzEzODEgTDI4Ljc4NDQ1MTUsMjAuMDA1NzY0OSBMMjguODc0NTE0OSwyMCBaIi8+JiN4YTs8L2c+JiN4YTs8ZyBmaWxsPSIjMTU2M0EwIiB0cmFuc2Zvcm09InRyYW5zbGF0ZSg3Ljc1NzM3MSwgOC4wMDAwMDApIiBpZD0iSWNvbi1SZXNvdXJjZS9TdG9yYWdlL1Jlc19BbWF6b24tU2ltcGxlLVN0b3JhZ2UtU2VydmljZV9CdWNrZXQtV2l0aC1PYmplY3RzXzQ4Ij4mI3hhOzxwYXRoIGZpbGw9ImZhbHNlIiBpZD0iQVdTLUFtYXpvbi1TaW1wbGUtU3RvcmFnZV9CdWNrZXQtd2l0aC1vYmplY3RzX1Jlc291cmNlLUljb25fbGlnaHQtYmciIGQ9Ik0xNS4xNjY3OSw5Ljg2OTIzNDA0IEwxNS4yNTY5MjgzLDkuMTkzNjE4OTYgQzE1Ljk3MTUzODMsOS42MzMzNjM1NyAxNi4xOTUyNTk5LDkuODg4OTI0MSAxNi4yNjEwMzY1LDkuOTk3NjI5NjIgQzE2LjA3MDIwMzIsMTAuMDU1MDU5IDE1LjY4NTI4ODMsMTAuMDAyOTYyMyAxNS4xNjY3OSw5Ljg2OTIzNDA0IEwxNS4xNjY3OSw5Ljg2OTIzNDA0IFogTTguMDQ2MjY3NTMsNy4zNjI0NDMwMyBDOC4wNTIzNTc5Niw3LjM2MjQ0MzAzIDguMDU2MDEyMjIsNy4zNjYxMzQ5MSA4LjA2MTI5MDU5LDcuMzY4NTk2MTcgTDguMDMzMjc0NjIsNy40MjYwMjU1MiBDOC4wMjAyODE3MSw3LjQyMjMzMzY0IDguMDA5NzI0OTYsNy40MTQ5NDk4NiA4LjAwOTcyNDk2LDcuMzk5MzYxOSBDOC4wMDk3MjQ5Niw3LjM3OTI2MTYyIDguMDI1OTY2MTEsNy4zNjI0NDMwMyA4LjA0NjI2NzUzLDcuMzYyNDQzMDMgWiBNMTMuNTc5MDUyMywxNS43NTA5MjYzIEMxMy41NzY2NDgxLDE1Ljc2ODk4ODkgMTMuNTc1NDQ2LDE1Ljc4NjY1IDEzLjU3NTQ0NiwxNS44MDQ3MTI1IEMxMy41NzU0NDYsMTUuODY1NzIzNyAxMy40MjQzODIzLDE2LjEwMDEzNSAxMi43NTI0MDksMTYuMzY2MjU2IEMxMi40NTI2ODU2LDE2LjQ4NDY2NTggMTIuMDk4ODY3OSwxNi41OTE0MzU0IDExLjcwMDE3MTcsMTYuNjgyOTUyMSBDMTAuNjcxOTc2NSwxNi45MjEzNzczIDkuNDA5NzcyNjIsMTcuMDUyNjMxNiA4LjE0Njc2NzM3LDE3LjA1MjYzMTYgQzQuNzY5NjcwODUsMTcuMDUyNjMxNiAyLjcxOTI5MDgzLDE2LjE4NjAzMjMgMi43MTkyOTA4MywxNS44MDQ3MTI1IEMyLjcxOTI5MDgzLDE1Ljc4NjY1IDIuNzE4MDg4NzMsMTUuNzY4OTg4OSAyLjcxNTY4NDUzLDE1Ljc1MDkyNjMgTDEuMTg0MjEwNTMsNC4zNTc4OTQ3NCBDMS4yODIzODE5NCw0LjQxNTI5MzQgMS4zODg1NjczNCw0LjQ3MDI4MzcyIDEuNDk5MTYwNDQsNC41MjM2Njg0OCBDMS41MjY4MDg3MSw0LjUzNzMxNTcyIDEuNTU3NjYyNTksNC41NTAxNjAxNyAxLjU4NjUxMjk2LDQuNTYzNDA2MDIgQzEuNjg1ODg2NDcsNC42MDkxNjQzOSAxLjc4OTI2Njk3LDQuNjUzNzE4NTkgMS44OTY2NTQ0OCw0LjY5NjY2NzI0IEMxLjkzOTkzMDA0LDQuNzEzOTI2OTcgMS45ODM2MDYzLDQuNzMwNzg1MzIgMi4wMjc2ODMyNiw0Ljc0NzY0MzY3IEMyLjE0MDI3OTg1LDQuNzkwMTkwOTMgMi4yNTY0ODI3NSw0LjgzMDczMTI0IDIuMzc2NjkyNjQsNC44NzAwNjczOCBDMi40MDg3NDg2MSw0Ljg4MDUwMzUgMi40Mzk2MDI0OCw0Ljg5MTc0MjQgMi40NzI0NTk4NSw0LjkwMjE3ODUyIEMyLjYyNTUyNzExLDQuOTUwMzQ1MjIgMi43ODM4MDM0Nyw0Ljk5NjEwMzYgMi45NDcyODg5Miw1LjAzOTg1NTAyIEMyLjk4ODU2MDk4LDUuMDUwNjkyNTMgMy4wMzE0MzU4NCw1LjA2MDcyNzI2IDMuMDczOTEsNS4wNzE1NjQ3NyBDMy4yMDIxMzM4OCw1LjEwNDQ3ODY4IDMuMzMzNTYzMzYsNS4xMzU3ODcwNCAzLjQ2Nzc5Nzc0LDUuMTY1NDg5ODUgQzMuNTIxMDkwNzksNS4xNzc1MzE1MiAzLjU3Mzk4MzE1LDUuMTg5MTcxODEgMy42MjgwNzc2LDUuMjAwODEyMSBDMy43NzcxMzc4Niw1LjIzMjEyMDQ2IDMuOTI4NjAyMzIsNS4yNjE4MjMyNiA0LjA4MjQ3MDk4LDUuMjkwMzIxODkgQzQuMTEzMzI0ODUsNS4yOTU1Mzk5NSA0LjE0MjU3NTkzLDUuMzAxOTYyMTggNC4xNzM0Mjk4LDUuMzA3MTgwMjQgQzQuMzU3NzUxNjMsNS4zMzk2OTI3NyA0LjU0NjA4MDQ2LDUuMzY5Mzk1NTcgNC43MzY4MTM0OCw1LjM5NzA5MTQzIEM0Ljc4ODEwMzA0LDUuNDA0NzE3ODIgNC44NDAxOTM5OSw1LjQxMTE0MDA1IDQuODkxODg0MjQsNS40MTgzNjUwNSBDNS4wMzg1NDAzMSw1LjQzODQzNDUyIDUuMTg1OTk3NzcsNS40NTcyOTk4MSA1LjMzNTQ1ODc0LDUuNDc0NTU5NTUgQzUuMzk0MzYxNTgsNS40ODEzODMxNiA1LjQ1Mjg2MzczLDUuNDg4MjA2NzggNS41MTE3NjY1OCw1LjQ5NDYyOTAxIEM1LjY5MDA3NzkxLDUuNTEzODk1NjkgNS44Njk1OTEzNSw1LjUzMTE1NTQzIDYuMDUwNzA3NTgsNS41NDY0MDgyMiBDNi4wNzE5NDQ2Nyw1LjU0ODQxNTE2IDYuMDkyNzgxMDUsNS41NTA0MjIxMSA2LjExNDAxODEzLDUuNTUyNDI5MDUgQzYuMzE1MTY5MzQsNS41Njg4ODYwMSA2LjUxNzkyMzM2LDUuNTgyMTMxODYgNi43MjE0Nzg3Nyw1LjU5MzM3MDc1IEM2Ljc3ODM3ODEyLDUuNTk2NTgxODcgNi44MzQ4NzY3Nyw1LjU5OTM5MTU5IDYuODkyMTc2ODIsNS42MDIyMDEzMiBDNy4wNDYwNDU0OCw1LjYwOTgyNzcxIDcuMTk5OTE0MTQsNS42MTYyNDk5NCA3LjM1Mzc4MjgsNS42MjEwNjY2MSBDNy40MTQyODg0NCw1LjYyMzA3MzU2IDcuNDczOTkyNjksNS42MjUwODA1IDcuNTM0NDk4MzMsNS42MjYyODQ2NyBDNy43Mzg4NTUxNCw1LjYzMTEwMTM0IDcuOTQzMjExOTYsNS42MzQ3MTM4NCA4LjE0Njc2NzM3LDUuNjM0NzEzODQgQzguMzUwMzIyNzksNS42MzQ3MTM4NCA4LjU1NDI3ODksNS42MzExMDEzNCA4Ljc1OTAzNjQxLDUuNjI2Mjg0NjcgQzguODE5NTQyMDYsNS42MjUwODA1IDguODc5MjQ2Myw1LjYyMzA3MzU2IDguOTM5MzUxMjUsNS42MjEwNjY2MSBDOS4wOTM2MjA2MSw1LjYxNjI0OTk0IDkuMjQ3ODg5OTcsNS42MDk4Mjc3MSA5LjQwMTc1ODYzLDUuNjAyMjAxMzIgQzkuNDU4NjU3OTcsNS41OTkzOTE1OSA5LjUxNTE1NjYyLDUuNTk2NTgxODcgOS41NzIwNTU5Nyw1LjU5MzM3MDc1IEM5Ljc3NTYxMTM4LDUuNTgyMTMxODYgOS45Nzg3NjYxLDUuNTY4ODg2MDEgMTAuMTgwMzE4LDUuNTUyNDI5MDUgQzEwLjIwMDc1MzcsNS41NTA0MjIxMSAxMC4yMjAzODgsNS41NDg0MTUxNiAxMC4yNDA0MjMsNS41NDY4MDk2IEMxMC40MjI3NDEzLDUuNTMxNTU2ODEgMTAuNjAzNDU2OCw1LjUxMzg5NTY5IDEwLjc4MjU2OTYsNS40OTQyMjc2MiBDMTAuODQxNDcyNCw1LjQ4ODIwNjc4IDEwLjg5OTE3MzIsNS40ODEzODMxNiAxMC45NTcyNzQ2LDUuNDc0OTYwOTMgQzExLjEwNzkzNzcsNS40NTcyOTk4MSAxMS4yNTY5OTc5LDUuNDM4NDM0NTIgMTEuNDA0NDU1NCw1LjQxNzk2MzY3IEMxMS40NTQ5NDM2LDUuNDEwNzM4NjYgMTEuNTA1ODMyNCw1LjQwNDcxNzgyIDExLjU1NjMyMDYsNS4zOTcwOTE0MyBDMTEuNzQ3ODU1LDUuMzY5Mzk1NTcgMTEuOTM2OTg1Miw1LjMzOTY5Mjc3IDEyLjEyMjEwODQsNS4zMDcxODAyNCBDMTIuMTUwNTU4MSw1LjMwMTk2MjE4IDEyLjE3ODIwNjQsNS4yOTU5NDEzNCAxMi4yMDcwNTY4LDUuMjkxMTI0NjcgQzEyLjM2MzMyOTYsNS4yNjIyMjQ2NSAxMi41MTY3OTc2LDUuMjMyMTIwNDYgMTIuNjY3ODYxMyw1LjIwMDQxMDcxIEMxMi43MjA3NTM3LDUuMTg5MTcxODEgMTIuNzcyODQ0Niw1LjE3NzUzMTUyIDEyLjgyNDkzNTYsNS4xNjU4OTEyNCBDMTIuOTYwNzcyOCw1LjEzNTc4NzA0IDEzLjA5MzgwNTEsNS4xMDQwNzczIDEzLjIyMzYzMTcsNS4wNzA3NjE5OSBDMTMuMjY0MTAyNCw1LjA2MDMyNTg3IDEzLjMwNTc3NTIsNS4wNTA2OTI1MyAxMy4zNDYyNDU4LDUuMDM5ODU1MDIgQzEzLjUxMDEzMiw0Ljk5NjEwMzYgMTMuNjY5NjEwNCw0Ljk1MDM0NTIyIDEzLjgyMzA3ODQsNC45MDE3NzcxMyBDMTMuODU0MzMzLDQuODkxNzQyNCAxMy44ODM1ODQsNC44ODEzMDYyOCAxMy45MTQ0Mzc5LDQuODcxMjcxNTUgQzE0LjAzNjI1MDYsNC44MzExMzI2MyAxNC4xNTQ0NTcsNC43OTAxOTA5MyAxNC4yNjgyNTU3LDQuNzQ2ODQwODkgQzE0LjMxMTUzMTIsNC43MzA3ODUzMiAxNC4zNTQwMDU0LDQuNzEzOTI2OTcgMTQuMzk2MDc4OSw0LjY5NzQ3MDAyIEMxNC41MDUwNjkyLDQuNjU0MTE5OTggMTQuNjEwMDUyNSw0LjYwODc2MyAxNC43MTAyMjc0LDQuNTYyMjAxODUgQzE0LjczNzg3NTcsNC41NDkzNTczOSAxNC43Njc1Mjc0LDQuNTM3MzE1NzIgMTQuNzk0Nzc1LDQuNTI0MDY5ODcgQzE0LjkwNTc2ODgsNC40NzA2ODUxMSAxNS4wMTE5NTQyLDQuNDE1MjkzNCAxNS4xMTA1MjYzLDQuMzU3ODk0NzQgTDE0LjM5NjQ3OTYsOS42NzEwODM4MyBDMTIuOTQ1NTQ2Miw5LjIwNDY2OTU2IDEwLjkwODM4OTMsOC4zNTg5NDI0OCA4Ljk4MDYyMzMxLDcuNDQwNTYzOTQgQzguOTU3NzgzNDMsNi45OTc4MzE2MyA4LjU5NDc0OTU2LDYuNjQzODA2MzQgOC4xNDcxNjgwNyw2LjY0MzgwNjM0IEM3LjY4NTU2MjA5LDYuNjQzODA2MzQgNy4zMDk3MDU4NCw3LjAxOTkwODA0IDcuMzA5NzA1ODQsNy40ODI3MDk4MSBDNy4zMDk3MDU4NCw3Ljk0NTkxMjk3IDcuNjg1NTYyMDksOC4zMjIwMTQ2NyA4LjE0NzE2ODA3LDguMzIyMDE0NjcgQzguMzI4Mjg0MzEsOC4zMjIwMTQ2NyA4LjQ5NTM3NjA1LDguMjYzMDEwNDUgOC42MzI0MTUzMyw4LjE2NDY3MDA5IEMxMC4zNjA2MzI5LDguOTk0NzQzIDEyLjU2NjA4MzYsOS45NzQ1MzQwOCAxNC4yODgyOTA3LDEwLjQ3MjY1ODEgTDEzLjU3OTA1MjMsMTUuNzUwOTI2MyBaIE04LjA1MjIzMjc0LDEuMTM2ODQyMTEgQzEyLjE4ODk1OTYsMS4xMzY4NDIxMSAxNS4xMDM2NTMsMi4yNjU3NzEwNiAxNS4xNTc4OTQ3LDIuODkyNDQ2MTQgTDE1LjE0NzUyNSwyLjk2NTIwMDkgQzE1LjEzOTk0NzEsMi45ODY2NDA3MSAxNS4xMjQzOTI1LDMuMDA5MTM0OTMgMTUuMTExMjMwOSwzLjAzMTI3NzY5IEMxNS4xMDA0NjI0LDMuMDQ5MjAyNzcgMTUuMDkyODg0NSwzLjA2NzEyNzg2IDE1LjA3ODUyNjQsMy4wODUwNTI5NCBDMTUuMDYwNTc4OCwzLjEwNzU0NzE3IDE1LjAzNDY1NDQsMy4xMzAwNDE0IDE1LjAxMDcyNDMsMy4xNTI4ODcwOSBDMTQuOTkwNzgyNSwzLjE3MTE2MzY1IDE0Ljk3NDgyOSwzLjE4OTc5MTY4IDE0Ljk1MTY5NjUsMy4yMDg0MTk3MSBDMTQuOTIyOTgwMywzLjIzMTI2NTQxIDE0Ljg4NzA4NTEsMy4yNTQxMTExMSAxNC44NTMxODQsMy4yNzY5NTY4MSBDMTQuODI0NDY3OCwzLjI5NjI4Nzc4IDE0Ljc5OTc0LDMuMzE1MjY3MjkgMTQuNzY3ODMzMSwzLjMzNDI0Njc5IEMxNC43Mjk1NDQ5LDMuMzU3MDkyNDkgMTQuNjg0MDc3NiwzLjM3OTkzODE5IDE0LjY0MDIwNTYsMy40MDI3ODM4OCBDMTQuNjAzNTEyNywzLjQyMjExNDg2IDE0LjU2OTYxMTcsMy40NDE3OTczMSAxNC41Mjg1MzE1LDMuNDYxMTI4MjggQzE0LjQ4MTg2NzcsMy40ODMyNzEwNCAxNC40Mjc2MjYsMy41MDU3NjUyNiAxNC4zNzU3Nzc0LDMuNTI3NTU2NTQgQzE0LjMyOTUxMjQsMy41NDc1OTA0NiAxNC4yODY4MzY5LDMuNTY3MjcyOTEgMTQuMjM2NTgzNiwzLjU4Njk1NTM2IEMxNC4xODExNDU0LDMuNjA4NzQ2NjQgMTQuMTE4NTI4MSwzLjYyOTgzNDk4IDE0LjA1ODMwMzksMy42NTE2MjYyNiBDMTQuMDA0MDYyMiwzLjY3MDk1NzIzIDEzLjk1MjIxMzUsMy42OTA5OTExNSAxMy44OTM1ODQ2LDMuNzEwMzIyMTMgQzEzLjgyOTM3MjEsMy43MzE0MTA0NiAxMy43NTgzNzkyLDMuNzUyMTQ3MzMgMTMuNjg5Nzc5NSwzLjc3MjUzMjcyIEMxMy42MjY3NjM0LDMuNzkxNTEyMjIgMTMuNTY3MzM2OCwzLjgxMTE5NDY3IDEzLjUwMTEzLDMuODI5ODIyNyBDMTMuNDI5MzM5NiwzLjg0OTUwNTE1IDEzLjM1MDc2ODksMy44Njg4MzYxMiAxMy4yNzQ5OSwzLjg4ODUxODU3IEMxMy4yMDM1OTg0LDMuOTA2NDQzNjYgMTMuMTM1Nzk2MywzLjkyNTQyMzE2IDEzLjA2MTIxMzksMy45NDI5OTY3OCBDMTIuOTgyMjQ0NCwzLjk2MTk3NjI4IDEyLjg5Njg5MzUsMy45NzkxOTg0MiAxMi44MTQzMzQ1LDMuOTk3MTIzNTEgQzEyLjczNDk2NjEsNC4wMTQ2OTcxMiAxMi42NTgzODk2LDQuMDMyOTczNjggMTIuNTc1MDMyOSw0LjA0OTQ5Mjg4IEMxMi40ODkyODMxLDQuMDY2MzYzNTUgMTIuMzk2MzU0Myw0LjA4MjUzMTI3IDEyLjMwNzAxNTEsNC4wOTg2OTg5OSBDMTIuMjIwMDY4OCw0LjExNDg2NjcyIDEyLjEzNjMxMzMsNC4xMzEzODU5MiAxMi4wNDYxNzYzLDQuMTQ2NDk5MjIgQzExLjk0OTY1OCw0LjE2MjY2Njk1IDExLjg0NzE1NzIsNC4xNzcwNzczMSAxMS43NDcwNDk0LDQuMTkyMTkwNjIgQzExLjY1NjExNDcsNC4yMDU4OTgwNCAxMS41NjgzNzA4LDQuMjIwNjU5ODggMTEuNDc1MDQzMiw0LjIzMzMxMjg4IEMxMS4zNjg5NTI4LDQuMjQ3NzIzMjQgMTEuMjU2ODc5OSw0LjI2MDAyNDc3IDExLjE0NzIsNC4yNzMzODA3MiBDMTEuMDUyMjc3MSw0LjI4NDYyNzgzIDEwLjk2MDU0NDgsNC4yOTc2MzIzIDEwLjg2MzIyODgsNC4zMDc4MjUgQzEwLjc0OTE2MTcsNC4zMjAxMjY1MyAxMC42Mjg3MTMyLDQuMzI5OTY3NzUgMTAuNTEwNjU3OCw0LjM0MTIxNDg3IEMxMC40MTEzNDc2LDQuMzUwMzUzMTUgMTAuMzE1MjI4MSw0LjM2MDU0NTg0IDEwLjIxMzEyNjEsNC4zNjg5ODExOCBDMTAuMDgzOTAzMyw0LjM3OTE3Mzg3IDkuOTQ4Mjk5MDQsNC4zODY1NTQ3OSA5LjgxNTA4NzgyLDQuMzk1MzQxNiBDOS43MTg5NjgzNCw0LjQwMTMxNjYzIDkuNjI1NjQwNzIsNC40MDkwNDkwMiA5LjUyNzEyODIzLDQuNDE0MzIxMSBDOS4zNzU1NzA1Niw0LjQyMjQwNDk2IDkuMjE4MDMwMzQsNC40MjczMjU1NyA5LjA2MTI4NzgsNC40MzI1OTc2NiBDOC45NzU1MzgwNiw0LjQzNTc2MDkxIDguODkyOTc5MDEsNC40NDA2ODE1MiA4LjgwNjAzMjc2LDQuNDQyNzkwMzYgQzguNTU5OTUwOTYsNC40NDkxMTY4NiA4LjMwODI4NTQ1LDQuNDUyNjMxNTggOC4wNTIyMzI3NCw0LjQ1MjYzMTU4IEM3Ljc5NTM4MjM3LDQuNDUyNjMxNTggNy41NDQxMTU2OSw0LjQ0OTExNjg2IDcuMjk4NDMyNzIsNC40NDI3OTAzNiBDNy4yMTQyNzgzMyw0LjQ0MDY4MTUyIDcuMTM0MTEyMjksNC40MzU3NjA5MSA3LjA1MTE1NDQxLDQuNDMyOTQ5MTMgQzYuODkyMDE4ODUsNC40Mjc2NzcwNSA2LjczMTI4Nzk0LDQuNDIyNDA0OTYgNi41NzczMzcyNSw0LjQxNDMyMTEgQzYuNDgzMjExOTYsNC40MDk0MDA0OSA2LjM5NTA2OTIxLDQuNDAyMDE5NTcgNi4zMDMzMzY5Myw0LjM5NjM5NjAxIEM2LjE2NDk0MDg0LDQuMzg3MjU3NzQgNi4wMjQ5NDk0MSw0LjM3OTUyNTM1IDUuODkwOTQwNTEsNC4zNjg5ODExOCBDNS43OTQ4MjEwNCw0LjM2MDg5NzMxIDUuNzAzODg2NDQsNC4zNTE0MDc1NiA1LjYxMDE1OTk4LDQuMzQyNjIwNzYgQzUuNDg2NTIwODIsNC4zMzEwMjIxNyA1LjM2MDQ4ODY1LDQuMzIwODI5NDcgNS4yNDA4Mzc4NSw0LjMwNzgyNSBDNS4xNDk1MDQ0MSw0LjI5ODMzNTI1IDUuMDYzNzU0NjcsNC4yODYwMzM3MiA0Ljk3NDQxNTQxLDQuMjc1NDg5NTUgQzQuODU4MzU0MTQsNC4yNjE0MzA2NiA0Ljc0MDI5ODY4LDQuMjQ4NDI2MTkgNC42MjkwMjM0NCw0LjIzMzMxMjg4IEM0LjU0MTI3OTUyLDQuMjIxMzYyODIgNC40NTk1MTgxNSw0LjIwNzY1NTQgNC4zNzQ1NjYwOCw0LjE5NTAwMjQgQzQuMjY4ODc0NTQsNC4xNzg4MzQ2NyA0LjE1OTk5MjMyLDQuMTYzNzIxMzcgNC4wNTc4OTAzMSw0LjE0NjQ5OTIyIEMzLjk3MjUzOTQsNC4xMzIwODg4NiAzLjg5MzU2OTg4LDQuMTE2MjcyNjEgMy44MTE0MDk2Niw0LjEwMTUxMDc3IEMzLjcxNjg4NTUzLDQuMDgzOTM3MTYgMy42MTk1Njk1NSw0LjA2NzQxNzk2IDMuNTI5MDMzNzgsNC4wNDk0OTI4OCBDMy40NTA0NjMwOSw0LjAzMzY3NjYyIDMuMzc3ODc0OTQsNC4wMTY0NTQ0OCAzLjMwMjQ5NDk0LDMuOTk5OTM1MjggQzMuMjE1MTQ5ODYsMy45ODA5NTU3OCAzLjEyNTQxMTc2LDMuOTYyMzI3NzUgMy4wNDI4NTI3MSwzLjk0Mjk5Njc4IEMyLjk3MjI1ODc0LDMuOTI2MTI2MTEgMi45MDc2NDczMSwzLjkwNzg0OTU1IDIuODM5ODQ1MTksMy44OTA2Mjc0MSBDMi43NjAwNzc5OSwzLjg3MDI0MjAxIDIuNjc3OTE3NzgsMy44NTAyMDgwOSAyLjYwMzMzNTQ1LDMuODI5NDcxMjMgQzIuNTM5NTIxNjksMy44MTE1NDYxNCAyLjQ4MjA4OTMxLDMuNzkyOTE4MTEgMi40MjE4NjUwOCwzLjc3NDY0MTU1IEMyLjM1MDg3MjI3LDMuNzUzMjAxNzUgMi4yNzcwODc2MSwzLjczMTc2MTk0IDIuMjEwODgwODQsMy43MTAzMjIxMyBDMi4xNTQ2NDQ5NiwzLjY5MTM0MjYyIDIuMTA1MTg5MywzLjY3MjM2MzEyIDIuMDUyMTQ0MTEsMy42NTM3MzUwOSBDMS45OTAzMjQ1MywzLjYzMTI0MDg2IDEuOTI1MzE0MjcsMy42MDk0NDk1OCAxLjg2ODI4MDcyLDMuNTg2NjAzODkgQzEuODE5NjIyNzMsMy41Njc2MjQzOCAxLjc3Nzc0NDk1LDMuNTQ4MjkzNDEgMS43MzI2NzY0OCwzLjUyODk2MjQzIEMxLjY3OTYzMTMsMy41MDY0NjgyMSAxLjYyNDE5MzEsMy40ODM2MjI1MSAxLjU3NjczMTYxLDMuNDYxMTI4MjggQzEuNTM2MDUwMzQsMy40NDE3OTczMSAxLjUwMjk0Njk1LDMuNDIyNDY2MzMgMS40NjYyNTQwNCwzLjQwMzQ4NjgzIEMxLjQyMjM4MjA4LDMuMzgwMjg5NjYgMS4zNzYxMTcxMSwzLjM1NzQ0Mzk2IDEuMzM3NDMwMDIsMy4zMzQyNDY3OSBDMS4zMDU5MjE5OCwzLjMxNTI2NzI5IDEuMjgwNzk1MzEsMy4yOTYyODc3OCAxLjI1Mjg3Njc5LDMuMjc3MzA4MjggQzEuMjE4OTc1NzMsMy4yNTQ0NjI1OCAxLjE4MjI4MjgyLDMuMjMxMjY1NDEgMS4xNTM5NjU0NiwzLjIwODQxOTcxIEMxLjEzMDQzNDE0LDMuMTg5NzkxNjggMS4xMTQwODE4NiwzLjE3MTE2MzY1IDEuMDk0OTM3NzQsMy4xNTI4ODcwOSBDMS4wNzEwMDc1OCwzLjEzMDA0MTQgMS4wNDUwODMyNCwzLjEwNzU0NzE3IDEuMDI3MTM1NjIsMy4wODUwNTI5NCBDMS4wMTIzNzg2OSwzLjA2NzEyNzg2IDEuMDA0ODAwOCwzLjA0OTIwMjc3IDAuOTk0NDMxMDY4LDMuMDMxMjc3NjkgQzAuOTgwODcwNjQ0LDMuMDA5MTM0OTMgMC45NjQ5MTcyMDUsMi45ODY2NDA3MSAwLjk1ODEzNjk5MywyLjk2NTIwMDkgTDAuOTQ3MzY4NDIxLDIuODkyNDQ2MTQgQzEuMDAyMDA4OTUsMi4yNjU3NzEwNiAzLjkxNjMwMzUzLDEuMTM2ODQyMTEgOC4wNTIyMzI3NCwxLjEzNjg0MjExIEw4LjA1MjIzMjc0LDEuMTM2ODQyMTEgWiBNMTUuMzc0MjcwNiw4LjMxMjA3ODQgTDE2LjA2ODU3OTQsMy4xMDQwNTY1MiBMMTYuMDY4NTc5NCwzLjEwMjQxNTY4IEwxNi4wODg4ODA4LDIuOTQzMjU0MzMgQzE2LjA5MTMxNywyLjkyNTYxNTMxIDE2LjA5MjUzNTEsMi45MDc1NjYwOSAxNi4wOTI1MzUxLDIuODg5OTI3MDcgQzE2LjA5MjUzNTEsMS4xODcxNDY3NiAxMS44NTE5NzMsMCA4LjA0NTg2MTUsMCBDNC4yNDA1NjIwNSwwIDAsMS4xODcxNDY3NiAwLDIuODg5OTI3MDcgQzAsMi45MDc1NjYwOSAwLjAwMTIxODA4NTYxLDIuOTI1NjE1MzEgMC4wMDM2NTQyNTY4NCwyLjk0MzI1NDMzIEwwLjAyNDM2MTcxMjMsMy4xMDI0MTU2OCBMMC4wMjQzNjE3MTIzLDMuMTAyODI1ODkgTDEuNzM0NTUzOTEsMTUuOTM1ODI1IEMxLjc4ODE0OTY4LDE3LjQzODgzMzIgNS42MjI2ODMxOSwxOCA4LjA0NTg2MTUsMTggQzkuMzg1MzQ5NjUsMTggMTAuNzI4ODk4MSwxNy44NTg4ODc5IDExLjgyOTIzNTQsMTcuNjAxNjg2NCBDMTIuMjcyMjEyNiwxNy40OTg3MjM4IDEyLjY2OTcxNDUsMTcuMzc3MzAxNyAxMy4wMTExODQ1LDE3LjI0MTExMjEgQzEzLjg4NzgwMDEsMTYuODkwNzkzMSAxNC4zNDA1MjE5LDE2LjQ1MTg2ODcgMTQuMzU4Mzg3MiwxNS45MzU4MjUgTDE1LjA2MTYyODYsMTAuNjU2ODM2OCBDMTUuNDQ1NzMxNiwxMC43Mzg4Nzg4IDE1Ljc5NTMyMjIsMTAuNzg4OTI0MyAxNi4wODYwMzg2LDEwLjc4ODkyNDMgQzE2LjQ3Nzg1NjEsMTAuNzg4OTI0MyAxNi43NzE0MTQ4LDEwLjcwNTI0MTYgMTYuOTMwMTcxOSwxMC41MTM2NzM3IEMxNy4wNzE0Njk5LDEwLjM0MzQzNjYgMTcuMTI3NTAxOCwxMC4xMjg4OTcgMTcuMDg3MzA1LDkuOTA5ODQ1MDMgQzE3LjAwMTIyNjksOS40NDAxNTQ5NyAxNi40NjU2NzUzLDguOTQyNTcwNjUgMTUuMzc0MjcwNiw4LjMxMjA3ODQgWiBNMy45MTk3OTk1LDEwLjAyMTQyMjEgTDQuOTczODQ5NTksOC4yNDY0NDQ4NSBMNi4wMjc4OTk2NywxMC4wMjE0MjIxIEwzLjkxOTc5OTUsMTAuMDIxNDIyMSBaIE03LjA5ODU5NjkzLDEwLjYzMzQ1NDkgQzcuMTcwODcsMTAuNTA1MDU5MyA3LjE2ODgzOTg2LDEwLjM0NzEyODUgNy4wOTMzMTg1NSwxMC4yMjAzNzM3IEw1LjMyMTgxNjA0LDcuMjM4MTQ5NSBDNS4xNzUyMzk3NCw2Ljk5MTIwMzI4IDQuNzcyMDUzNCw2Ljk5MTIwMzI4IDQuNjI1NDc3MSw3LjIzODE0OTUgTDIuODU0MzgwNjIsMTAuMjIwMzczNyBDMi43Nzg4NTkzMSwxMC4zNDc1Mzg3IDIuNzc2ODI5MTcsMTAuNTA1MDU5MyAyLjg0OTEwMjI1LDEwLjYzMzg2NTEgQzIuOTIxMzc1MzMsMTAuNzYyNjcwOSAzLjA1NjE3NjgsMTAuODQxODQxNCAzLjIwMjM0NzA4LDEwLjg0MTg0MTQgTDYuNzQ1MzUyMSwxMC44NDE4NDE0IEM2Ljg5MTUyMjM3LDEwLjg0MTg0MTQgNy4wMjYzMjM4NSwxMC43NjI2NzA5IDcuMDk4NTk2OTMsMTAuNjMzNDU0OSBMNy4wOTg1OTY5MywxMC42MzM0NTQ5IFogTTEwLjgxOTAzNjQsMTEuMTk5NTQ0MiBDMTEuNDczOTYwNCwxMS4xOTk1NDQyIDEyLjAwNzA3NTksMTEuNzQyMjUxNiAxMi4wMDcwNzU5LDEyLjQwOTY2MjcgQzEyLjAwNzA3NTksMTMuMDc2NjYzNiAxMS40NzM5NjA0LDEzLjYxOTc4MTIgMTAuODE5MDM2NCwxMy42MTk3ODEyIEMxMC4xNjQxMTI0LDEzLjYxOTc4MTIgOS42MzA5OTY5MSwxMy4wNzY2NjM2IDkuNjMwOTk2OTEsMTIuNDA5NjYyNyBDOS42MzA5OTY5MSwxMS43NDIyNTE2IDEwLjE2NDExMjQsMTEuMTk5NTQ0MiAxMC44MTkwMzY0LDExLjE5OTU0NDIgTDEwLjgxOTAzNjQsMTEuMTk5NTQ0MiBaIE0xMC44MTkwMzY0LDE0LjQ0MDIwMDUgQzExLjkyMTgwOTksMTQuNDQwMjAwNSAxMi44MTkxMzMsMTMuNTI5NTM1MSAxMi44MTkxMzMsMTIuNDA5NjYyNyBDMTIuODE5MTMzLDExLjI5MDIwMDUgMTEuOTIxODA5OSwxMC4zNzkxMjQ5IDEwLjgxOTAzNjQsMTAuMzc5MTI0OSBDOS43MTYyNjI5MSwxMC4zNzkxMjQ5IDguODE4OTM5ODQsMTEuMjkwMjAwNSA4LjgxODkzOTg0LDEyLjQwOTY2MjcgQzguODE4OTM5ODQsMTMuNTI5NTM1MSA5LjcxNjI2MjkxLDE0LjQ0MDIwMDUgMTAuODE5MDM2NCwxNC40NDAyMDA1IEwxMC44MTkwMzY0LDE0LjQ0MDIwMDUgWiBNNy4xMDM4NzUzLDEyLjE2ODg2OTYgQzcuMzI4MDAzMDUsMTIuMTY4ODY5NiA3LjUwOTkwMzgzLDEyLjM1MjY0MzYgNy41MDk5MDM4MywxMi41NzkwNzkzIEw3LjUwOTkwMzgzLDEyLjU3OTA3OTMgTDcuNTA5OTAzODMsMTUuNDQyMzQyOCBDNy41MDk5MDM4MywxNS42NjkxODg3IDcuMzI4MDAzMDUsMTUuODUyNTUyNCA3LjEwMzg3NTMsMTUuODUyNTUyNCBMNy4xMDM4NzUzLDE1Ljg1MjU1MjQgTDQuMzAzMDkwNDQsMTUuODUyNTUyNCBDNC4wNzg1NTY2NiwxNS44NTI1NTI0IDMuODk3MDYxOTEsMTUuNjY5MTg4NyAzLjg5NzA2MTkxLDE1LjQ0MjM0MjggTDMuODk3MDYxOTEsMTUuNDQyMzQyOCBMMy44OTcwNjE5MSwxMi41NzkwNzkzIEMzLjg5NzA2MTkxLDEyLjM1MjY0MzYgNC4wNzg1NTY2NiwxMi4xNjg4Njk2IDQuMzAzMDkwNDQsMTIuMTY4ODY5NiBMNC4zMDMwOTA0NCwxMi4xNjg4Njk2IFogTTYuNjk3ODQ2NzYsMTIuOTg5Njk5MiBMNC43MDk1MjUwMSwxMi45ODk2OTkyIEw0LjcwOTUyNTAxLDE1LjAzMjEzMzEgTDYuNjk3ODQ2NzYsMTUuMDMyMTMzMSBMNi42OTc4NDY3NiwxMi45ODk2OTkyIFoiLz4mI3hhOzwvZz4mI3hhOzwvZz4mI3hhOzwvZz4mI3hhOzxnIGlkPSJpY29uLXNlcnZpY2UtczMiIGZpbGwtcnVsZT0iZXZlbm9kZCIgZmlsbD0ibm9uZSIgc3Ryb2tlLXdpZHRoPSIxIiBzdHJva2U9Im5vbmUiPiYjeGE7PHBvbHlnb24gcG9pbnRzPSIwIDAgNDggMCA0OCA0OCAwIDQ4IiBmaWxsLXJ1bGU9Im5vbnplcm8iIGZpbGw9InVybCgjZ3JhZGllbnQtZ3JlZW4pIi8+JiN4YTs8ZyB0cmFuc2Zvcm09InRyYW5zbGF0ZSg4IDgpIHNjYWxlKDAuMDMzMjI5NDkxMTczNDE2NDA2KSI+JiN4YTs8cGF0aCBmaWxsPSIjRkZGRkZGIiBkPSJNODU0LjYgNTgwLjRMODYyIDUzMi4yQzkyNS4xIDU2OS44IDkyNi4zIDU4NS43IDkyNi4yIDU4Ni4zIDkyNiA1ODYuNCA5MTQuNyA1OTUuMiA4NTQuNiA1ODAuNEw4NTQuNiA1ODAuNFpNNDc3LjQgNDQyLjFDNDc3LjQgNDYyLjQgNDYwLjkgNDc5IDQ0MC42IDQ3OSA0MjAuNCA0NzkgNDAzLjkgNDYyLjQgNDAzLjkgNDQyLjEgNDAzLjkgNDIxLjggNDIwLjQgNDA1LjMgNDQwLjYgNDA1LjMgNDYwLjkgNDA1LjMgNDc3LjQgNDIxLjggNDc3LjQgNDQyLjFMNDc3LjQgNDQyLjFaTTc2OC44IDg5OC44Qzc2OC44IDkwMy40IDc1MC41IDkxMC4zIDczNC40IDkxNi41TDcxNy45IDkyMi44QzcwMC4zIDkyOS44IDY3OS41IDkzNi4xIDY1Ni4xIDk0MS41IDU5Ny43IDk1NSA1MTcuMiA5NjMuMiA0NDAuNiA5NjMuMiAyMzYuOCA5NjMuMiAxMjguMiA5MjUuOCAxMjguMSA4OTYuNUw0Ni41IDI0My40QzExNi44IDI5Ny4yIDI2MS4zIDMzMS42IDQ0MC42IDMzMS42IDYxMi4xIDMzMS42IDc4Ny41IDI5OC40IDg2OS43IDI0MEw4MTkuMSA1NzAuNEM3MTIuNyA1MzggNTgyLjMgNDc1LjYgNTE3LjkgNDQ0LjZMNTE0IDQ0Mi43QzUxNCA0NDIuNSA1MTQuMSA0NDIuMyA1MTQuMSA0NDIuMSA1MTQuMSA0MDEuNSA0ODEuMSAzNjguNCA0NDAuNiAzNjguNCA0MDAuMSAzNjguNCAzNjcuMiA0MDEuNSAzNjcuMiA0NDIuMSAzNjcuMiA0ODIuOCA0MDAuMSA1MTUuOCA0NDAuNiA1MTUuOCA0NjcuOCA1MTUuOCA0OTEuMiA1MDAuOCA1MDQgNDc4LjcgNTcwLjkgNTEwLjkgNzA0LjQgNTc0LjcgODEzLjUgNjA3LjJMNzY4LjggODk4LjhaTTQ0MC42IDM2LjhDNjg3LjkgMzYuOCA4NzkuOCAxMDUuNyA4ODEuMiAxNjUuMkw4ODAuMyAxNzAuN0M4NzAuMyAyMjkuMSA2ODIuMSAyOTQuOCA0NDAuNiAyOTQuOCAyMDQuMSAyOTQuOCA0NCAyMzAuOSAzNy4zIDE2OS43TDM2LjggMTY1LjNDMzcuNiAxMDMuMiAxOTkuNiAzNi44IDQ0MC42IDM2LjhMNDQwLjYgMzYuOFpNODY4IDQ5My4xTDkxNy44IDE2OC42QzkxNy44IDE2Ny43IDkxOCAxNjYuOCA5MTggMTY1LjggOTE4IDYyIDY3NS4zIDAgNDQwLjYgMCAxODUuMyAwIDAgNjkuNyAwIDE2NS44IDAgMTY2LjYgMC4xIDE2Ny4zIDAuMSAxNjguMUw5MS41IDg5OC44QzkxLjUgOTk1LjEgMzgyLjMgMTAwMCA0NDAuNiAxMDAwIDUxOS44IDEwMDAgNjAzLjQgOTkxLjYgNjY0LjMgOTc3LjQgNjg5LjUgOTcxLjYgNzEyLjEgOTY0LjggNzMxLjQgOTU3LjFMNzQ3LjQgOTUwLjlDNzc4LjYgOTM5IDgwNS41IDkyOC44IDgwNS4zIDkwMS42TDg0OSA2MTdDODczLjMgNjIyLjkgODkzLjMgNjI1LjkgOTA5LjMgNjI1LjkgOTMwLjggNjI1LjkgOTQ1LjQgNjIwLjYgOTU0LjIgNjEwLjEgOTYxLjYgNjAxLjIgOTY0LjQgNTkwLjYgOTYyLjMgNTc5LjMgOTU3LjYgNTU0IDkyOC4xIDUyNy4yIDg2OCA0OTMuMUw4NjggNDkzLjFaIi8+JiN4YTs8L2c+JiN4YTs8L2c+JiN4YTs8ZyBpZD0iaWNvbi1zZXJ2aWNlLWN3IiBmaWxsLXJ1bGU9ImV2ZW5vZGQiIGZpbGw9Im5vbmUiIHN0cm9rZS13aWR0aD0iMSIgc3Ryb2tlPSJub25lIj4mI3hhOzxwb2x5Z29uIHBvaW50cz0iMCAwIDQ4IDAgNDggNDggMCA0OCIgZmlsbC1ydWxlPSJub256ZXJvIiBmaWxsPSJ1cmwoI2dyYWRpZW50LXBpbmspIi8+JiN4YTs8ZyB0cmFuc2Zvcm09InRyYW5zbGF0ZSg4IDgpIHNjYWxlKDAuMDMyKSI+JiN4YTs8cGF0aCBmaWxsPSIjRkZGRkZGIiBkPSJNNzQ1LjkgNjI1Qzc0NS45IDU1OS4zIDY5MS40IDUwNS45IDYyNC40IDUwNS45IDU1Ny40IDUwNS45IDUwMi45IDU1OS4zIDUwMi45IDYyNSA1MDIuOSA2OTAuNiA1NTcuNCA3NDQgNjI0LjQgNzQ0IDY5MS40IDc0NCA3NDUuOSA2OTAuNiA3NDUuOSA2MjVMNzQ1LjkgNjI1Wk03ODAuNiA2MjVDNzgwLjYgNzA5LjQgNzEwLjUgNzc4IDYyNC40IDc3OCA1MzguMyA3NzggNDY4LjIgNzA5LjQgNDY4LjIgNjI1IDQ2OC4yIDU0MC42IDUzOC4zIDQ3MS45IDYyNC40IDQ3MS45IDcxMC41IDQ3MS45IDc4MC42IDU0MC42IDc4MC42IDYyNUw3ODAuNiA2MjVaTTkyOCA4NTEuOEw4MTEuMiA3NDguN0M4MDEuMiA3NjMuMSA3ODkuNSA3NzYuMSA3NzYuNCA3ODcuOEw4OTIuNiA4OTAuNEM5MDMuNSA5MDAgOTIwLjIgODk5LjEgOTMwIDg4OC41IDkzOS43IDg3Ny45IDkzOC44IDg2MS40IDkyOCA4NTEuOEw5MjggODUxLjhaTTYyNC40IDgxMkM3MjkuNiA4MTIgODE1LjMgNzI4LjEgODE1LjMgNjI1IDgxNS4zIDUyMS44IDcyOS42IDQzNy45IDYyNC40IDQzNy45IDUxOS4yIDQzNy45IDQzMy41IDUyMS44IDQzMy41IDYyNSA0MzMuNSA3MjguMSA1MTkuMiA4MTIgNjI0LjQgODEyTDYyNC40IDgxMlpNOTUxLjIgODI2LjZDOTc2LjIgODQ4LjcgOTc4LjIgODg2LjcgOTU1LjggOTExLjIgOTQzLjYgOTI0LjQgOTI3IDkzMSA5MTAuMiA5MzEgODk1LjYgOTMxIDg4MSA5MjYgODY5LjMgOTE1LjdMNzQ4LjggODA5LjJDNzEzLjEgODMyLjQgNjcwLjQgODQ2IDYyNC40IDg0NiA1MDAgODQ2IDM5OC44IDc0Ni45IDM5OC44IDYyNSAzOTguOCA1MDMuMSA1MDAgNDAzLjkgNjI0LjQgNDAzLjkgNzQ4LjggNDAzLjkgODUwIDUwMy4xIDg1MCA2MjUgODUwIDY1OC4zIDg0Mi4yIDY4OS45IDgyOC42IDcxOC4zTDk1MS4yIDgyNi42Wk0xNTguNCA2NDJMMzI5LjQgNjQyIDMyOS40IDY3NiAxNTguMSA2NzZDMTM4LjkgNjc1LjggMTE4LjMgNjY4LjkgOTYuNSA2NTUuNSA2MC42IDYzMy42IDAgNTgyLjEgMCA0ODQgMCAzNjUuMyA4My4xIDMyMS43IDEzMS41IDMwNi40IDEzMS4xIDMwMC44IDEzMC45IDI5NS4xIDEzMC45IDI4OS40IDEzMC45IDE5Mi43IDE5Ny44IDkyLjQgMjg2LjYgNTYuMSAzOTAuNSAxMy41IDUwMC41IDM0LjcgNTgwLjggMTEyLjYgNjA1LjkgMTM3IDYyNi41IDE2Ni42IDY0Mi4zIDIwMSA2NjMuNSAxODMuNSA2ODkuNyAxNzMuOSA3MTcuNCAxNzMuOSA3NzEuMiAxNzMuOSA4MzEuOSAyMTQgODQyLjQgMzAxLjkgODkyLjcgMzEzLjEgMTAwMCAzNTIuOCAxMDAwIDQ4NS40IDEwMDAgNTQyLjMgOTgwLjUgNTg4LjUgOTQxLjggNjIyLjNMOTE4LjcgNTk3Qzk0OS42IDU2OS44IDk2NS4zIDUzMi4zIDk2NS4zIDQ4NS40IDk2NS4zIDM2OC43IDg2NS43IDMzOS44IDgyMi45IDMzMi43IDgxOC4zIDMzMiA4MTQuMiAzMjkuNCA4MTEuNSAzMjUuNiA4MDguOCAzMjEuOCA4MDcuOCAzMTcuMSA4MDguNyAzMTIuNiA4MDMuNyAyNDEgNzU5LjIgMjA3LjkgNzE3LjQgMjA3LjkgNjkxLjMgMjA3LjkgNjY2LjggMjIwLjMgNjUwLjMgMjQyIDY0Ni41IDI0Ny4xIDY0MC4xIDI0OS41IDYzMy44IDI0OC43IDYyNy41IDI0Ny44IDYyMi4yIDI0My41IDYyMC4xIDIzNy42IDYwNS4xIDE5Ny4yIDU4My43IDE2My4zIDU1Ni40IDEzNi44IDQ4Ni4zIDY4LjggMzkwLjUgNTAuMyAyOTkuOSA4Ny41IDIyNC42IDExOC4zIDE2NS42IDIwNyAxNjUuNiAyODkuNCAxNjUuNiAyOTguNyAxNjYuMiAzMDcuOSAxNjcuMyAzMTYuOCAxNjcuOSAzMjEuNiAxNjYuNCAzMjYuNSAxNjMuMSAzMzAuMSAxNjAuNCAzMzMuMSAxNTYuOSAzMzUgMTUzIDMzNS43IDEwOC4zIDM0Ni45IDM0LjcgMzgxLjIgMzQuNyA0ODQgMzQuNyA1NjEuNSA3OC40IDYwNC40IDExNC45IDYyNi42IDEzMS4zIDYzNi43IDE0NS44IDY0MS44IDE1OC40IDY0MkwxNTguNCA2NDJaIi8+JiN4YTs8L2c+JiN4YTs8L2c+JiN4YTs8L2RlZnM+JiN4YTs8L2c+JiN4YTs8L3N2Zz4=;" vertex="1" parent="1">
          <mxGeometry x="440" y="160" width="598.71" height="793" as="geometry" />
        </mxCell>
        <mxCell id="fzwWqeAGMKwhFWI8UKxH-2" value="AWS Step Functions workflow" style="points=[[0,0],[0.25,0],[0.5,0],[0.75,0],[1,0],[1,0.25],[1,0.5],[1,0.75],[1,1],[0.75,1],[0.5,1],[0.25,1],[0,1],[0,0.75],[0,0.5],[0,0.25]];outlineConnect=0;gradientColor=none;html=1;whiteSpace=wrap;fontSize=14;fontStyle=0;container=1;pointerEvents=0;collapsible=0;recursiveResize=0;shape=mxgraph.aws4.group;grIcon=mxgraph.aws4.group_aws_step_functions_workflow;strokeColor=#CD2264;fillColor=none;verticalAlign=top;align=left;spacingLeft=55;fontColor=#CD2264;dashed=0;spacingTop=9;" vertex="1" parent="1">
          <mxGeometry x="419.36" y="141.5" width="640" height="830" as="geometry" />
        </mxCell>
        <mxCell id="fzwWqeAGMKwhFWI8UKxH-3" value="" style="sketch=0;points=[[0,0,0],[0.25,0,0],[0.5,0,0],[0.75,0,0],[1,0,0],[0,1,0],[0.25,1,0],[0.5,1,0],[0.75,1,0],[1,1,0],[0,0.25,0],[0,0.5,0],[0,0.75,0],[1,0.25,0],[1,0.5,0],[1,0.75,0]];outlineConnect=0;fontColor=#232F3E;fillColor=#E7157B;strokeColor=#ffffff;dashed=0;verticalLabelPosition=bottom;verticalAlign=top;align=center;html=1;fontSize=12;fontStyle=0;aspect=fixed;shape=mxgraph.aws4.resourceIcon;resIcon=mxgraph.aws4.eventbridge;" vertex="1" parent="1">
          <mxGeometry x="210" y="141.5" width="48.5" height="48.5" as="geometry" />
        </mxCell>
        <mxCell id="fzwWqeAGMKwhFWI8UKxH-4" value="" style="sketch=0;points=[[0,0,0],[0.25,0,0],[0.5,0,0],[0.75,0,0],[1,0,0],[0,1,0],[0.25,1,0],[0.5,1,0],[0.75,1,0],[1,1,0],[0,0.25,0],[0,0.5,0],[0,0.75,0],[1,0.25,0],[1,0.5,0],[1,0.75,0]];outlineConnect=0;fontColor=#232F3E;fillColor=#E7157B;strokeColor=#ffffff;dashed=0;verticalLabelPosition=bottom;verticalAlign=top;align=center;html=1;fontSize=12;fontStyle=0;aspect=fixed;shape=mxgraph.aws4.resourceIcon;resIcon=mxgraph.aws4.step_functions;" vertex="1" parent="1">
          <mxGeometry x="419.36" y="141.5" width="48.5" height="48.5" as="geometry" />
        </mxCell>
        <mxCell id="fzwWqeAGMKwhFWI8UKxH-5" value="Amazon EventBridge" style="text;strokeColor=none;align=center;fillColor=none;html=1;verticalAlign=middle;whiteSpace=wrap;rounded=0;" vertex="1" parent="1">
          <mxGeometry x="169.25" y="190" width="130" height="30" as="geometry" />
        </mxCell>
        <mxCell id="fzwWqeAGMKwhFWI8UKxH-6" style="edgeStyle=orthogonalEdgeStyle;rounded=0;orthogonalLoop=1;jettySize=auto;html=1;entryX=0;entryY=0.5;entryDx=0;entryDy=0;entryPerimeter=0;" edge="1" parent="1" source="fzwWqeAGMKwhFWI8UKxH-3" target="fzwWqeAGMKwhFWI8UKxH-4">
          <mxGeometry relative="1" as="geometry" />
        </mxCell>
        <mxCell id="fzwWqeAGMKwhFWI8UKxH-7" value="(Daily execution)" style="text;strokeColor=none;align=center;fillColor=none;html=1;verticalAlign=middle;whiteSpace=wrap;rounded=0;" vertex="1" parent="1">
          <mxGeometry x="270" y="141.5" width="130" height="30" as="geometry" />
        </mxCell>
      </root>
    </mxGraphModel>
  </diagram>
</mxfile>
